<svg xmlns="http://www.w3.org/2000/svg" xml:space="preserve" width="983px" height="986px" version="1.1" style="shape-rendering:geometricPrecision; text-rendering:geometricPrecision; image-rendering:optimizeQuality; fill-rule:evenodd; clip-rule:evenodd"
viewBox="0 0 983 986"
 xmlns:xlink="http://www.w3.org/1999/xlink">
 <defs>
  <style type="text/css">
   <![CDATA[
    .fil0 {fill:white}
   ]]>
  </style>
 </defs>
 <g id="Layer_x0020_1">
  <metadata id="CorelCorpID_0Corel-Layer"/>
  <g>
   <path class="fil0" d="M787 196c-3,-4 -6,-8 -6,-13 0,-5 3,-9 6,-13 9,-7 21,-7 28,0 4,4 6,8 6,13 0,5 -2,9 -6,13 -3,3 -9,5 -14,5 -5,1 -10,-1 -14,-5l0 0zm-49 52c-3,-3 -5,-8 -5,-13 0,-5 2,-9 5,-13 7,-7 19,-7 26,0 4,4 5,8 5,13 0,5 -2,10 -5,13 -4,4 -8,5 -13,5 -5,0 -9,-1 -13,-5l0 0zm-54 52c-3,-3 -5,-8 -5,-13 0,-5 2,-10 5,-13 7,-8 19,-8 26,0 4,3 5,8 5,13 0,5 -2,9 -5,13 -3,4 -8,5 -13,5 -5,0 -10,-2 -13,-5l0 0zm-51 52c-4,-4 -6,-9 -6,-14 0,-4 2,-9 6,-13 8,-7 20,-7 28,0 4,4 6,9 6,13 0,5 -2,10 -6,14 -4,3 -9,5 -14,5 -5,0 -10,-2 -14,-5l0 0zm-49 51c-4,-4 -5,-8 -5,-13 0,-5 2,-10 5,-14 7,-7 19,-7 26,0 4,4 5,9 5,14 0,5 -2,9 -5,13 -3,4 -8,5 -13,5 -6,1 -11,-1 -13,-5l0 0zm-60 38c0,-5 2,-9 5,-13 7,-7 19,-7 26,0 4,4 5,8 5,13 0,5 -2,10 -5,13 -3,4 -8,5 -13,5 -5,0 -10,-2 -13,-5 -3,-2 -5,-8 -5,-13zm-96 114c-3,-3 -5,-8 -5,-13 0,-5 2,-9 5,-13 7,-7 19,-7 26,0 4,4 5,8 5,13 0,5 -2,10 -5,13 -3,4 -8,5 -13,5 -5,2 -9,-1 -13,-5l0 0zm-54 52c-4,-3 -6,-8 -6,-13 0,-5 2,-9 6,-13 8,-7 21,-7 28,0 4,4 6,8 6,13 0,5 -2,9 -6,13 -4,4 -9,5 -14,5 -4,1 -9,-1 -14,-5l0 0zm-49 52c-4,-3 -5,-8 -5,-13 0,-5 2,-10 5,-13 7,-7 19,-7 26,0 3,3 5,8 5,13 0,5 -2,9 -5,13 -4,4 -8,5 -13,5 -5,0 -9,-1 -13,-5l0 0zm-51 52c-4,-3 -5,-8 -5,-13 0,-5 2,-10 5,-13 7,-8 19,-8 26,0 3,3 5,8 5,13 0,5 -2,10 -5,13 -4,4 -8,5 -13,5 -6,0 -11,-1 -13,-5l0 0zm-54 52c-4,-4 -6,-9 -6,-14 0,-4 2,-9 6,-13 8,-7 20,-7 27,0 4,4 6,9 6,13 0,5 -2,10 -6,14 -4,3 -9,5 -14,5 -5,0 -10,-2 -13,-5l0 0zm-51 51c-4,-4 -5,-9 -5,-13 0,-5 2,-10 5,-14 7,-7 19,-7 27,0 3,4 5,9 5,14 0,4 -3,9 -5,13 -4,3 -9,5 -14,5 -3,1 -8,-1 -13,-5l0 0zm27 -618c3,-4 5,-8 5,-13 0,-5 -3,-9 -5,-13 -8,-7 -20,-7 -27,0 -4,4 -5,8 -5,13 0,5 2,9 5,13 4,3 8,5 13,5 5,1 10,-1 14,-5l0 0zm51 52c4,-3 6,-8 6,-13 0,-5 -2,-9 -6,-13 -8,-7 -20,-7 -28,0 -4,4 -6,8 -6,13 0,5 2,10 6,13 4,4 10,5 15,5 4,0 9,-1 13,-5l0 0zm52 52c4,-3 5,-8 5,-13 0,-5 -2,-10 -5,-13 -7,-8 -19,-8 -26,0 -3,3 -5,8 -5,13 0,5 2,9 5,13 4,4 8,5 13,5 5,0 10,-2 13,-5l0 0zm52 52c3,-4 5,-9 5,-14 0,-4 -2,-9 -5,-13 -7,-7 -19,-7 -26,0 -4,4 -5,9 -5,13 0,5 2,10 5,14 4,3 8,5 13,5 4,0 9,-2 13,-5l0 0zm51 51c3,-4 6,-8 6,-13 0,-5 -3,-10 -6,-14 -7,-7 -21,-7 -28,0 -4,4 -6,9 -6,14 0,5 2,9 6,13 4,4 10,5 14,5 5,1 10,-1 14,-5l0 0zm57 38c0,-5 -2,-9 -5,-13 -7,-7 -19,-7 -26,0 -4,4 -5,8 -5,13 0,5 2,10 5,13 3,4 8,5 13,5 5,0 10,-2 13,-5 4,-2 5,-8 5,-13zm46 66c4,-4 5,-8 5,-13 0,-5 -2,-9 -5,-13 -7,-7 -19,-7 -26,0 -4,4 -5,8 -5,13 0,5 2,9 5,13 3,3 8,5 13,5 5,0 11,-2 13,-5l0 0zm52 48c4,-3 6,-8 6,-13 0,-5 -2,-9 -6,-13 -8,-7 -20,-7 -27,0 -4,4 -6,8 -6,13 0,5 2,10 6,13 4,4 9,5 14,5 4,2 9,-1 13,-5l0 0zm52 52c4,-3 5,-8 5,-13 0,-5 -2,-9 -5,-13 -7,-7 -19,-7 -26,0 -3,4 -5,8 -5,13 0,5 2,9 5,13 4,4 8,5 13,5 5,1 9,-1 13,-5l0 0zm52 52c3,-3 5,-8 5,-13 0,-5 -2,-10 -5,-13 -7,-7 -19,-7 -26,0 -4,3 -5,8 -5,13 0,5 2,9 5,13 3,4 8,5 13,5 5,0 9,-1 13,-5l0 0zm48 52c4,-3 5,-8 5,-13 0,-5 -2,-10 -5,-13 -7,-8 -19,-8 -26,0 -3,3 -5,8 -5,13 0,5 2,10 5,13 4,4 8,5 13,5 5,0 11,-1 13,-5l0 0zm55 52c4,-4 5,-9 5,-14 0,-4 -2,-9 -5,-13 -7,-7 -19,-7 -26,0 -4,4 -5,9 -5,13 0,5 2,10 5,14 3,3 8,5 13,5 5,0 10,-2 13,-5l0 0zm51 51c4,-4 6,-9 6,-13 0,-5 -2,-10 -6,-14 -8,-7 -20,-7 -27,0 -4,4 -6,9 -6,14 0,4 2,9 6,13 4,3 9,5 14,5 5,1 10,-1 13,-5l0 0zm-497 -604c52,-34 109,-51 173,-52 63,0 121,17 174,52l111 -111c-87,-65 -181,-99 -285,-99 -104,0 -199,34 -283,99l110 111zm-111 455c-36,-53 -53,-111 -53,-172 0,-63 17,-120 53,-173l-110 -110c-65,85 -97,179 -97,284 0,103 32,198 98,283l109 -112zm458 111c-52,35 -110,53 -172,54 -64,0 -122,-17 -175,-53l-111 110c86,66 181,100 286,99 104,-1 198,-34 283,-99l-111 -111zm108 -457c35,54 53,112 53,176 -1,62 -18,118 -53,170l111 110c65,-85 99,-179 99,-282 1,-105 -32,-200 -99,-286l-111 112zm116 491c42,0 78,34 78,78 0,42 -34,78 -78,78 -42,0 -78,-34 -78,-78 1,-44 35,-78 78,-78l0 0zm-793 0c42,0 77,34 77,78 0,42 -35,78 -77,78 -43,0 -77,-34 -77,-78 0,-44 34,-78 77,-78l0 0zm794 -793c42,0 77,34 77,78 0,43 -34,78 -77,78 -43,0 -77,-34 -77,-78 1,-43 35,-78 77,-78l0 0zm-795 0c42,0 78,34 78,77 0,42 -35,77 -78,77 -43,0 -79,-34 -79,-77 1,-42 35,-77 79,-77l0 0z"/>
  </g>
 </g>
</svg>
