<svg xmlns="http://www.w3.org/2000/svg" xml:space="preserve" width="1013px" height="1026px" version="1.1" style="shape-rendering:geometricPrecision; text-rendering:geometricPrecision; image-rendering:optimizeQuality; fill-rule:evenodd; clip-rule:evenodd"
viewBox="0 0 1013 1026"
 xmlns:xlink="http://www.w3.org/1999/xlink">
 <defs>
  <style type="text/css">
   <![CDATA[
    .fil0 {fill:#2F4131;fill-rule:nonzero}
   ]]>
  </style>
 </defs>
 <g id="Layer_x0020_1">
  <metadata id="CorelCorpID_0Corel-Layer"/>
  <g id="_451783424">
   <g>
    <g>
     <path class="fil0" d="M41 663c-9,0 -17,-5 -20,-14 -2,-5 -44,-119 -3,-268 4,-11 16,-18 27,-15 12,3 19,15 16,27 -38,135 0,240 1,241 4,11 -2,24 -13,28 -3,1 -5,1 -8,1z"/>
    </g>
    <g>
     <path class="fil0" d="M88 292c-3,0 -7,-1 -10,-2 -11,-6 -15,-19 -10,-30 2,-3 182,-349 575,-238 12,3 18,15 15,27 -3,12 -15,18 -27,15 -357,-100 -517,203 -523,216 -4,8 -12,12 -20,12z"/>
    </g>
    <g>
     <path class="fil0" d="M991 416c-10,0 -19,-6 -21,-16 -51,-208 -245,-304 -246,-305 -11,-5 -16,-19 -11,-30 6,-11 19,-15 30,-10 8,4 214,106 269,334 3,12 -4,24 -16,27 -2,0 -3,0 -5,0z"/>
    </g>
    <g>
     <path class="fil0" d="M152 873c-2,0 -3,0 -5,0 -12,-3 -19,-15 -16,-27 0,-1 27,-118 -11,-239 -3,-12 3,-24 15,-28 11,-4 24,3 27,15 42,133 13,257 11,262 -2,10 -11,17 -21,17z"/>
    </g>
    <g>
     <path class="fil0" d="M129 538c0,0 0,0 -1,0 -12,0 -21,-11 -21,-23 1,-11 18,-272 231,-365 218,-96 366,5 438,54l9 6c11,7 13,21 7,31 -7,10 -21,13 -31,6l-10 -7c-70,-47 -200,-135 -395,-50 -188,83 -205,325 -205,328 0,11 -10,20 -22,20z"/>
    </g>
    <g>
     <path class="fil0" d="M924 802c-1,0 -1,0 -2,0 -12,0 -21,-11 -21,-23 15,-299 -88,-469 -89,-470 -6,-11 -3,-24 7,-31 11,-6 24,-3 31,8 4,7 111,183 96,495 -1,12 -11,21 -22,21z"/>
    </g>
    <g>
     <path class="fil0" d="M242 948c-3,0 -5,0 -7,-1 -12,-4 -18,-16 -15,-28 1,-1 53,-171 14,-295 -46,-146 -8,-277 102,-351 10,-7 24,-4 31,6 6,10 4,24 -6,31 -93,62 -125,175 -85,301 43,137 -11,314 -13,322 -3,9 -12,15 -21,15z"/>
    </g>
    <g>
     <path class="fil0" d="M816 928c-1,0 -2,0 -3,0 -12,-2 -20,-13 -18,-25 0,-3 39,-244 -40,-464 -86,-242 -321,-165 -331,-161 -12,3 -24,-3 -28,-14 -4,-12 2,-24 13,-28 3,-1 287,-94 388,188 82,231 43,476 41,486 -2,11 -11,18 -22,18z"/>
    </g>
    <g>
     <path class="fil0" d="M339 1002c-3,0 -5,-1 -7,-1 -12,-4 -18,-16 -14,-28 0,-2 54,-170 30,-310 -2,-12 6,-24 18,-26 12,-2 23,6 26,18 25,151 -30,324 -32,332 -3,9 -12,15 -21,15z"/>
    </g>
    <g>
     <path class="fil0" d="M713 732c-12,0 -22,-10 -22,-22 0,-44 -15,-188 -38,-242 -23,-54 -81,-137 -205,-87 -121,49 -72,186 -70,191 4,12 -1,24 -13,29 -11,4 -24,-2 -28,-13 -23,-63 -34,-196 95,-248 169,-68 243,68 262,111 27,64 41,218 41,259 0,12 -9,22 -22,22z"/>
    </g>
    <g>
     <path class="fil0" d="M689 1002c-2,0 -4,0 -6,-1 -11,-3 -18,-16 -15,-27 21,-73 23,-181 23,-182 1,-12 10,-22 23,-22 12,1 22,11 21,23 0,4 -2,115 -24,193 -3,10 -12,16 -22,16z"/>
    </g>
    <g>
     <path class="fil0" d="M446 1026c-2,0 -4,0 -7,-1 -11,-4 -18,-16 -14,-28 0,-1 24,-80 31,-139 1,-12 12,-21 24,-19 13,1 21,12 20,24 -7,63 -32,144 -33,147 -3,10 -12,16 -21,16z"/>
    </g>
    <g>
     <path class="fil0" d="M573 1026c-1,0 -3,0 -4,-1 -12,-2 -20,-14 -17,-26 56,-277 16,-418 -1,-478 -2,-7 -4,-12 -5,-18 -2,-7 -11,-32 -45,-25 -1,0 -16,4 -23,16 -5,9 -5,22 0,38 23,72 29,234 29,241 0,12 -9,22 -21,22 0,0 -1,0 -1,0 -12,0 -22,-9 -22,-21 0,-1 -6,-162 -27,-229 -9,-28 -8,-53 4,-74 17,-28 48,-35 52,-36 31,-7 83,3 97,58 1,4 3,10 4,16 18,63 60,212 2,499 -2,11 -12,18 -22,18z"/>
    </g>
   </g>
  </g>
 </g>
</svg>
