<?xml version="1.0" encoding="UTF-8"?>
<svg xmlns="http://www.w3.org/2000/svg"  width="1147px" height="894px" version="1.1" style="shape-rendering:geometricPrecision; text-rendering:geometricPrecision; image-rendering:optimizeQuality; fill-rule:evenodd; clip-rule:evenodd"
viewBox="0 0 1147 894"
 xmlns:xlink="http://www.w3.org/1999/xlink">
 <defs>
  <style type="text/css">
   <![CDATA[
    .fil0 {fill:white;fill-rule:nonzero}
    .fil1 {fill:white;fill-rule:nonzero}
   ]]>
  </style>
 </defs>
 <g id="Layer_x0020_1">
  <metadata id="CorelCorpID_0Corel-Layer"/>
  <g id="_237158768">
   <path class="fil0" d="M168 545c43,0 86,6 117,17 31,10 50,25 51,40 1,16 -16,31 -48,42 -31,11 -75,18 -120,18 -45,0 -90,-7 -121,-18 -31,-11 -48,-26 -47,-42 1,-15 20,-30 51,-40 31,-11 74,-17 117,-17zm0 1c-43,0 -85,6 -115,16 -30,10 -46,23 -45,37 0,13 19,26 49,35 29,9 70,15 111,14 41,1 82,-5 111,-14 30,-9 48,-22 49,-35 1,-14 -15,-27 -45,-37 -30,-10 -72,-16 -115,-16z"/>
   <path class="fil0" d="M327 609l0 53c-1,7 -7,14 -17,20l0 -52 -9 0 0 57c-6,3 -14,6 -22,8 -1,0 -1,1 -2,1l0 -53 -11 0 0 56c-11,3 -24,5 -37,7l0 -56 -12 0 0 57c-14,2 -28,2 -42,3l0 -53 -14 0 0 53c-14,-1 -29,-1 -42,-3l0 -57 -13 0 0 56c-13,-2 -25,-4 -36,-7l0 -56 -11 0 0 53c-1,0 -2,-1 -2,-1 -9,-2 -16,-5 -22,-8l0 -57 -9 0 0 52c-10,-6 -16,-13 -18,-20l0 -53 -8 -7 0 61c0,0 0,0 0,0 0,0 0,1 0,1l0 1 0 0c0,15 17,30 47,40 31,11 76,18 121,18 45,0 89,-7 120,-18 31,-10 48,-25 48,-40l0 0 0 -63 -9 7z"/>
   <path class="fil0" d="M327 666l0 53c-1,7 -7,14 -17,20l0 -52 -9 0 0 57c-6,3 -14,6 -22,8 -1,0 -1,1 -2,1l0 -53 -11 0 0 56c-11,3 -24,5 -37,7l0 -56 -12 0 0 57c-14,1 -28,2 -42,2l0 -52 -14 0 0 52c-14,0 -29,-1 -42,-2l0 -57 -13 0 0 56c-13,-2 -25,-4 -36,-7l0 -56 -11 0 0 53c-1,0 -2,-1 -2,-1 -9,-2 -16,-5 -22,-8l0 -57 -9 0 0 52c-10,-6 -16,-13 -18,-20l0 -53 -8 -7 0 61c0,0 0,0 0,0 0,0 0,0 0,0l0 2 0 0c0,15 17,30 47,40 31,11 76,18 121,18 45,0 89,-7 120,-18 31,-10 48,-25 48,-40l0 0 0 -63 -9 7z"/>
   <path class="fil0" d="M327 723l0 53c-1,7 -7,14 -17,20l0 -52 -9 0 0 57c-6,3 -14,6 -22,8 -1,0 -1,1 -2,1l0 -53 -11 0 0 56c-11,3 -24,5 -37,7l0 -56 -12 0 0 57c-14,1 -28,2 -42,2l0 -53 -14 0 0 53c-14,0 -29,-1 -42,-2l0 -57 -13 0 0 56c-13,-2 -25,-4 -36,-7l0 -56 -11 0 0 53c-1,0 -2,-1 -2,-1 -9,-2 -16,-5 -22,-8l0 -57 -9 0 0 52c-10,-6 -16,-13 -18,-20l0 -53 -8 -7 0 61c0,0 0,0 0,0 0,0 0,0 0,0l0 2 0 0c0,15 17,29 47,40 31,11 76,18 121,18 45,0 89,-7 120,-18 31,-11 48,-25 48,-40l0 0 0 -63 -9 7z"/>
   <path class="fil0" d="M327 780l0 53c-1,7 -7,14 -17,20l0 -52 -9 0 0 57c-6,3 -14,6 -22,8 -1,0 -1,1 -2,1l0 -53 -11 0 0 56c-11,2 -24,5 -37,7l0 -56 -12 0 0 57c-14,1 -28,2 -42,2l0 -53 -14 0 0 53c-14,0 -29,-1 -42,-2l0 -57 -13 0 0 56c-13,-2 -25,-5 -36,-7l0 -56 -11 0 0 53c-1,-1 -2,-1 -2,-1 -9,-2 -16,-5 -22,-8l0 -57 -9 0 0 52c-10,-6 -16,-13 -18,-20l0 -53 -8 -7 0 61c0,0 0,0 0,0 0,0 0,0 0,0l0 2 0 0c0,15 17,29 47,40 31,11 76,18 121,18 45,0 89,-7 120,-18 31,-11 48,-25 48,-40l0 0 0 -63 -9 7z"/>
   <path class="fil0" d="M574 431c43,0 85,6 116,17 31,10 51,25 51,40 1,16 -16,31 -47,42 -31,11 -75,18 -120,18 -45,0 -90,-7 -121,-18 -31,-11 -48,-26 -47,-42 0,-15 20,-30 51,-40 31,-11 74,-17 117,-17zm0 1c-44,0 -86,6 -116,16 -30,10 -46,23 -45,37 1,13 19,26 49,35 30,9 71,15 112,15 41,0 81,-6 111,-15 30,-9 48,-22 49,-35 1,-14 -15,-27 -45,-37 -30,-10 -72,-16 -115,-16z"/>
   <path class="fil0" d="M733 552l0 53c-1,7 -8,14 -18,20l0 -52 -9 0 0 57c-6,3 -13,6 -21,8 -1,1 -2,1 -3,1l0 -52 -10 0 0 55c-12,3 -24,5 -37,7l0 -56 -12 0 0 57c-14,2 -28,2 -42,3l0 -53 -15 0 0 53c-14,-1 -28,-1 -42,-3l0 -57 -12 0 0 56c-13,-2 -25,-4 -37,-7l0 -55 -10 0 0 52c-1,0 -2,0 -3,-1 -8,-2 -15,-5 -21,-8l0 -57 -9 0 0 52c-10,-6 -17,-13 -18,-20l0 -53 -8 -7 0 61c0,1 0,1 0,1 0,0 0,0 0,0l0 1 0 0c0,15 17,30 47,40 31,12 76,18 121,18 45,0 89,-6 120,-18 30,-10 47,-25 47,-40l0 0 0 -63 -8 7z"/>
   <path class="fil0" d="M733 495l0 54c-1,6 -8,13 -18,19l0 -52 -9 0 0 57c-6,3 -13,6 -21,8 -1,1 -2,1 -3,1l0 -52 -10 0 0 55c-12,3 -24,5 -37,7l0 -56 -12 0 0 57c-14,2 -28,2 -42,3l0 -53 -15 0 0 53c-14,-1 -28,-1 -42,-3l0 -57 -12 0 0 56c-13,-2 -25,-4 -37,-7l0 -55 -10 0 0 52c-1,0 -2,0 -3,-1 -8,-2 -15,-5 -21,-8l0 -57 -9 0 0 52c-10,-6 -17,-13 -18,-20l0 -53 -8 -7 0 62c0,0 0,0 0,0 0,0 0,0 0,0l0 1 0 0c0,15 17,30 47,40 31,12 76,18 121,18 45,0 89,-6 120,-18 30,-10 47,-25 47,-40l0 0 0 -63 -8 7z"/>
   <path class="fil0" d="M733 609l0 53c-1,7 -8,14 -18,20l0 -52 -9 0 0 57c-6,3 -13,6 -21,8 -1,0 -2,1 -3,1l0 -53 -10 0 0 56c-12,3 -24,5 -37,7l0 -56 -12 0 0 57c-14,2 -28,2 -42,3l0 -53 -15 0 0 53c-14,-1 -28,-1 -42,-3l0 -57 -12 0 0 56c-13,-2 -25,-4 -37,-7l0 -56 -10 0 0 53c-1,0 -2,-1 -3,-1 -8,-2 -15,-5 -21,-8l0 -57 -9 0 0 52c-10,-6 -17,-13 -18,-20l0 -53 -8 -7 0 61c0,0 0,0 0,0 0,0 0,1 0,1l0 1 0 0c0,15 17,30 47,40 31,11 76,18 121,18 45,0 89,-7 120,-18 30,-10 47,-25 47,-40l0 0 0 -63 -8 7z"/>
   <path class="fil0" d="M733 666l0 53c-1,7 -8,14 -18,20l0 -52 -9 0 0 57c-6,3 -13,6 -21,8 -1,0 -2,1 -3,1l0 -53 -10 0 0 56c-12,3 -24,5 -37,7l0 -56 -12 0 0 57c-14,1 -28,2 -42,2l0 -52 -15 0 0 52c-14,0 -28,-1 -42,-2l0 -57 -12 0 0 56c-13,-2 -25,-4 -37,-7l0 -56 -10 0 0 53c-1,0 -2,-1 -3,-1 -8,-2 -15,-5 -21,-8l0 -57 -9 0 0 52c-10,-6 -17,-13 -18,-20l0 -53 -8 -7 0 61c0,0 0,0 0,0 0,0 0,0 0,0l0 2 0 0c0,15 17,30 47,40 31,11 76,18 121,18 45,0 89,-7 120,-18 30,-10 47,-25 47,-40l0 0 0 -63 -8 7z"/>
   <path class="fil0" d="M733 723l0 53c-1,7 -8,14 -18,20l0 -52 -9 0 0 57c-6,3 -13,6 -21,8 -1,0 -2,1 -3,1l0 -53 -10 0 0 56c-12,3 -24,5 -37,7l0 -56 -12 0 0 57c-14,1 -28,2 -42,2l0 -53 -15 0 0 53c-14,0 -28,-1 -42,-2l0 -57 -12 0 0 56c-13,-2 -25,-4 -37,-7l0 -56 -10 0 0 53c-1,0 -2,-1 -3,-1 -8,-2 -15,-5 -21,-8l0 -57 -9 0 0 52c-10,-6 -17,-13 -18,-20l0 -53 -8 -7 0 61c0,0 0,0 0,0 0,0 0,0 0,0l0 2 0 0c0,15 17,29 47,40 31,11 76,18 121,18 45,0 89,-7 120,-18 30,-11 47,-25 47,-40l0 0 0 -63 -8 7z"/>
   <path class="fil0" d="M733 780l0 53c-1,7 -8,14 -18,20l0 -52 -9 0 0 57c-6,3 -13,6 -21,8 -1,0 -2,1 -3,1l0 -53 -10 0 0 56c-12,2 -24,5 -37,7l0 -56 -12 0 0 57c-14,1 -28,2 -42,2l0 -53 -15 0 0 53c-14,0 -28,-1 -42,-2l0 -57 -12 0 0 56c-13,-2 -25,-5 -37,-7l0 -56 -10 0 0 53c-1,-1 -2,-1 -3,-1 -8,-2 -15,-5 -21,-8l0 -57 -9 0 0 52c-10,-6 -17,-13 -18,-20l0 -53 -8 -7 0 61c0,0 0,0 0,0 0,0 0,0 0,0l0 2 0 0c0,15 17,29 47,40 31,11 76,18 121,18 45,0 89,-7 120,-18 30,-11 47,-25 47,-40l0 0 0 -63 -8 7z"/>
   <path class="fil0" d="M979 318c43,-1 86,5 117,16 31,10 50,25 51,41 1,15 -16,30 -47,41 -31,12 -76,18 -121,18 -45,0 -89,-6 -120,-18 -32,-11 -49,-26 -48,-41 1,-16 20,-31 51,-41 31,-11 74,-17 117,-16zm0 1c-43,0 -85,5 -115,15 -30,10 -46,23 -45,37 1,13 19,26 49,35 29,10 70,15 111,15 41,0 82,-5 111,-15 30,-9 49,-22 49,-35 1,-14 -15,-27 -45,-37 -30,-10 -72,-15 -115,-15z"/>
   <path class="fil0" d="M1139 495l0 54c-2,6 -8,13 -18,19l0 -52 -9 0 0 57c-6,3 -13,6 -22,8 0,1 -1,1 -2,1l0 -52 -11 0 0 55c-11,3 -23,5 -36,7l0 -56 -13 0 0 57c-13,2 -28,2 -42,3l0 -53 -14 0 0 53c-14,-1 -28,-1 -42,-3l0 -57 -12 0 0 56c-13,-2 -26,-4 -37,-7l0 -55 -11 0 0 52c0,0 -1,0 -2,-1 -8,-2 -16,-5 -22,-8l0 -57 -9 0 0 52c-10,-6 -16,-13 -17,-20l0 -53 -9 -7 0 62c0,0 0,0 0,0 0,0 0,0 0,0l0 1 0 0c0,15 17,30 48,40 31,12 75,18 120,18 45,0 90,-6 121,-18 30,-10 47,-25 47,-40l0 0 0 -63 -8 7z"/>
   <path class="fil0" d="M1139 438l0 54c-2,7 -8,13 -18,19l0 -52 -9 0 0 57c-6,3 -13,6 -22,8 0,1 -1,1 -2,1l0 -52 -11 0 0 55c-11,3 -23,5 -36,7l0 -56 -13 0 0 57c-13,2 -28,3 -42,3l0 -53 -14 0 0 53c-14,0 -28,-1 -42,-3l0 -57 -12 0 0 56c-13,-2 -26,-4 -37,-7l0 -55 -11 0 0 52c0,0 -1,0 -2,-1 -8,-2 -16,-5 -22,-8l0 -57 -9 0 0 52c-10,-6 -16,-13 -17,-20l0 -53 -9 -7 0 62c0,0 0,0 0,0 0,0 0,0 0,0l0 1 0 0c0,15 17,30 48,41 31,11 75,17 120,17 45,0 90,-6 121,-17 30,-11 47,-26 47,-41l0 0 0 -63 -8 7z"/>
   <path class="fil0" d="M1139 381l0 54c-2,7 -8,13 -18,19l0 -52 -9 0 0 57c-6,3 -13,6 -22,9 0,0 -1,0 -2,0l0 -52 -11 0 0 55c-11,3 -23,5 -36,7l0 -56 -13 0 0 57c-13,2 -28,3 -42,3l0 -53 -14 0 0 53c-14,0 -28,-1 -42,-3l0 -57 -12 0 0 56c-13,-2 -26,-4 -37,-7l0 -55 -11 0 0 52c0,0 -1,0 -2,0 -8,-3 -16,-6 -22,-9l0 -57 -9 0 0 52c-10,-6 -16,-13 -17,-20l0 -53 -9 -7 0 62c0,0 0,0 0,0 0,0 0,0 0,0l0 1 0 0c0,15 17,30 48,41 31,11 75,17 120,17 45,0 90,-6 121,-17 30,-11 47,-26 47,-41l0 0 0 -63 -8 7z"/>
   <path class="fil0" d="M1139 552l0 53c-2,7 -8,14 -18,20l0 -52 -9 0 0 57c-6,3 -13,6 -22,8 0,1 -1,1 -2,1l0 -52 -11 0 0 55c-11,3 -23,5 -36,7l0 -56 -13 0 0 57c-13,2 -28,2 -42,3l0 -53 -14 0 0 53c-14,-1 -28,-1 -42,-3l0 -57 -12 0 0 56c-13,-2 -26,-4 -37,-7l0 -55 -11 0 0 52c0,0 -1,0 -2,-1 -8,-2 -16,-5 -22,-8l0 -57 -9 0 0 52c-10,-6 -16,-13 -17,-20l0 -53 -9 -7 0 61c0,1 0,1 0,1 0,0 0,0 0,0l0 1 0 0c0,15 17,30 48,40 31,12 75,18 120,18 45,0 90,-6 121,-18 30,-10 47,-25 47,-40l0 0 0 -63 -8 7z"/>
   <path class="fil0" d="M1139 609l0 53c-2,7 -8,14 -18,20l0 -52 -9 0 0 57c-6,3 -13,6 -22,8 0,0 -1,1 -2,1l0 -53 -11 0 0 56c-11,3 -23,5 -36,7l0 -56 -13 0 0 57c-13,2 -28,2 -42,3l0 -53 -14 0 0 53c-14,-1 -28,-1 -42,-3l0 -57 -12 0 0 56c-13,-2 -26,-4 -37,-7l0 -56 -11 0 0 53c0,0 -1,-1 -2,-1 -8,-2 -16,-5 -22,-8l0 -57 -9 0 0 52c-10,-6 -16,-13 -17,-20l0 -53 -9 -7 0 61c0,0 0,0 0,0 0,0 0,1 0,1l0 1 0 0c0,15 17,30 48,40 31,11 75,18 120,18 45,0 90,-7 121,-18 30,-10 47,-25 47,-40l0 0 0 -63 -8 7z"/>
   <path class="fil0" d="M1139 666l0 53c-2,7 -8,14 -18,20l0 -52 -9 0 0 57c-6,3 -13,6 -22,8 0,0 -1,1 -2,1l0 -53 -11 0 0 56c-11,3 -23,5 -36,7l0 -56 -13 0 0 57c-13,1 -28,2 -42,2l0 -52 -14 0 0 52c-14,0 -28,-1 -42,-2l0 -57 -12 0 0 56c-13,-2 -26,-4 -37,-7l0 -56 -11 0 0 53c0,0 -1,-1 -2,-1 -8,-2 -16,-5 -22,-8l0 -57 -9 0 0 52c-10,-6 -16,-13 -17,-20l0 -53 -9 -7 0 61c0,0 0,0 0,0 0,0 0,0 0,0l0 2 0 0c0,15 17,30 48,40 31,11 75,18 120,18 45,0 90,-7 121,-18 30,-10 47,-25 47,-40l0 0 0 -63 -8 7z"/>
   <path class="fil0" d="M1139 723l0 53c-2,7 -8,14 -18,20l0 -52 -9 0 0 57c-6,3 -13,6 -22,8 0,0 -1,1 -2,1l0 -53 -11 0 0 56c-11,3 -23,5 -36,7l0 -56 -13 0 0 57c-13,1 -28,2 -42,2l0 -53 -14 0 0 53c-14,0 -28,-1 -42,-2l0 -57 -12 0 0 56c-13,-2 -26,-4 -37,-7l0 -56 -11 0 0 53c0,0 -1,-1 -2,-1 -8,-2 -16,-5 -22,-8l0 -57 -9 0 0 52c-10,-6 -16,-13 -17,-20l0 -53 -9 -7 0 61c0,0 0,0 0,0 0,0 0,0 0,0l0 2 0 0c0,15 17,29 48,40 31,11 75,18 120,18 45,0 90,-7 121,-18 30,-11 47,-25 47,-40l0 0 0 -63 -8 7z"/>
   <path class="fil0" d="M1139 780l0 53c-2,7 -8,14 -18,20l0 -52 -9 0 0 57c-6,3 -13,6 -22,8 0,0 -1,1 -2,1l0 -53 -11 0 0 56c-11,2 -23,5 -36,7l0 -56 -13 0 0 57c-13,1 -28,2 -42,2l0 -53 -14 0 0 53c-14,0 -28,-1 -42,-2l0 -57 -12 0 0 56c-13,-2 -26,-5 -37,-7l0 -56 -11 0 0 53c0,-1 -1,-1 -2,-1 -8,-2 -16,-5 -22,-8l0 -57 -9 0 0 52c-10,-6 -16,-13 -17,-20l0 -53 -9 -7 0 61c0,0 0,0 0,0 0,0 0,0 0,0l0 2 0 0c0,15 17,29 48,40 31,11 75,18 120,18 45,0 90,-7 121,-18 30,-11 47,-25 47,-40l0 0 0 -63 -8 7z"/>
   <polygon class="fil1" points="947,16 872,31 904,68 602,329 440,143 51,479 83,517 435,214 592,395 596,400 937,106 969,143 995,71 1021,0 "/>
  </g>
 </g>
</svg>
