<svg xmlns="http://www.w3.org/2000/svg" xml:space="preserve" width="8.92884in" height="5.25798in" version="1.1" style="shape-rendering:geometricPrecision; text-rendering:geometricPrecision; image-rendering:optimizeQuality; fill-rule:evenodd; clip-rule:evenodd"
     viewBox="0 0 8929 5258">
 <defs>
  <style type="text/css">
   <![CDATA[
    .fil1 {fill:#33404a;fill-rule:nonzero}
    .fil0 {fill:#33404a;fill-rule:nonzero}
   ]]>
  </style>
 </defs>
    <g id="Layer_x0020_1">
  <metadata id="CorelCorpID_0Corel-Layer"/>
        <g>
   <path class="fil0" d="M8891 1000l-375 0c-4,0 -7,2 -10,4l-361 382c-2,1 -3,3 -3,6l-340 1217 -851 475 -454 -237c-5,-3 -12,-2 -16,2l-929 820 126 -306 1 2 814 -789 453 216c4,2 8,2 12,0l562 -301c3,-2 5,-4 7,-7l440 -1161 417 -476 363 -78 146 219 -2 12zm-118 1163l-679 1139 -478 407 -592 382 5 8 -7 0c-1,0 -3,0 -4,1l-1101 300 -634 0 138 -412 106 -259 965 -852 453 236c4,2 9,2 14,0l862 -482c3,-1 6,-5 7,-8l340 -1220 355 -375 365 0 -115 1135zm-1175 1599l5 -5 -1 5 -4 0zm459 79l-487 253 55 -301 432 48zm-517 258l-476 0 490 -316c2,2 5,3 8,4l35 3 -57 309zm-2279 276l-871 -1085 1415 -310 -411 998c0,0 0,0 0,0l-133 397zm-514 609l-514 228 135 -674 884 -117 -505 563zm-460 -675c-1,-3 -4,-6 -7,-8l95 -984 865 1076 -878 117 1 8 -76 -209zm-34 -17l-955 -332 -859 -679 -113 -140 1149 594c2,1 3,1 5,1l818 82 -45 474zm-1969 -1203l-506 -628 -195 -369 865 858c2,1 3,2 5,3l1143 521c1,1 2,1 3,1l719 138 -17 177 -815 -82 -1202 -620 0 1zm-987 -1533l1096 622 49 725 -904 -895 -241 -452zm-28 -455l345 231c0,1 1,2 2,3l724 780 -1071 -608 0 -406zm101 -421l230 609 -335 -225 105 -384zm376 -280l241 410 -596 -167 355 -243zm210 -333l53 725 -243 -414 190 -311zm-323 1228l-234 -620 608 171 -374 449zm790 873l0 -507 414 433 85 362 -451 452 -50 -735c1,-2 2,-4 2,-5zm1140 1260l-1080 -493 455 -454 625 947zm34 -847l-9 834 -615 -932 624 98zm28 19l724 686 -28 298 -705 -134 9 -850zm1167 -625l-434 1280 -721 -683 1155 -597zm982 982l-1318 289 812 -451 506 162zm-950 -988l1640 595 -761 737 139 -336c1,-3 1,-7 -1,-11 -1,-4 -4,-6 -8,-8l-562 -180c-4,-1 -8,-1 -11,1l-871 484 435 -1282zm1302 -972l889 -237 -534 1780 -1639 -595 1284 -948zm914 -222l897 546 -435 1148 -551 294 -444 -212 533 -1776zm784 -17c1,0 2,0 2,0l834 -120 70 105 -357 77c-3,0 -6,2 -8,4l-413 473 -886 -539 758 0zm-6583 688l-208 -485 204 135c1,1 2,2 4,2l0 348zm-687 66l446 -558 238 558 -684 0zm-47 -414l459 -147 -422 528 -37 -381zm-447 1l419 0 37 385 -456 -385zm8618 -484c-2,-4 -8,-7 -13,-6l-842 120 -801 0c-1,0 -2,0 -4,1l-902 240c-2,1 -4,2 -5,3l-1303 962 -1198 619 -658 -103 0 0 -2 -1 -87 -366c0,-2 -1,-5 -3,-6l-441 -462c-4,-4 -11,-5 -16,-3 -5,2 -9,7 -9,13l0 505 -749 -806 393 -472c3,-3 4,-7 3,-10l-60 -823c0,-6 -5,-11 -11,-12 -6,-2 -12,1 -15,6l-219 357 -5 4 0 0 -374 256c-3,2 -5,5 -5,8l-116 423 -224 -150c-3,-2 -8,-3 -12,-2l-499 160 -480 0c-6,0 -11,4 -13,10 -2,5 0,11 4,15l522 442c2,2 6,3 9,3l713 0 498 935c0,1 1,2 1,2l662 823c1,1 2,1 3,2l862 682c1,1 3,2 4,2l964 335 0 2 8 0 5 2 76 211 -139 698c-1,5 1,10 5,14 2,2 5,3 9,3 2,0 4,-1 5,-1l542 -241c2,-1 3,-2 5,-4l517 -577 636 0c1,0 2,0 3,0l1102 -300 540 0c2,0 4,-1 6,-2l542 -281c5,-3 8,-9 7,-15 -1,-6 -6,-11 -12,-12l-477 -53 7 -37 477 -406c1,-1 3,-2 3,-4l682 -1143c1,-2 2,-4 2,-6l116 -1141 1 0 0 -2 4 -40c0,-4 -1,-7 -3,-10l-241 -361z"/>
            <path id="1" class="fil1" d="M8516 993l375 0 0 14 -375 0 0 0 0 -14zm-5 16l-10 -9 0 0 0 -1 1 0 0 -1 0 0 1 0 0 -1 1 0 0 0 0 -1 1 0 0 0 1 0 0 -1 1 0 0 0 1 0 0 -1 1 0 0 0 1 0 0 0 1 0 0 -1 1 0 0 0 1 0 1 0 0 0 1 0 0 0 1 0 0 0 0 14 0 0 0 0 0 0 -1 0 0 0 0 0 0 0 0 0 0 0 -1 0 0 0 0 0 0 1 0 0 0 0 0 0 -1 0 0 0 0 0 0 0 0 0 0 0 -1 0 0 0 0 0 0 1 0 0 0 0 0 0 0 0 -1 0 0 0 0 0zm0 0l0 0 0 0 0 0zm-371 372l361 -381 10 9 -361 381 -11 -9 1 0zm-1 0l1 0 0 0 -1 0zm9 12l-13 -3 0 0 0 -1 0 0 0 0 0 -1 0 0 0 0 0 0 1 -1 0 0 0 0 0 -1 0 0 0 0 0 -1 0 0 1 0 0 0 0 -1 0 0 0 0 0 0 1 -1 0 0 0 0 0 0 0 -1 0 0 1 0 0 0 0 -1 0 0 0 0 11 9 0 0 0 0 0 1 0 0 0 0 0 0 0 0 0 0 0 0 -1 0 0 0 0 0 0 0 0 1 0 0 0 0 0 0 0 0 0 0 0 0 0 0 0 0 0 0 0 1 0 0 0 0 0 0 0 0 0 0 0 0 -1 0 0 0 0 0zm0 0l0 0 0 0 0 0zm-353 1215l340 -1218 13 3 -339 1218 -4 5 -10 -8zm14 3l-1 3 -3 2 4 -5zm-861 467l851 -475 6 13 -850 474 -7 1 0 -13zm7 12l-3 2 -4 -1 7 -1zm-455 -249l455 237 -7 13 -454 -238 0 0 6 -12zm-6 12l0 0 -1 0 1 0zm-8 1l-10 -10 0 0 1 -1 0 0 1 -1 1 0 0 -1 1 0 1 -1 1 0 0 0 1 0 1 -1 1 0 0 0 1 0 1 0 1 -1 1 0 0 0 1 0 1 0 1 0 1 0 0 1 1 0 1 0 1 0 0 0 1 0 1 1 1 0 0 0 1 1 -6 12 -1 0 0 0 0 0 0 0 -1 0 0 0 0 0 0 0 -1 0 0 0 0 0 0 0 -1 0 0 0 0 0 -1 0 0 0 0 0 0 0 -1 0 0 0 0 0 0 0 -1 0 0 0 0 0 0 1 -1 0 0 0 0 0 0 0 0 0 0 0zm-10 -10l0 0 1 -1 -1 1zm-929 820l929 -820 10 10 -930 821 -11 -8 2 -3zm9 11l-23 20 12 -28 11 8zm128 -309l-126 306 -13 -5 126 -306 12 -3 1 8zm-13 -5l4 -10 8 7 -12 3zm3 9l-1 -2 10 -10 1 2 0 10 -10 0zm10 0l-5 5 -5 -5 10 0zm814 -789l-814 789 -10 -11 814 -788 8 -2 2 12zm-10 -10l4 -4 4 2 -8 2zm454 228l-452 -217 6 -13 453 217 -7 13 0 0zm0 0l0 0 1 0 -1 0zm13 -13l7 12 0 0 -1 1 0 0 -1 0 -1 0 0 1 -1 0 0 0 -1 0 -1 0 0 0 -1 0 0 1 -1 0 -1 0 0 0 -1 0 0 0 -1 0 -1 0 0 0 -1 0 -1 0 0 -1 -1 0 0 0 -1 0 -1 0 0 0 -1 -1 0 0 -1 0 -1 0 7 -13 0 0 0 0 0 0 0 0 1 0 0 0 0 0 0 0 0 0 1 0 0 0 0 0 0 0 0 1 1 0 0 0 0 0 0 -1 0 0 1 0 0 0 0 0 0 0 0 0 1 0 0 0 0 0 0 0 1 0 0 0 0 0 0 0 0 0zm7 12l0 0 0 0 0 0zm561 -301l-561 301 -7 -12 562 -301 7 12 -1 0zm1 0l-1 0 1 0 0 0zm-4 -16l13 5 0 0 0 0 0 1 0 0 -1 1 0 0 0 1 0 0 0 1 -1 0 0 0 0 1 0 0 -1 1 0 0 0 0 -1 1 0 0 0 0 -1 1 0 0 0 0 -1 1 0 0 0 0 -1 1 0 0 0 0 -1 0 0 1 -1 0 0 0 0 0 -7 -12 0 0 0 0 0 0 0 0 0 -1 0 0 1 0 0 0 0 0 0 0 0 0 0 0 0 0 0 0 0 -1 1 0 0 0 0 0 0 0 0 0 0 0 0 0 0 -1 0 0 0 0 0 0 0 0 1 0 0 0 0 -1 0 0 0 0 0 0zm0 0l0 0 0 0 0 0zm454 -1156l-441 1161 -13 -5 440 -1161 2 -2 12 7zm-14 -5l1 -1 1 -1 -2 2zm429 -469l-417 476 -10 -9 416 -476 4 -2 7 11zm-11 -9l2 -2 2 0 -4 2zm370 -66l-363 78 -3 -14 363 -78 8 3 -5 11zm-3 -14l5 -1 3 4 -8 -3zm142 230l-146 -219 12 -8 146 219 1 5 -13 3zm12 -8l1 2 0 3 -1 -5zm-15 15l2 -12 14 2 -1 12 -8 6 -7 -8zm15 2l-1 6 -7 0 8 -6zm-811 2297l679 -1139 12 8 -679 1138 -1 2 -11 -9zm12 7l-1 1 0 1 1 -2zm-489 399l478 -408 10 11 -479 408 0 0 -9 -11zm9 11l0 0 0 0 0 0zm-600 370l592 -382 8 12 -592 382 -10 -2 2 -10zm-2 10l-4 -6 6 -4 -2 10zm5 8l-5 -8 12 -7 5 7 -6 11 -6 -3zm12 -8l7 11 -13 0 6 -11zm-13 -3l7 0 0 14 -7 0 0 0 0 -14zm-2 14l-4 -13 0 0 0 0 1 0 0 0 0 0 0 -1 0 0 1 0 0 0 0 0 0 0 0 0 0 0 1 0 0 0 0 0 0 0 0 0 0 0 1 0 0 0 0 0 0 0 0 0 1 0 0 0 0 0 0 0 0 0 0 0 1 0 0 0 0 0 0 14 0 0 0 0 0 0 0 0 0 0 0 0 -1 0 0 0 0 0 0 0 0 0 0 0 0 0 0 0 0 0 0 0 0 0 0 0 0 0 0 0 0 0 0 0 -1 0 0 0 0 0 0 0 0 0 0 0 0 0 0 0 0 0 0 0 0 0zm0 0l0 0 0 0 0 0zm-1105 287l1101 -300 4 13 -1101 301 -2 0 -2 -14zm4 14l-1 0 -1 0 2 0zm-636 -14l634 0 0 14 -634 0 -7 -9 7 -5zm0 14l-10 0 3 -9 7 9zm144 -417l-137 412 -14 -4 138 -412 0 -1 13 5zm-13 -4l0 -1 0 0 0 1zm120 -254l-107 259 -13 -6 106 -259 2 -2 12 8zm-14 -6l1 -1 1 -1 -2 2zm977 -844l-965 852 -10 -10 966 -853 8 -1 1 12zm-9 -11l3 -3 5 2 -8 1zm454 248l-453 -236 7 -13 453 237 0 0 -7 12zm7 -12l0 0 -1 0 1 0zm6 0l7 12 0 0 0 0 -1 1 -1 0 0 0 -1 0 -1 1 0 0 -1 0 0 0 -1 0 -1 0 0 1 -1 0 -1 0 0 0 -1 0 -1 0 0 0 -1 0 -1 0 0 0 -1 -1 -1 0 0 0 -1 0 0 0 -1 0 -1 -1 0 0 -1 0 -1 0 0 -1 7 -12 0 0 0 0 0 0 0 0 1 0 0 0 0 0 0 0 0 0 1 0 0 0 0 0 0 0 0 0 1 0 0 0 0 0 0 0 0 0 1 0 0 0 0 0 0 0 1 0 0 0 0 0 0 0 0 0 1 0 0 0 0 0 0 -1 0 1zm7 12l0 0 0 0 0 0zm863 -481l-863 481 -7 -12 863 -482 7 13 0 0zm0 0l0 0 0 0 0 0zm-4 -17l14 4 0 -1 0 1 -1 1 0 0 0 1 0 0 0 1 -1 0 0 1 0 0 0 1 -1 0 0 1 0 0 0 0 -1 1 0 0 0 1 -1 0 0 0 0 1 -1 0 0 1 -1 0 0 0 0 1 -1 0 0 0 -1 0 0 1 0 0 -1 0 0 1 -7 -13 0 0 0 0 0 0 0 0 0 0 1 0 0 -1 0 0 0 0 0 0 0 0 0 0 0 0 1 0 0 -1 0 0 0 0 0 0 0 0 0 0 0 0 0 -1 0 0 1 0 0 0 0 0 0 0 0 0 0 0 0 -1 0 0 0 0 0 0zm0 0l0 0 0 0 0 0zm354 -1216l-340 1220 -14 -4 340 -1220 2 -3 12 7zm-14 -4l1 -2 1 -1 -2 3zm367 -368l-355 375 -10 -10 354 -374 6 -3 5 12zm-11 -9l2 -3 4 0 -6 3zm371 12l-365 0 0 -15 365 0 8 8 -8 7zm0 -15l8 0 0 8 -8 -8zm-122 1141l115 -1134 15 1 -116 1135 -1 3 -13 -5zm14 2l0 1 -1 2 1 -3zm-1173 1599l-5 4 -9 -11 5 -4 12 7 -3 4zm-9 -11l15 -13 -3 20 -12 -7zm-3 9l1 -5 14 3 -1 5 -8 5 -6 -8zm14 3l-1 6 -7 -1 8 -5zm-11 -9l5 0 -2 14 -4 0 -4 -13 5 -1zm-1 14l-17 -2 13 -11 4 13zm-31 319l488 -253 6 13 -487 252 -10 -7 3 -5zm7 12l-13 7 3 -14 10 7zm59 -305l-55 300 -14 -2 55 -301 8 -6 6 9zm-14 -3l1 -6 7 0 -8 6zm438 57l-432 -48 2 -15 432 48 2 14 -4 1zm2 -15l23 3 -21 11 -2 -14zm-994 258l476 0 0 14 -476 0 -3 -13 3 -1zm0 14l-24 0 21 -13 3 13zm494 -317l-490 316 -7 -12 489 -316 9 1 -1 11zm-8 -12l5 -3 4 4 -9 -1zm13 2l-2 15 0 0 -1 0 0 -1 0 0 -1 0 0 0 -1 0 0 0 0 0 -1 0 0 0 -1 0 0 -1 0 0 -1 0 0 0 0 0 -1 0 0 -1 -1 0 0 0 0 0 -1 0 0 -1 0 0 -1 0 0 0 0 -1 -1 0 0 0 0 0 0 -1 -1 0 10 -10 0 0 0 0 0 0 0 0 1 0 0 0 0 0 0 0 0 0 0 1 0 0 0 0 0 0 1 0 0 0 0 0 0 0 0 0 0 0 0 0 0 0 0 0 1 0 0 0 0 0 0 0 0 0 0 0 0 0 0 0 0 0 1 0 0 0zm-2 15l0 0 0 0 0 0zm35 3l-35 -3 2 -15 34 4 7 9 -8 5zm1 -14l8 1 -1 8 -7 -9zm-64 315l57 -309 14 3 -57 308 -7 6 -7 -8zm14 2l-1 6 -6 0 7 -6zm-3152 -815l872 1085 -11 9 -872 -1085 4 -11 7 2zm-11 9l-7 -9 11 -2 -4 11zm1422 -307l-1415 310 -3 -14 1415 -310 8 9 -5 5zm-3 -14l14 -3 -6 12 -8 -9zm-416 1002l411 -998 13 5 -410 998 0 0 -14 -5zm14 5l0 0 0 0 0 0zm-1 1l-13 -5 0 0 0 0 0 0 0 0 0 0 0 0 0 0 0 0 0 0 0 0 0 0 0 -1 0 0 0 0 0 1 0 0 0 -1 0 0 0 0 0 1 0 -1 0 0 0 0 0 0 0 0 0 0 0 0 0 0 0 0 0 0 0 0 1 0 -1 0 14 5 -1 1 1 -1 0 0 0 0 -1 1 0 0 1 -1 0 0 -1 1 0 0 0 0 1 -1 0 0 -1 1 0 0 0 0 1 -1 0 0 -1 1 0 0 0 0 1 -1 0 0 -1 1 0 0 0 0 0 0 0 0 0 0 0 0 0 0 0 0 0 0zm-13 -5l0 0 0 0 0 0zm-132 397l132 -397 13 5 -132 396 -12 2 -1 -6zm13 4l-4 13 -8 -11 12 -2zm-1038 829l514 -228 6 13 -514 228 -10 -8 4 -5zm6 13l-13 6 3 -14 10 8zm139 -679l-135 674 -14 -3 135 -674 6 -6 8 9zm-14 -3l1 -5 5 -1 -6 6zm892 -109l-884 117 -2 -14 884 -118 6 12 -4 3zm-2 -15l19 -2 -13 14 -6 -12zm-510 566l506 -563 10 9 -505 564 -2 2 -9 -12zm11 10l-1 1 -1 1 2 -2zm-479 -688l14 1 -3 -7 0 0 0 0 1 1 0 0 1 0 0 0 0 1 1 0 0 0 1 1 0 0 0 0 1 1 0 0 0 0 1 1 0 0 0 0 1 1 0 0 0 1 1 0 0 1 0 0 0 0 1 1 0 0 0 1 0 0 1 1 0 0 0 1 -14 4 0 0 0 0 0 0 0 0 0 0 0 0 0 -1 0 0 0 0 0 0 0 0 0 0 -1 0 0 0 0 -1 0 0 0 0 0 0 0 0 0 0 0 0 -1 0 0 0 0 -1 0 0 0 0 0 0 0 0 -1 0 0 0 0 0 0 0 -4 -7zm4 7l-4 -3 0 -4 4 7zm105 -990l-95 984 -14 -1 95 -985 12 -3 2 5zm-14 -2l1 -17 11 14 -12 3zm866 1082l-865 -1076 11 -9 865 1076 -4 12 -7 -3zm11 -9l8 10 -12 2 4 -12zm-884 114l878 -117 2 15 -878 117 -8 -7 6 -8zm-6 8l-1 -7 7 -1 -6 8zm1 8l-1 -8 14 -1 1 7 -13 4 -1 -2zm-62 -212l76 209 -13 5 -77 -209 0 -1 14 -4zm-14 5l0 -1 1 1 -1 0zm-980 -358l955 331 -5 13 -954 -331 -3 -1 7 -12zm-4 13l-2 0 -1 -1 3 1zm-853 -692l859 680 -9 11 -859 -680 -1 -1 10 -10zm-9 11l-1 0 0 -1 1 1zm-102 -149l112 139 -11 9 -112 -139 9 -11 2 2zm-11 9l-22 -27 31 16 -9 11zm1151 595l-1149 -593 7 -13 1148 593 0 0 -6 13zm9 -12l-2 14 0 0 0 0 0 0 0 0 -1 0 0 0 0 0 0 0 -1 0 0 0 0 0 0 0 -1 0 0 0 0 0 0 0 -1 0 0 0 0 0 0 -1 -1 0 0 0 0 0 0 0 -1 0 0 0 0 0 0 0 0 0 -1 -1 0 0 0 0 0 0 6 -13 0 1 0 0 1 0 0 0 0 0 0 0 0 0 0 0 0 0 0 0 0 0 0 0 0 0 0 0 0 0 0 0 1 0 0 0 0 0 0 0 0 0 0 0 0 0 0 0 0 0 0 0 0 0 0 0 1 0 0 0 0 0 0 0 0 0zm0 0l0 0 -2 0 2 0zm816 97l-818 -83 2 -14 818 82 6 8 -8 7zm2 -15l7 1 -1 7 -6 -8zm-53 480l45 -473 14 1 -45 473 -10 6 -4 -7zm14 1l-1 9 -9 -3 10 -6zm-2476 -1836l506 628 -12 9 -505 -628 -1 -1 12 -8zm-11 9l-1 0 0 -1 1 1zm-184 -376l196 368 -13 7 -196 -368 12 -9 1 2zm854 866l-865 -857 10 -11 865 858 -10 10 0 0zm0 0l0 0 1 1 -1 -1zm13 -9l-6 13 0 0 -1 0 0 0 0 0 0 0 0 0 -1 0 0 0 0 -1 0 0 0 0 -1 0 0 0 0 0 0 0 0 0 -1 -1 0 0 0 0 0 0 0 0 -1 0 0 0 0 -1 0 0 0 0 -1 0 0 0 0 0 0 0 0 -1 0 0 -1 0 10 -10 1 0 0 0 0 0 0 0 0 0 0 0 0 0 0 0 0 0 0 0 0 1 0 0 0 0 0 0 0 0 0 0 0 0 1 0 0 0 0 0 0 0 0 0 0 0 0 0 0 0 0 0 0 0 0 0 0 0 0 0 1 0 0 0 0 0zm1137 535l-1143 -522 6 -13 1143 522 -6 13 0 0zm0 0l0 0 0 0 0 0zm8 -13l-3 14 0 0 0 0 0 0 -1 0 0 0 0 0 0 0 0 0 0 0 0 0 -1 0 0 0 0 0 0 0 0 0 0 0 -1 0 0 0 0 0 0 0 0 0 0 -1 -1 0 0 0 0 0 0 0 0 0 0 0 0 0 -1 0 0 0 0 0 0 0 6 -13 0 0 0 0 0 0 0 0 0 0 0 0 0 0 0 0 0 0 0 0 1 0 0 0 -1 0 1 0 0 0 0 0 0 0 0 0 0 0 0 0 0 0 0 0 0 0 0 0 0 0 0 0 0 0 0 0 0 0 0 0 0 0 0 0 1 0zm-1 0l1 0 -1 0 0 0zm717 152l-719 -138 3 -14 718 138 6 7 -8 7zm2 -14l7 1 -1 6 -6 -7zm-25 183l17 -177 14 1 -17 178 -8 6 -6 -8zm14 2l-1 7 -7 -1 8 -6zm-822 -90l816 82 -2 14 -815 -82 -3 0 4 -14zm-1 14l-1 0 -2 0 3 0zm-1197 -634l1201 621 -7 13 -1201 -621 -3 -9 10 -4zm-10 4l3 -7 7 3 -10 4zm0 1l0 -1 13 6 -1 1 -12 1 0 -7zm12 6l-5 10 -7 -9 12 -1zm100 -908l-1096 -622 7 -12 1096 621 3 6 -10 7zm7 -13l3 2 0 4 -3 -6zm38 733l-49 -726 14 -1 49 726 -12 5 -2 -4zm14 -1l1 19 -13 -14 12 -5zm-906 -900l904 895 -10 10 -904 -895 -2 -2 12 -8zm-10 10l-1 -1 -1 -1 2 2zm-229 -460l240 451 -13 7 -240 -452 10 -9 3 3zm-13 6l-12 -21 22 12 -10 9zm319 -221l-345 -231 8 -12 345 231 2 3 -10 9zm8 -12l1 1 1 2 -2 -3zm3 4l-11 10 0 0 0 0 0 -1 0 0 0 0 0 0 0 0 -1 -1 0 0 0 0 0 0 0 0 0 0 0 0 0 -1 -1 0 0 0 0 0 0 0 0 0 0 -1 0 0 0 0 0 0 0 0 0 0 0 0 0 -1 -1 0 0 0 0 0 0 0 0 0 13 -6 0 0 0 0 0 0 0 0 0 0 0 0 0 0 0 0 0 0 0 0 1 0 0 1 0 0 0 0 0 0 0 0 0 0 0 0 0 0 0 0 0 0 0 0 0 0 0 0 0 0 0 0 0 0 0 0 0 0 0 0 0 0 0 0 0 0zm-11 10l0 0 0 0 0 0zm724 779l-724 -779 11 -10 724 780 -9 11 -2 -2zm-1061 -618l1070 607 -7 13 -1070 -607 -4 -7 11 -6zm-7 13l-4 -2 0 -5 4 7zm10 -413l0 406 -14 0 0 -406 11 -6 3 6zm-14 0l0 -13 11 7 -11 6zm332 190l-231 -609 14 -5 230 609 -11 9 -2 -4zm13 -5l8 21 -19 -12 11 -9zm-338 -228l335 225 -8 12 -335 -225 -3 -8 11 -4zm-8 12l-4 -3 1 -5 3 8zm116 -389l-105 385 -14 -4 105 -384 14 -1 0 4zm-14 -3l6 -21 8 20 -14 1zm618 136l-241 -410 12 -8 241 411 -8 10 -4 -3zm12 -7l9 15 -17 -5 8 -10zm-600 -171l596 168 -4 13 -596 -167 -2 -13 6 -1zm-4 14l-15 -4 13 -9 2 13zm361 -244l-355 243 -8 -12 355 -243 10 2 -2 10zm-8 -12l6 -4 4 6 -10 -2zm260 399l-53 -726 14 -1 53 725 -13 5 -1 -3zm14 -2l3 31 -16 -26 13 -5zm-244 -417l243 414 -12 8 -243 -414 0 -8 12 0zm-12 8l-2 -4 2 -4 0 8zm202 -312l-190 312 -12 -8 190 -311 13 3 -1 4zm-12 -7l12 -19 1 22 -13 -3zm-545 609l235 620 -14 5 -234 -620 9 -9 4 4zm-13 5l-5 -13 14 4 -9 9zm613 176l-608 -172 4 -13 608 171 4 11 -8 3zm4 -14l11 3 -7 8 -4 -11zm-381 451l374 -449 11 9 -374 449 -13 -2 2 -7zm11 9l-8 10 -5 -12 13 2zm791 362l0 507 -15 0 0 -507 13 -4 2 4zm-15 0l0 -17 13 13 -13 4zm417 438l-415 -433 11 -9 414 432 2 4 -12 6zm10 -10l1 2 1 2 -2 -4zm73 369l-85 -362 14 -3 85 362 -2 6 -12 -3zm14 -3l1 4 -3 2 2 -6zm-463 448l451 -452 10 10 -451 452 -13 -5 3 -5zm10 10l-11 11 -2 -16 13 5zm-47 -741l49 735 -15 1 -49 -735 1 -3 14 2zm-15 1l0 -1 1 -2 -1 3zm1 -5l15 0 0 0 0 0 0 0 0 0 0 1 0 0 0 0 0 1 0 0 0 0 0 0 0 1 -1 0 0 0 0 0 0 1 0 0 0 0 0 0 0 1 0 0 0 0 0 0 0 1 0 0 0 0 0 0 -1 0 0 1 0 0 0 0 0 0 0 1 -13 -6 0 0 0 0 0 0 0 0 0 0 0 0 0 -1 0 0 0 0 0 0 0 0 0 0 0 0 0 0 0 0 0 0 0 0 0 0 0 -1 0 0 0 0 0 0 0 0 0 0 0 0 0 0 0 0 0 0 0 0 0 0 0 0 0 0 0 0zm71 761l1080 492 -6 13 -1080 -492 -2 -12 8 -1zm-6 13l-9 -4 7 -8 2 12zm463 -456l-455 455 -10 -11 455 -454 11 1 -1 9zm-10 -10l6 -6 5 7 -11 -1zm624 956l-625 -947 12 -8 625 947 -9 10 -3 -2zm12 -8l13 21 -22 -11 9 -10zm12 -9l9 -834 14 0 -9 834 -13 4 -1 -4zm14 0l0 23 -13 -19 13 -4zm-616 -936l615 932 -12 8 -615 -932 7 -11 5 3zm-12 8l-9 -14 16 3 -7 11zm629 101l-624 -98 2 -14 624 98 6 7 -8 7zm2 -14l6 1 0 6 -6 -7zm746 718l-724 -687 10 -10 724 686 2 6 -12 5zm10 -11l3 3 -1 3 -2 -6zm-40 303l28 -298 14 1 -28 298 -9 6 -5 -7zm14 1l-1 8 -8 -2 9 -6zm-710 -142l704 134 -3 14 -704 -134 -6 -7 9 -7zm-3 14l-6 -1 0 -6 6 7zm17 -857l-9 850 -14 0 9 -850 12 -5 2 5zm-14 0l0 -16 12 11 -12 5zm733 653l435 -1280 13 4 -434 1281 -12 2 -2 -7zm14 5l-4 10 -8 -8 12 -2zm-723 -691l721 683 -10 10 -721 -683 2 -11 8 1zm-10 10l-7 -7 9 -4 -2 11zm1164 -596l-1156 597 -6 -12 1155 -597 10 8 -3 4zm-7 -12l16 -9 -6 17 -10 -8zm-335 1270l1318 -289 3 14 -1318 289 -5 -13 2 -1zm818 -438l-813 451 -7 -12 813 -451 5 -1 2 13zm-7 -12l2 -2 3 1 -5 1zm507 175l-506 -162 4 -14 506 163 -1 13 -3 0zm4 -13l25 8 -26 5 1 -13zm686 -380l-1640 -595 5 -13 1640 595 2 12 -7 1zm5 -13l10 4 -8 8 -2 -12zm-769 738l761 -737 10 11 -761 737 -11 -8 1 -3zm10 11l-24 23 13 -31 11 8zm140 -339l-138 336 -13 -5 138 -336 13 5 0 0zm0 0l0 0 0 0 0 0zm-13 -11l13 -6 0 0 0 0 0 1 0 0 1 1 0 1 0 0 0 1 0 0 0 1 0 0 1 1 0 0 0 1 0 0 0 1 0 0 0 1 0 1 0 0 0 1 0 0 0 1 -1 0 0 1 0 0 0 1 0 0 0 1 0 1 0 0 -1 1 0 0 -13 -5 0 -1 0 0 0 0 0 0 0 0 0 0 0 -1 0 0 0 0 0 0 0 0 0 0 0 -1 0 0 0 0 0 0 0 0 0 -1 0 0 0 0 0 0 0 0 0 0 0 -1 0 0 0 0 0 0 0 0 0 -1 0 0 0 0 0 0 0 0zm13 -6l0 0 -1 -1 1 1zm-17 2l4 -13 0 0 0 0 1 0 0 0 1 0 1 1 0 0 0 0 1 0 0 1 1 0 0 0 1 1 0 0 1 0 0 1 1 0 0 0 0 1 1 0 0 0 0 1 1 0 0 1 0 0 1 1 0 0 0 1 1 0 0 0 0 1 1 0 0 1 -13 6 0 0 0 0 0 -1 -1 0 0 0 0 0 0 0 0 0 0 0 0 -1 0 0 0 0 -1 0 0 0 0 0 0 0 0 0 0 -1 0 0 0 0 -1 0 0 0 0 0 0 0 0 0 0 0 -1 0 0 -1 0 0 0 0 0 0 0 0 0 0zm0 0l0 0 0 0 0 0zm-558 -194l562 181 -4 13 -562 -180 0 0 4 -14zm-10 14l-7 -12 0 0 1 0 0 -1 1 0 0 0 1 0 0 -1 1 0 0 0 1 0 0 0 1 0 1 -1 0 0 1 0 0 0 1 0 0 0 1 0 0 0 1 0 0 0 1 0 0 0 1 0 1 0 0 0 1 0 0 1 1 0 0 0 1 0 0 0 -4 14 0 0 0 0 -1 0 0 -1 0 0 0 0 0 0 0 0 -1 0 0 0 0 0 0 0 0 0 -1 0 0 0 0 0 0 0 0 0 0 0 -1 0 0 1 0 0 0 0 0 0 -1 0 0 0 0 0 0 0 0 0 0 0 0 0 -1 0 0 0zm0 0l0 0 0 0 0 0zm-877 471l870 -483 7 12 -870 484 -10 -9 3 -4zm7 13l-16 9 6 -18 10 9zm438 -1285l-435 1281 -13 -5 435 -1281 9 -4 4 9zm-13 -5l2 -7 7 3 -9 4zm2199 -1200l-890 237 -3 -14 889 -237 9 9 -5 5zm-4 -14l13 -3 -4 12 -9 -9zm-539 1785l534 -1780 14 4 -534 1780 -9 5 -5 -9zm14 4l-2 8 -7 -3 9 -5zm-1644 -603l1639 595 -4 13 -1640 -595 -2 -12 7 -1zm-5 13l-12 -4 10 -8 2 12zm1291 -949l-1284 948 -9 -11 1284 -949 3 -1 6 13zm-9 -12l1 0 2 -1 -3 1zm1812 336l-897 -546 8 -12 897 546 3 9 -11 3zm8 -12l5 3 -2 6 -3 -9zm-446 1151l435 -1147 14 5 -435 1147 -4 4 -10 -9zm14 5l-1 3 -3 1 4 -4zm-561 286l550 -295 7 13 -550 295 -7 0 0 -13zm7 13l-3 1 -4 -1 7 0zm-444 -225l443 212 -6 13 -444 -212 -3 -9 10 -4zm-7 13l-5 -3 2 -6 3 9zm543 -1781l-533 1776 -13 -4 532 -1776 11 -4 3 8zm-14 -4l3 -9 8 5 -11 4zm792 -23l2 15 0 0 0 0 0 0 0 0 0 0 0 0 0 0 0 0 -1 0 0 0 0 0 0 0 0 0 0 0 0 0 0 0 0 0 0 0 0 0 0 0 -1 0 0 0 0 0 0 0 0 0 0 0 0 0 0 0 0 0 -1 0 0 0 0 0 0 0 0 -14 0 0 0 0 0 0 0 0 0 0 1 0 0 0 0 0 0 0 0 0 0 0 0 0 0 0 0 0 0 0 0 0 0 0 0 0 0 0 0 0 0 0 0 0 0 0 0 0 0 0 0 0 0 0 0 -1 0 1 0 -1 0 0 0 0 0 0zm2 15l0 0 0 0 0 0zm834 -119l-834 119 -2 -15 834 -119 7 3 -5 12zm-2 -15l4 0 3 3 -7 -3zm65 116l-70 -105 12 -8 70 105 -5 11 -7 -3zm12 -8l5 9 -10 2 5 -11zm-365 74l357 -77 3 14 -357 77 0 0 -3 -14zm3 14l0 0 0 0 0 0zm-4 2l-10 -9 0 0 0 -1 0 0 1 0 0 -1 0 0 1 0 0 0 0 -1 0 0 1 0 0 -1 1 0 0 0 0 0 1 0 0 -1 0 0 1 0 0 0 1 -1 0 0 0 0 1 0 0 0 1 0 0 -1 0 0 1 0 0 0 1 0 0 0 1 0 2 14 0 0 0 0 0 0 0 0 0 0 -1 0 0 0 0 0 0 0 0 0 0 0 0 0 0 0 -1 1 0 0 0 0 0 0 0 0 0 0 0 0 0 0 -1 0 0 0 0 0 0 0 0 0 0 1 0 0 0 0 0 0 0 0 -1 0 0 0zm-10 -9l0 0 0 0 0 0zm-414 472l414 -472 10 9 -413 472 -9 2 -2 -11zm11 9l-4 5 -5 -3 9 -2zm-887 -549l886 539 -8 12 -885 -539 3 -13 4 1zm-7 12l-22 -13 25 0 -3 13zm761 1l-758 0 0 -14 758 0 0 0 0 14zm-6784 193l207 485 -13 6 -207 -486 10 -8 3 3zm-13 5l-10 -22 20 14 -10 8zm206 139l-204 -136 8 -11 204 135 0 0 -8 12zm15 -4l-14 0 5 7 -1 0 0 0 0 0 0 0 0 0 0 -1 -1 0 0 0 0 0 0 0 0 0 0 0 -1 0 0 0 0 0 0 0 0 0 0 0 -1 0 0 -1 0 0 0 0 0 0 -1 0 0 0 0 0 0 0 0 0 0 0 -1 -1 0 0 0 0 8 -12 0 0 0 0 0 0 0 0 0 1 0 0 0 -1 0 1 0 0 0 0 1 0 -1 0 1 0 0 0 0 0 0 0 0 0 0 0 0 0 0 0 0 0 0 0 0 0 0 0 0 0 0 0 0 0 0 0 1 0 0 0 0 0 0 0 5 7zm-5 -7l5 2 0 5 -5 -7zm-9 355l0 -348 14 0 0 348 -14 3 0 -3zm14 0l0 35 -14 -32 14 -3zm-243 -487l-445 557 -11 -9 445 -557 12 2 -1 7zm-11 -9l8 -9 4 11 -12 -2zm237 564l-238 -557 13 -5 238 557 -6 10 -7 -5zm13 -5l5 10 -11 0 6 -10zm-690 -5l684 0 0 15 -684 0 -5 -12 5 -3zm0 15l-14 0 9 -12 5 12zm414 -561l-458 147 -5 -14 459 -147 8 12 -4 2zm-4 -14l22 -7 -14 19 -8 -12zm-426 531l422 -528 12 9 -423 528 -12 -4 1 -5zm11 9l-11 14 -1 -18 12 4zm-35 -387l37 382 -14 1 -37 -381 5 -8 9 6zm-14 2l0 -6 5 -2 -5 8zm-21 7l-419 0 0 -14 419 0 7 6 -7 8zm0 -14l6 0 1 6 -7 -6zm29 393l-36 -386 14 -1 37 385 -12 6 -3 -4zm15 -2l1 18 -13 -12 12 -6zm-458 -390l455 386 -9 10 -455 -385 4 -12 5 1zm-9 11l-15 -12 19 0 -4 12zm8610 -488l-2 -14 0 0 0 0 1 0 1 0 1 0 0 0 1 0 1 0 1 0 0 0 1 0 1 0 1 1 0 0 1 0 1 0 0 1 1 0 1 0 0 1 1 0 1 0 0 1 1 0 0 1 1 0 1 1 0 0 1 1 0 0 1 1 0 1 0 0 -12 8 0 0 0 0 0 0 0 -1 0 0 0 0 -1 0 0 0 0 0 0 -1 0 0 -1 0 0 0 0 0 0 0 0 0 -1 0 0 -1 0 0 0 0 -1 0 0 0 0 0 0 0 -1 0 0 0 0 0 0 0 -1 0 0 0 0 0 0 0 0 0zm0 0l0 0 0 0 0 0zm-844 106l842 -120 2 14 -842 120 -1 0 -1 -14zm2 14l0 0 -1 0 1 0zm-802 -14l801 0 0 14 -801 0 0 0 0 -14zm-2 15l-4 -14 1 0 0 0 0 0 0 0 0 0 0 0 1 0 0 0 0 -1 0 0 0 0 0 0 0 0 1 0 0 0 0 0 0 0 0 0 0 0 1 0 0 0 0 0 0 0 0 0 1 0 0 0 0 0 0 0 0 0 0 0 1 0 0 0 0 0 0 14 0 0 0 0 0 0 0 0 0 0 0 0 0 0 0 0 0 0 -1 0 0 0 0 0 0 0 0 0 0 0 0 0 0 0 0 0 0 0 0 0 0 0 0 1 -1 0 0 0 0 0 0 0 0 0 0 0 0 0 0 0 0 0 -1 0 1 0zm-4 -14l1 0 0 0 -1 0zm-902 241l902 -241 4 14 -903 240 0 0 -3 -13zm3 13l0 0 0 0 0 0zm-2 1l-8 -11 0 0 0 0 0 0 0 0 0 -1 1 0 0 0 0 0 0 0 0 0 1 0 0 0 0 -1 0 0 1 0 0 0 0 0 0 0 0 0 1 0 0 -1 0 0 0 0 1 0 0 0 0 0 0 0 1 0 0 0 0 0 0 0 1 0 0 0 3 13 0 0 0 0 0 0 0 0 0 0 0 0 0 1 0 0 0 0 0 0 0 0 -1 0 0 0 0 0 0 0 0 0 0 0 0 0 0 0 0 0 0 0 0 0 0 0 0 0 0 0 -1 0 0 0 0 0 0 0 0 0 0 0 0 0 0 0zm-8 -11l0 0 -1 0 1 0zm-1303 962l1303 -962 8 11 -1303 963 -1 0 -7 -12zm8 12l0 0 -1 0 1 0zm-1206 607l1199 -619 6 12 -1198 619 -5 1 -2 -13zm7 12l-2 1 -3 0 5 -1zm-660 -116l658 103 -3 14 -657 -103 -5 -3 7 -11zm-2 14l-3 -1 -2 -2 5 3zm7 -11l0 0 -12 8 0 0 7 -11 5 3zm-5 -3l3 0 2 3 -5 -3zm-3 -1l3 1 -2 14 -2 0 -6 -6 7 -9zm-1 15l-5 -1 -1 -5 6 6zm-79 -375l87 366 -14 3 -86 -366 13 -3 0 0zm0 0l0 0 0 -2 0 2zm-15 0l10 -10 0 0 0 0 1 0 0 0 0 1 0 0 1 0 0 1 0 0 0 0 0 0 1 1 0 0 0 0 0 1 0 0 0 0 1 1 0 0 0 0 0 0 0 1 0 0 0 0 1 1 0 0 0 0 0 1 0 0 0 0 0 1 0 0 0 1 -13 3 0 0 -1 0 0 -1 0 0 0 0 0 0 0 0 0 0 0 0 0 0 0 -1 0 0 0 0 0 0 0 0 0 0 0 0 0 0 0 0 0 0 0 0 0 -1 -1 0 0 0 0 0 0 0 0 0 0 0 0 0 0 0 0 0 0 0 0 0zm-431 -472l441 462 -10 10 -442 -462 11 -10 0 0zm0 0l0 0 -2 -1 2 1zm-18 8l-6 -13 0 0 1 0 1 0 1 -1 0 0 1 0 1 0 1 0 1 0 0 0 1 0 1 0 1 0 1 0 0 0 1 0 1 0 1 0 0 1 1 0 1 0 1 0 0 1 1 0 1 0 0 1 1 0 1 1 0 0 1 1 1 0 0 1 1 0 -11 10 0 0 0 0 0 0 0 -1 -1 0 0 0 0 0 0 0 0 0 -1 0 0 0 0 -1 0 0 -1 0 0 0 0 0 0 0 -1 0 0 0 0 0 0 0 -1 0 0 0 0 0 0 0 -1 0 0 0 0 0 -1 0 0 0 0 0 0 0 0 0zm0 0l0 0 -1 1 1 -1zm-5 7l-14 0 0 0 0 -1 0 -1 0 0 0 -1 0 -1 1 -1 0 -1 0 0 0 -1 0 -1 1 -1 0 0 0 -1 1 -1 0 0 1 -1 0 -1 1 0 0 -1 1 0 0 -1 1 0 0 -1 1 -1 1 0 0 0 1 -1 1 0 0 -1 1 0 1 0 0 -1 6 13 -1 1 0 0 0 0 0 0 0 0 -1 0 0 0 0 1 0 0 0 0 -1 0 0 0 0 0 0 1 0 0 -1 0 0 0 0 1 0 0 0 0 0 0 0 0 0 1 0 0 0 0 -1 0 0 1 0 0 0 0 0 0 0 1 0 0 0 0zm-14 505l0 -505 14 0 0 505 -12 5 -2 -5zm14 0l0 19 -12 -14 12 -5zm-751 -811l749 807 -10 9 -749 -806 0 -10 10 0zm-10 10l-5 -5 5 -5 0 10zm404 -473l-394 472 -10 -9 393 -472 11 9 0 0zm0 0l0 0 0 1 0 -1zm-10 -14l15 -1 0 0 0 1 0 0 0 1 0 0 0 1 0 0 0 1 -1 0 0 1 0 0 0 1 0 0 0 1 0 0 0 1 0 0 -1 1 0 0 0 1 0 0 0 1 -1 0 0 1 0 0 0 0 -1 1 0 0 0 1 0 0 -1 1 0 0 0 0 -11 -9 0 0 0 0 0 0 0 0 0 0 0 -1 0 0 0 0 1 0 0 0 0 0 0 0 0 -1 0 0 0 0 0 0 0 0 0 0 0 -1 0 0 0 0 0 0 0 0 0 0 0 -1 0 0 0 0 0 0 0 0 0 0 0 -1 0 0 0 0zm15 -1l0 0 0 0 0 0zm-61 -822l61 822 -15 1 -60 -822 0 0 14 -1zm-14 1l0 0 0 0 0 0zm-5 -7l3 -13 0 0 1 0 1 0 1 0 0 1 1 0 1 0 1 1 0 0 1 1 1 0 0 1 1 0 1 1 0 0 1 1 0 1 1 0 0 1 1 0 0 1 1 1 0 1 0 0 1 1 0 1 0 1 1 1 0 0 0 1 0 1 0 1 0 1 -14 1 0 0 0 -1 0 0 0 0 0 -1 0 0 0 0 0 0 0 -1 -1 0 0 0 0 0 0 -1 0 0 0 0 -1 0 0 0 0 -1 0 0 0 0 -1 0 0 0 0 -1 0 0 0 0 -1 0 0 0 0 0 0 0 -1 0 0 0 0 -1 0 0zm0 0l0 0 0 1 0 -1zm-8 4l-12 -8 0 0 0 -1 1 0 0 -1 1 -1 0 0 1 -1 1 0 0 -1 1 0 1 -1 0 0 1 -1 1 0 0 -1 1 0 1 0 1 -1 0 0 1 0 1 0 1 -1 1 0 0 0 1 0 1 0 1 0 1 0 1 0 1 0 0 0 1 0 1 1 -3 13 -1 0 0 0 0 0 0 0 -1 0 0 0 0 0 -1 0 0 0 0 0 0 0 -1 0 0 1 0 0 0 0 -1 0 0 0 0 0 0 0 -1 0 0 0 0 1 0 0 -1 0 0 0 0 0 0 1 0 0 0 0 -1 0 0 0 0 1 0 0zm-231 350l219 -358 12 8 -218 357 -3 3 -10 -10zm13 7l-1 2 -2 1 3 -3zm-16 -6l6 -4 7 13 -5 3 -10 -3 2 -9zm-2 9l-4 -6 6 -3 -2 9zm0 1l0 -1 12 -7 1 1 -3 9 -10 -2zm13 -7l3 6 -6 3 3 -9zm-385 254l374 -256 8 11 -374 256 0 0 -8 -11zm8 11l0 0 1 0 -1 0zm-3 4l-13 -3 0 0 0 -1 0 0 0 -1 0 0 0 -1 1 0 0 -1 0 0 0 0 0 -1 1 0 0 -1 0 0 0 0 1 -1 0 0 0 -1 0 0 1 0 0 -1 0 0 1 0 0 -1 0 0 1 0 0 -1 0 0 1 0 0 -1 0 0 1 0 0 0 8 11 0 0 0 1 0 0 0 0 0 0 0 0 -1 0 0 0 0 0 0 0 0 0 0 1 0 0 0 0 0 0 0 0 -1 0 0 0 0 0 0 1 0 0 0 0 0 0 0 0 0 0 0 0 0 1 0 0 0 0 0 0 0 0 -1 0 0 0zm0 0l0 0 0 2 0 -2zm-128 419l115 -422 13 3 -115 423 -11 4 -2 -8zm13 4l-2 9 -9 -5 11 -4zm-227 -158l224 150 -8 12 -224 -150 8 -12 0 0zm0 0l0 0 0 0 0 0zm-14 11l-4 -13 0 0 0 -1 1 0 0 0 1 0 1 0 0 0 1 0 0 0 1 0 1 0 0 0 1 0 0 0 1 0 1 0 0 0 1 0 0 0 1 0 1 0 0 0 1 1 0 0 1 0 0 0 1 0 0 1 1 0 1 0 0 1 1 0 0 0 -8 12 0 0 0 0 0 0 0 0 -1 0 0 0 0 -1 0 0 0 0 -1 0 0 0 0 0 0 0 0 0 -1 0 0 0 0 0 0 0 0 0 -1 0 0 0 0 0 0 0 0 0 -1 0 0 0 0 0 0 0 0 0 0 0 -1 0 0 0 0 0zm0 0l0 0 -1 1 1 -1zm-504 146l500 -159 4 13 -499 160 -2 0 -3 -14zm5 14l-1 0 -1 0 2 0zm-482 -14l480 0 0 14 -480 0 0 0 0 -14zm-6 19l-14 -5 0 0 1 -1 0 0 0 -1 1 -1 0 -1 1 0 0 -1 0 -1 1 0 1 -1 0 0 1 -1 0 -1 1 0 0 -1 1 0 1 0 0 -1 1 0 1 -1 1 0 0 0 1 -1 1 0 1 0 0 0 1 -1 1 0 1 0 1 0 1 0 0 0 0 14 0 0 0 0 0 0 -1 0 0 1 0 0 -1 0 0 0 0 0 0 0 -1 0 0 0 0 0 0 0 0 1 -1 0 0 0 0 0 0 0 -1 0 0 1 0 0 0 0 0 0 0 0 -1 1 0 0 0 0 0 0 0 1 0 0 0 0 0 0zm0 0l0 0 0 -1 0 1zm2 8l-9 11 0 0 -1 -1 -1 0 0 -1 -1 -1 0 0 -1 -1 0 -1 -1 0 0 -1 -1 -1 0 0 0 -1 -1 -1 0 -1 0 0 0 -1 0 -1 -1 -1 0 0 0 -1 0 -1 0 -1 0 -1 0 0 0 -1 0 -1 0 -1 0 -1 1 -1 0 0 0 -1 0 -1 14 5 0 0 0 1 -1 0 0 0 0 0 0 1 0 0 0 0 0 0 0 1 0 0 0 0 0 0 0 1 0 0 1 0 0 1 0 0 0 0 0 0 0 1 0 0 0 0 0 0 1 0 0 1 0 0 0 0 0 0 0 0 1 1 0 0 0 0zm512 452l-521 -441 9 -11 521 441 0 0 -9 11zm9 -11l0 0 1 1 -1 -1zm5 2l0 14 0 0 -1 0 0 0 -1 0 0 0 0 0 -1 0 0 0 -1 0 0 0 -1 0 0 -1 -1 0 0 0 -1 0 0 0 0 0 -1 0 0 -1 -1 0 0 0 -1 0 0 0 0 -1 -1 0 0 0 -1 0 0 -1 0 0 -1 0 0 0 -1 -1 0 0 9 -11 0 0 1 0 0 0 0 1 0 0 0 0 0 0 0 0 0 0 1 0 0 0 0 0 0 0 0 0 0 0 0 0 1 0 0 0 0 1 0 0 0 0 0 0 0 0 1 0 0 0 0 0 0 0 0 0 0 0 1 0 0 0 0 0 0 0zm713 14l-713 0 0 -14 713 0 7 4 -7 10zm0 -14l5 0 2 4 -7 -4zm492 946l-498 -936 13 -6 497 935 -12 7 0 0zm0 0l0 0 0 0 0 0zm13 -6l-11 9 0 0 0 0 0 0 0 0 -1 -1 0 0 0 0 0 0 0 0 0 0 0 0 0 0 0 0 0 0 0 0 0 -1 0 0 0 0 0 0 -1 0 0 0 0 0 0 0 0 0 0 0 0 -1 0 0 0 0 0 0 0 0 0 0 0 0 0 0 12 -7 0 0 0 0 0 0 0 0 0 0 0 0 0 0 0 0 0 0 0 0 0 0 0 0 0 0 1 0 0 0 0 1 0 -1 0 0 0 1 0 0 0 0 0 0 0 0 0 0 0 0 0 0 0 0 0 0 0 0 0 0 0 0 0 0 0 0zm0 0l0 0 0 0 0 0zm651 831l-662 -822 11 -9 662 822 0 1 -11 8zm11 -9l0 0 0 1 0 -1zm1 1l-9 12 0 0 0 0 0 0 0 -1 0 0 0 0 0 0 -1 0 0 0 0 0 0 0 0 0 0 0 0 -1 0 0 0 0 -1 0 0 0 0 0 0 0 0 0 0 0 0 0 0 -1 0 0 -1 0 0 0 0 0 0 0 0 0 0 -1 0 0 0 0 11 -8 0 0 0 0 0 0 0 0 0 0 0 0 0 0 0 0 0 0 0 0 0 0 0 0 0 0 0 0 0 0 0 0 0 0 0 0 0 0 1 0 0 0 0 0 0 0 0 0 0 0 0 0 0 0 0 0 0 0 0 0 0 0 0 0 0 0zm854 694l-863 -682 9 -12 863 682 -9 12 0 0zm0 0l0 0 0 0 0 0zm11 -10l-5 13 0 0 0 0 0 0 -1 0 0 0 0 0 0 0 0 0 -1 -1 0 0 0 0 0 0 0 0 -1 0 0 0 0 0 0 0 -1 0 0 -1 0 0 0 0 0 0 0 0 -1 0 0 0 0 0 0 0 0 -1 -1 0 0 0 0 0 0 0 0 0 8 -12 1 0 0 1 0 0 0 0 0 0 0 0 0 0 0 0 0 0 0 0 0 0 0 0 0 0 0 0 1 0 0 0 -1 0 1 0 0 0 0 0 0 0 0 0 0 0 0 0 0 0 0 0 0 0 0 1 0 -1 0 0 0 1 1 0 0 0zm0 0l0 0 0 0 0 0zm958 347l-963 -334 5 -13 963 334 5 7 -10 6zm5 -13l5 2 0 5 -5 -7zm-9 8l0 -2 14 1 0 2 -8 7 -6 -8zm6 8l-7 -1 1 -7 6 8zm8 0l-8 0 1 -15 8 1 2 1 -3 13zm1 -14l1 0 1 1 -2 -1zm2 16l-5 -2 5 -13 5 1 4 5 -9 9zm5 -14l3 2 1 3 -4 -5zm68 220l-77 -210 13 -5 77 210 0 4 -13 1zm13 -5l1 2 -1 2 0 -4zm-153 699l139 -698 14 3 -139 698 0 0 -14 -3zm14 3l0 0 -1 2 1 -2zm2 7l-9 11 0 0 0 0 -1 -1 0 0 -1 -1 0 0 -1 -1 0 0 -1 -1 0 -1 -1 0 0 -1 0 0 -1 -1 0 -1 0 0 0 -1 -1 -1 0 0 0 -1 0 -1 0 -1 0 0 -1 -1 0 -1 0 0 0 -1 0 -1 0 -1 0 0 0 -1 1 -1 0 -1 14 3 0 1 0 0 0 0 0 0 0 0 0 1 0 0 0 0 0 0 0 1 0 0 0 0 0 0 0 1 0 0 0 0 0 0 0 0 0 1 0 0 0 0 1 0 0 1 0 0 0 0 0 0 0 0 1 1 0 0 0 0 0 0 0 0 0 0zm-9 11l0 0 0 0 0 0zm14 -9l0 14 0 0 -1 0 0 0 -1 0 0 0 -1 0 0 0 0 0 -1 0 0 0 -1 0 0 -1 -1 0 0 0 0 0 -1 0 0 0 -1 0 0 0 -1 -1 0 0 0 0 -1 0 0 0 -1 -1 0 0 0 0 -1 0 0 -1 -1 0 0 0 0 0 -1 -1 9 -11 0 0 0 0 1 0 0 1 0 0 0 0 0 0 0 0 0 0 0 0 1 0 0 0 0 0 0 0 0 0 0 0 0 0 1 0 0 0 0 1 0 0 0 0 0 0 0 0 1 0 0 0 0 0 0 0 0 0 0 0 0 0 1 0 0 0zm3 -1l5 13 0 0 0 0 0 0 0 0 -1 1 0 0 0 0 0 0 -1 0 0 0 0 0 -1 0 0 0 0 0 0 0 -1 0 0 1 0 0 -1 0 0 0 0 0 0 0 -1 0 0 0 0 0 0 0 -1 0 0 0 0 0 0 0 -1 0 0 0 0 0 0 -14 0 0 0 0 0 0 0 0 0 0 0 0 0 0 0 0 0 0 1 0 0 0 0 0 0 0 0 0 0 0 0 0 0 0 0 0 0 -1 0 0 1 0 0 0 0 0 0 0 0 0 0 0 0 0 0 0 0 0 0 0 0 0 1 0 0 0zm0 0l0 0 -1 0 1 0zm547 -228l-542 241 -5 -13 541 -241 6 13 0 0zm0 0l0 0 0 0 0 0zm-3 -14l10 9 0 0 0 0 0 1 0 0 -1 0 0 0 0 0 0 1 0 0 -1 0 0 0 0 0 0 1 -1 0 0 0 0 0 0 0 0 0 -1 1 0 0 0 0 0 0 -1 0 0 0 0 0 0 1 -1 0 0 0 0 0 0 0 -1 0 0 0 0 0 -6 -13 0 0 0 0 0 0 0 0 1 0 0 0 0 0 0 0 0 0 0 0 0 0 0 0 0 0 0 0 0 0 0 0 0 0 1 0 0 -1 0 0 0 0 0 0 0 0 0 0 0 0 0 0 0 0 0 0 0 0 0 0 1 0 0 0 0 0zm10 9l0 0 0 0 0 0zm517 -577l-517 577 -10 -9 517 -577 5 -3 5 12zm-10 -9l2 -3 3 0 -5 3zm641 12l-636 0 0 -15 636 0 0 0 0 15zm2 -15l3 14 0 0 0 0 0 0 0 0 0 0 -1 0 0 0 0 0 0 0 0 0 0 0 -1 0 0 0 0 0 0 0 0 0 0 0 -1 0 0 0 0 0 0 0 0 1 -1 0 0 0 0 0 0 0 0 0 0 0 -1 0 0 0 0 0 0 0 0 0 0 -15 0 0 0 0 0 0 0 0 0 0 0 0 0 0 0 0 0 0 0 0 0 0 0 0 0 0 0 0 1 0 -1 0 1 0 0 0 0 0 0 0 0 0 0 0 0 0 0 0 0 0 0 0 0 0 0 0 0 0 1 0 0 0 0 0 0 0zm3 14l0 0 0 0 0 0zm1102 -301l-1102 301 -3 -14 1101 -300 2 -1 2 14zm-4 -13l1 -1 1 0 -2 1zm542 14l-540 0 0 -15 540 0 0 0 0 15zm3 -15l6 12 0 0 0 0 0 1 -1 0 0 0 0 0 0 0 -1 0 0 0 0 0 -1 1 0 0 0 0 0 0 -1 0 0 0 0 0 -1 0 0 0 0 0 -1 0 0 0 0 0 -1 0 0 1 0 0 -1 0 0 0 0 0 -1 0 0 0 0 0 0 0 0 -15 0 0 0 0 0 0 0 0 0 0 0 0 0 0 0 0 0 0 0 0 1 0 0 0 0 0 0 0 0 0 0 0 0 0 0 0 0 0 0 0 1 0 0 0 0 0 0 0 0 0 0 0 0 0 0 0 0 0 1 0 0 0 0 0 0 0zm6 12l0 0 1 0 -1 0zm542 -281l-542 281 -6 -12 541 -281 7 12 0 0zm0 0l0 0 -1 1 1 -1zm-3 -20l14 -2 0 0 0 0 0 1 0 1 0 1 0 1 0 1 0 1 0 0 0 1 0 1 0 1 -1 1 0 1 0 0 0 1 -1 1 0 1 -1 0 0 1 0 1 -1 0 0 1 -1 1 -1 0 0 1 -1 1 0 0 -1 1 -1 0 -1 1 0 0 -1 0 -7 -12 1 0 0 0 0 -1 0 0 0 0 1 0 0 0 0 -1 0 0 0 0 1 0 0 0 0 -1 0 0 0 0 0 0 0 -1 1 0 0 0 0 0 0 -1 0 0 0 0 0 0 0 -1 0 0 0 0 0 -1 0 0 0 0 0 0 0 -1 0 0zm-6 -6l1 -14 0 0 1 0 1 1 1 0 1 0 1 0 0 0 1 1 1 0 1 1 0 0 1 0 1 1 1 0 0 1 1 0 1 1 0 0 1 1 0 1 1 0 0 1 1 1 0 0 1 1 0 1 0 1 1 0 0 1 0 1 1 1 0 1 0 1 -14 2 0 0 0 0 0 -1 0 0 0 0 -1 0 0 -1 0 0 0 0 0 0 0 -1 0 0 -1 0 0 0 0 0 0 -1 0 0 -1 0 0 0 0 0 0 -1 -1 0 0 0 0 0 0 0 -1 0 0 0 0 0 0 0 -1 0 0 0 0 -1 0 0zm0 0l0 0 1 1 -1 -1zm-475 -67l476 53 -1 14 -476 -52 -7 -9 8 -6zm-1 15l-8 -1 1 -8 7 9zm14 -44l-6 38 -15 -3 7 -37 3 -4 11 6zm-14 -2l1 -3 2 -1 -3 4zm489 -400l-477 407 -9 -11 477 -407 9 11 0 0zm0 0l0 0 0 0 0 0zm-8 -12l12 7 1 -1 0 0 -1 1 0 0 0 0 0 1 0 0 0 0 0 0 -1 0 0 1 0 0 0 0 0 0 0 0 -1 1 0 0 0 0 0 0 0 0 0 0 0 1 -1 0 0 0 0 0 0 0 0 0 0 1 -1 0 0 0 0 0 0 0 0 0 -9 -11 0 0 0 0 0 0 0 0 0 0 0 0 0 0 0 0 0 0 0 0 0 0 0 0 0 0 0 0 0 0 1 0 0 -1 0 0 0 0 0 0 0 0 0 0 0 0 0 0 0 0 0 0 0 0 0 0 0 0 0 0 0 0 0 0 0 0zm0 0l0 0 0 0 0 0zm694 -1136l-682 1143 -12 -7 682 -1144 0 0 12 8zm-12 -8l0 0 0 0 0 0zm1 -3l14 2 0 0 0 0 0 1 0 0 0 0 0 0 0 1 0 0 0 0 0 0 0 1 0 0 0 0 0 1 -1 0 0 0 0 0 0 1 0 0 0 0 0 1 0 0 0 0 0 0 -1 1 0 0 0 0 0 0 0 1 0 0 0 0 -1 1 0 0 -12 -8 0 0 0 0 0 0 0 0 0 0 0 0 1 -1 0 0 0 0 0 0 0 0 0 0 0 0 0 0 0 0 0 0 0 0 0 0 0 0 0 -1 0 0 0 0 0 0 0 0 0 0 0 0 0 0 0 0 0 0 0 -1 0 0 0 0 0 0zm14 2l0 0 0 0 0 0zm116 -1141l-116 1141 -14 -2 116 -1140 7 -7 7 8zm-14 -1l1 -7 6 0 -7 7zm8 8l-1 0 0 -15 1 0 7 7 -7 8zm7 -8l0 8 -7 0 7 -8zm0 -2l0 2 -15 0 0 -2 0 -1 15 1zm-15 0l0 0 0 -1 0 1zm19 -40l-4 41 -15 -2 5 -40 14 1 0 0zm0 0l0 0 0 0 0 0zm-16 -6l12 -8 0 0 1 1 0 0 0 1 0 0 0 0 1 1 0 0 0 1 0 0 0 0 1 1 0 0 0 1 0 0 0 1 0 0 0 0 0 1 0 0 1 1 0 0 0 1 0 0 0 1 0 0 0 0 0 1 0 0 0 1 0 0 0 1 0 0 -14 -1 0 0 0 0 0 -1 0 0 0 0 0 0 0 0 0 0 0 0 0 -1 0 0 -1 0 0 0 0 0 0 0 0 0 0 -1 0 0 0 0 0 0 0 0 0 0 0 -1 0 0 0 0 0 0 0 0 0 0 0 0 -1 -1 0 0 0 0 0 0zm12 -8l0 0 0 0 0 0zm-241 -361l241 361 -12 8 -240 -361 -1 0 12 -8zm-11 8l0 0 -1 0 1 0z"/>
  </g>
 </g>
</svg>
