<svg xmlns="http://www.w3.org/2000/svg" xml:space="preserve" width="1216px" height="1156px" version="1.1" style="shape-rendering:geometricPrecision; text-rendering:geometricPrecision; image-rendering:optimizeQuality; fill-rule:evenodd; clip-rule:evenodd"
viewBox="0 0 1216 1156"
 xmlns:xlink="http://www.w3.org/1999/xlink">
 <defs>
  <style type="text/css">
   <![CDATA[
    .fil0 {fill:#C0CFB2;fill-rule:nonzero}
   ]]>
  </style>
 </defs>
 <g id="Layer_x0020_1">
  <metadata id="CorelCorpID_0Corel-Layer"/>
  <g id="_232655744">
   <polygon class="fil0" points="571,539 571,539 571,540 571,540 "/>
   <polygon class="fil0" points="537,646 537,646 537,647 537,647 "/>
   <polygon class="fil0" points="857,365 857,365 857,365 857,365 "/>
   <polygon class="fil0" points="829,363 829,363 829,363 829,363 "/>
   <polygon class="fil0" points="801,363 801,363 801,363 801,363 "/>
   <polygon class="fil0" points="773,366 773,366 773,366 773,366 "/>
   <polygon class="fil0" points="745,371 745,371 745,372 745,371 "/>
   <polygon class="fil0" points="718,379 718,379 718,379 718,379 "/>
   <polygon class="fil0" points="691,389 692,389 692,389 691,389 "/>
   <polygon class="fil0" points="666,401 667,402 667,402 666,402 "/>
   <polygon class="fil0" points="642,416 642,416 642,417 642,417 "/>
   <polygon class="fil0" points="619,433 620,433 620,434 619,434 "/>
   <polygon class="fil0" points="598,452 599,452 599,452 598,452 "/>
   <polygon class="fil0" points="579,473 579,473 579,473 579,473 "/>
   <polygon class="fil0" points="562,495 562,495 562,495 562,495 "/>
   <polygon class="fil0" points="546,518 547,518 547,519 546,519 "/>
   <polygon class="fil0" points="533,543 534,544 534,544 533,544 "/>
   <polygon class="fil0" points="522,569 523,569 523,570 522,570 "/>
   <polygon class="fil0" points="514,597 514,597 514,597 514,597 "/>
   <polygon class="fil0" points="508,624 509,624 509,625 508,625 "/>
   <polygon class="fil0" points="504,652 505,652 505,653 504,653 "/>
   <polygon class="fil0" points="503,680 504,680 504,681 503,681 "/>
   <polygon class="fil0" points="505,708 506,708 506,709 505,709 "/>
   <polygon class="fil0" points="509,737 510,737 509,737 509,737 "/>
   <polygon class="fil0" points="516,764 516,764 516,765 515,765 "/>
   <polygon class="fil0" points="525,791 525,791 525,791 525,791 "/>
   <polygon class="fil0" points="536,817 536,817 536,817 536,817 "/>
   <polygon class="fil0" points="648,942 648,942 648,942 648,942 "/>
   <polygon class="fil0" points="1096,471 1096,471 1096,471 1096,471 "/>
   <polygon class="fil0" points="1079,449 1079,449 1079,449 1079,449 "/>
   <polygon class="fil0" points="1059,428 1059,428 1059,429 1059,428 "/>
   <polygon class="fil0" points="1038,410 1038,410 1038,410 1038,410 "/>
   <polygon class="fil0" points="1015,393 1016,393 1016,393 1015,393 "/>
   <polygon class="fil0" points="992,377 992,377 992,378 992,378 "/>
   <polygon class="fil0" points="967,364 967,364 967,364 967,364 "/>
   <polygon class="fil0" points="941,353 941,353 941,353 941,353 "/>
   <polygon class="fil0" points="914,344 914,344 914,345 914,345 "/>
   <polygon class="fil0" points="886,337 887,337 887,338 886,338 "/>
   <polygon class="fil0" points="858,333 859,333 859,333 858,333 "/>
   <polygon class="fil0" points="830,331 831,331 831,332 830,332 "/>
   <polygon class="fil0" points="802,331 803,331 802,332 802,332 "/>
   <polygon class="fil0" points="774,333 774,334 774,334 773,334 "/>
   <polygon class="fil0" points="746,338 746,338 746,339 746,339 "/>
   <path class="fil0" d="M718 345c1,0 1,0 2,0 0,1 0,1 -1,2 0,0 -1,0 -1,-1 0,0 0,-1 0,-1z"/>
   <path class="fil0" d="M691 354c1,0 1,0 2,0 0,1 0,1 0,2 -1,0 -1,0 -2,0 0,-1 0,-2 0,-2z"/>
   <path class="fil0" d="M665 365c1,0 2,0 2,1 1,0 0,1 0,1 -1,1 -1,1 -2,0 0,0 0,-1 0,-2z"/>
   <path class="fil0" d="M641 379c0,0 1,0 1,0 0,1 0,1 0,2 -1,0 -1,0 -1,-1 -1,0 -1,-1 0,-1z"/>
   <path class="fil0" d="M617 394c0,0 1,0 1,1 1,0 1,1 0,1 0,0 -1,0 -1,0 -1,-1 0,-1 0,-2z"/>
   <path class="fil0" d="M595 412c0,-1 1,0 1,0 0,0 0,1 0,1 -1,1 -1,1 -1,0 -1,0 -1,-1 0,-1z"/>
   <path class="fil0" d="M574 431c0,-1 1,0 1,0 1,0 1,1 0,1 0,1 -1,1 -1,0 -1,0 -1,-1 0,-1z"/>
   <path class="fil0" d="M554 451c1,0 2,0 3,0 0,1 0,2 -1,3 -1,0 -1,0 -2,-1 -1,0 0,-1 0,-2z"/>
   <path class="fil0" d="M537 473c0,-1 2,0 2,0 1,1 1,2 0,3 -1,1 -2,0 -3,0 0,-1 0,-2 1,-3z"/>
   <path class="fil0" d="M521 497c1,-1 2,-1 3,0 0,1 0,2 -1,3 -1,0 -2,0 -2,-1 -1,-1 -1,-2 0,-2z"/>
   <path class="fil0" d="M508 522c0,0 1,0 1,0 1,1 1,1 0,2 0,0 -1,0 -1,-1 -1,0 -1,-1 0,-1z"/>
   <path class="fil0" d="M496 547c1,0 2,0 2,1 1,0 0,1 0,2 -1,0 -2,0 -2,-1 -1,0 0,-1 0,-2z"/>
   <path class="fil0" d="M487 574c0,0 1,0 2,0 0,1 0,2 -1,2 0,1 -1,0 -1,0 -1,-1 -1,-1 0,-2z"/>
   <path class="fil0" d="M480 601c0,0 1,0 1,1 1,0 1,1 0,2 0,0 -1,0 -2,-1 0,0 0,-1 1,-2z"/>
   <path class="fil0" d="M475 629c0,0 1,0 1,0 1,1 1,2 0,2 0,1 -1,1 -2,0 0,0 0,-1 1,-2z"/>
   <path class="fil0" d="M472 658c1,-1 1,-1 1,0 1,0 1,1 0,1 0,0 -1,0 -1,0 0,0 0,-1 0,-1z"/>
   <path class="fil0" d="M472 686c0,0 1,0 1,0 0,1 0,1 0,1 -1,1 -1,1 -1,0 -1,0 -1,-1 0,-1z"/>
   <path class="fil0" d="M473 714c1,-1 2,0 2,0 1,1 0,1 0,2 -1,0 -1,0 -2,0 0,-1 0,-2 0,-2z"/>
   <path class="fil0" d="M478 742c0,0 1,0 1,0 1,1 0,1 0,2 0,0 -1,0 -1,-1 -1,0 -1,-1 0,-1z"/>
   <path class="fil0" d="M484 770c1,-1 1,-1 2,0 0,0 0,1 -1,1 0,0 -1,0 -1,0 0,-1 0,-1 0,-1z"/>
   <polygon class="fil0" points="493,797 494,797 494,798 493,798 "/>
   <polygon class="fil0" points="504,823 505,823 505,824 504,824 "/>
   <polygon class="fil0" points="517,848 518,848 518,849 517,849 "/>
   <polygon class="fil0" points="532,872 533,872 533,873 532,873 "/>
   <polygon class="fil0" points="549,895 549,895 549,895 549,895 "/>
   <polygon class="fil0" points="568,916 568,916 568,916 568,916 "/>
   <polygon class="fil0" points="588,936 588,936 588,936 588,936 "/>
   <polygon class="fil0" points="610,954 610,954 610,954 610,954 "/>
   <polygon class="fil0" points="633,970 633,970 633,970 633,970 "/>
   <polygon class="fil0" points="737,1014 737,1014 737,1014 737,1014 "/>
   <polygon class="fil0" points="1126,519 1126,519 1126,519 1126,519 "/>
   <polygon class="fil0" points="1112,494 1112,494 1112,494 1112,494 "/>
   <polygon class="fil0" points="1104,430 1104,430 1104,430 1104,430 "/>
   <polygon class="fil0" points="1085,409 1085,409 1085,409 1085,409 "/>
   <polygon class="fil0" points="1064,390 1064,390 1064,390 1064,390 "/>
   <polygon class="fil0" points="1042,373 1042,373 1042,373 1042,373 "/>
   <polygon class="fil0" points="1018,357 1018,357 1018,357 1018,357 "/>
   <polygon class="fil0" points="994,343 994,343 994,343 994,343 "/>
   <polygon class="fil0" points="968,331 968,331 968,331 968,331 "/>
   <polygon class="fil0" points="942,320 942,320 942,321 942,321 "/>
   <polygon class="fil0" points="915,312 915,312 915,313 915,312 "/>
   <polygon class="fil0" points="887,305 888,306 888,307 887,306 "/>
   <polygon class="fil0" points="859,301 860,301 860,302 859,302 "/>
   <polygon class="fil0" points="831,299 832,299 832,300 831,300 "/>
   <polygon class="fil0" points="803,299 804,300 803,300 803,300 "/>
   <path class="fil0" d="M774 300c1,0 2,0 3,1 0,1 0,2 -1,3 -1,1 -2,0 -3,-1 -1,-1 0,-2 1,-3z"/>
   <path class="fil0" d="M746 305c1,0 2,0 2,0 1,1 1,2 0,3 -1,0 -2,0 -2,-1 -1,0 -1,-1 0,-2z"/>
   <path class="fil0" d="M719 312c0,0 1,0 1,0 1,1 0,1 0,2 0,0 -1,0 -1,-1 -1,0 0,-1 0,-1z"/>
   <path class="fil0" d="M692 320c0,0 1,0 2,0 0,1 0,2 -1,2 0,1 -1,1 -2,0 0,-1 0,-1 1,-2z"/>
   <path class="fil0" d="M665 330c1,0 2,0 3,1 0,0 0,1 -1,2 0,0 -2,0 -2,0 -1,-1 0,-2 0,-3z"/>
   <path class="fil0" d="M640 343c1,-1 2,-1 2,0 1,1 1,2 0,2 -1,1 -2,1 -2,0 -1,-1 -1,-2 0,-2z"/>
   <path class="fil0" d="M616 357c0,0 1,0 1,0 1,1 1,2 0,2 0,1 -1,0 -2,0 0,-1 0,-1 1,-2z"/>
   <path class="fil0" d="M592 373c1,0 2,0 2,0 1,1 0,2 0,2 -1,1 -1,0 -2,0 0,-1 0,-1 0,-2z"/>
   <path class="fil0" d="M570 390c1,0 2,0 3,1 0,0 0,2 -1,2 -1,1 -2,1 -2,0 -1,-1 -1,-2 0,-3z"/>
   <path class="fil0" d="M550 410c0,-1 1,-1 2,0 0,1 0,2 -1,2 0,1 -1,1 -2,0 0,-1 0,-2 1,-2z"/>
   <path class="fil0" d="M530 430c1,0 2,0 3,1 1,1 0,2 0,2 -1,1 -3,1 -3,0 -1,-1 -1,-2 0,-3z"/>
   <path class="fil0" d="M512 452c1,-1 3,-1 4,0 1,2 1,3 -1,4 -1,1 -3,1 -3,0 -1,-2 -1,-3 0,-4z"/>
   <path class="fil0" d="M496 475c2,-1 3,0 4,1 1,1 1,3 0,3 -2,1 -3,1 -4,0 -1,-1 -1,-3 0,-4z"/>
   <path class="fil0" d="M483 500c1,0 2,0 2,1 1,1 1,2 0,2 -1,1 -2,1 -3,0 0,-1 0,-2 1,-3z"/>
   <path class="fil0" d="M470 525c1,-1 3,0 4,1 1,1 1,3 -1,4 -1,0 -3,0 -3,-1 -1,-1 -1,-3 0,-4z"/>
   <path class="fil0" d="M460 552c1,0 2,0 3,1 1,0 0,2 0,2 -1,1 -2,1 -3,0 -1,-1 0,-2 0,-3z"/>
   <path class="fil0" d="M452 579c1,-1 2,-1 3,0 1,1 1,3 0,4 -1,0 -3,0 -4,-1 0,-1 0,-2 1,-3z"/>
   <path class="fil0" d="M446 607c1,-1 2,-1 3,0 0,1 0,2 -1,3 -1,1 -2,0 -3,-1 0,0 0,-2 1,-2z"/>
   <path class="fil0" d="M442 635c1,-1 2,-1 2,0 1,1 1,2 0,3 -1,0 -2,0 -2,-1 -1,-1 -1,-2 0,-2z"/>
   <path class="fil0" d="M440 664c1,-1 1,-1 2,0 0,0 0,1 0,1 -1,1 -2,0 -2,0 0,0 0,-1 0,-1z"/>
   <path class="fil0" d="M440 692c1,-1 2,-1 2,0 0,0 0,1 0,2 -1,0 -2,0 -2,-1 0,0 0,-1 0,-1z"/>
   <path class="fil0" d="M443 720c0,0 1,0 1,0 0,1 0,1 0,2 -1,0 -1,0 -2,-1 0,0 0,-1 1,-1z"/>
   <path class="fil0" d="M447 748c0,0 1,0 1,0 1,1 1,1 0,2 0,0 -1,0 -1,-1 -1,0 -1,-1 0,-1z"/>
   <path class="fil0" d="M453 775c1,0 1,0 2,1 0,0 0,1 -1,1 0,0 -1,0 -1,0 0,-1 0,-1 0,-2z"/>
   <path class="fil0" d="M462 802c0,0 1,0 1,1 0,0 0,1 0,1 -1,0 -1,0 -2,0 0,-1 0,-1 1,-2z"/>
   <path class="fil0" d="M472 829c0,-1 1,-1 2,0 0,0 0,1 -1,1 0,1 -1,1 -1,0 -1,0 0,-1 0,-1z"/>
   <path class="fil0" d="M484 854c1,0 1,0 2,0 0,1 0,1 0,2 -1,0 -1,0 -2,-1 0,0 0,-1 0,-1z"/>
   <path class="fil0" d="M499 879c0,-1 1,-1 1,0 0,0 0,1 0,1 -1,0 -1,0 -2,0 0,-1 0,-1 1,-1z"/>
   <polygon class="fil0" points="515,902 516,902 516,903 515,903 "/>
   <polygon class="fil0" points="533,924 533,924 533,925 533,925 "/>
   <polygon class="fil0" points="552,945 552,945 552,946 552,946 "/>
   <polygon class="fil0" points="573,964 573,964 573,965 573,965 "/>
   <polygon class="fil0" points="595,982 595,982 595,982 595,982 "/>
   <polygon class="fil0" points="618,998 619,998 619,998 618,998 "/>
   <polygon class="fil0" points="643,1012 643,1012 643,1012 643,1012 "/>
   <polygon class="fil0" points="668,1024 669,1024 669,1024 668,1024 "/>
   <polygon class="fil0" points="695,1034 695,1034 695,1034 695,1034 "/>
   <polygon class="fil0" points="722,1042 722,1042 722,1043 722,1043 "/>
   <polygon class="fil0" points="749,1049 749,1049 749,1049 749,1049 "/>
   <polygon class="fil0" points="777,1053 777,1053 777,1053 777,1053 "/>
   <polygon class="fil0" points="805,1055 806,1055 806,1055 805,1055 "/>
   <polygon class="fil0" points="834,1055 834,1055 834,1055 834,1055 "/>
   <polygon class="fil0" points="862,1052 862,1053 862,1053 862,1053 "/>
   <polygon class="fil0" points="917,1042 917,1042 917,1042 917,1042 "/>
   <polygon class="fil0" points="1152,500 1152,500 1152,500 1152,500 "/>
   <polygon class="fil0" points="1138,475 1138,475 1138,475 1138,475 "/>
   <polygon class="fil0" points="1147,433 1147,433 1147,433 1147,433 "/>
   <polygon class="fil0" points="1129,411 1129,411 1129,411 1129,411 "/>
   <polygon class="fil0" points="1110,390 1110,390 1110,390 1110,390 "/>
   <polygon class="fil0" points="1090,371 1090,371 1090,371 1089,371 "/>
   <polygon class="fil0" points="1068,353 1068,353 1068,353 1068,353 "/>
   <polygon class="fil0" points="1045,336 1045,336 1045,337 1045,337 "/>
   <polygon class="fil0" points="1021,321 1021,322 1021,322 1021,322 "/>
   <polygon class="fil0" points="996,309 996,309 996,309 996,309 "/>
   <polygon class="fil0" points="970,297 970,297 970,297 970,297 "/>
   <polygon class="fil0" points="943,287 944,287 944,288 943,288 "/>
   <polygon class="fil0" points="916,279 917,280 917,280 916,280 "/>
   <polygon class="fil0" points="888,274 889,274 889,275 888,275 "/>
   <polygon class="fil0" points="860,270 861,270 861,271 860,271 "/>
   <path class="fil0" d="M832 267c0,0 1,0 2,1 0,0 0,1 -1,1 0,1 -1,1 -2,0 0,0 0,-1 1,-2z"/>
   <path class="fil0" d="M803 267c1,-1 2,-1 3,0 0,1 0,2 -1,3 -1,1 -2,0 -2,0 -1,-1 -1,-3 0,-3z"/>
   <path class="fil0" d="M774 268c1,-2 4,-1 5,0 1,2 1,4 -1,5 -1,1 -4,1 -5,-1 -1,-1 -1,-3 1,-4z"/>
   <path class="fil0" d="M746 271c2,-1 4,0 5,1 1,2 1,4 -1,5 -1,1 -4,1 -5,-1 -1,-1 -1,-3 1,-5z"/>
   <path class="fil0" d="M719 278c1,-1 2,0 3,1 1,1 1,2 0,3 -1,1 -3,0 -3,-1 -1,-1 -1,-2 0,-3z"/>
   <path class="fil0" d="M692 286c1,-1 2,-1 3,0 1,1 1,3 0,4 -1,0 -3,0 -4,-1 -1,-1 0,-2 1,-3z"/>
   <path class="fil0" d="M665 296c1,-1 3,-1 3,0 1,1 1,2 0,3 -1,1 -2,0 -3,-1 -1,0 0,-2 0,-2z"/>
   <path class="fil0" d="M640 308c1,-1 1,-1 2,0 0,0 0,1 0,2 -1,0 -2,0 -2,-1 -1,0 -1,-1 0,-1z"/>
   <path class="fil0" d="M614 320c1,-1 3,0 4,1 0,0 0,2 -1,3 -1,0 -2,0 -3,-1 -1,-1 -1,-2 0,-3z"/>
   <path class="fil0" d="M591 335c0,0 2,0 2,1 1,0 0,1 0,2 -1,1 -2,0 -3,0 0,-1 0,-2 1,-3z"/>
   <path class="fil0" d="M568 352c0,-1 2,-1 2,0 1,1 0,2 0,2 -1,1 -2,1 -3,0 0,-1 0,-2 1,-2z"/>
   <path class="fil0" d="M546 369c1,0 2,0 3,1 0,1 0,2 -1,3 -1,1 -2,0 -3,-1 -1,-1 0,-2 1,-3z"/>
   <path class="fil0" d="M525 388c1,-1 3,0 4,1 1,1 0,3 -1,4 -1,1 -3,0 -4,-1 -1,-1 0,-3 1,-4z"/>
   <path class="fil0" d="M506 410c1,-1 2,-1 3,0 1,1 1,2 0,3 -1,1 -3,1 -3,0 -1,-1 -1,-3 0,-3z"/>
   <path class="fil0" d="M488 431c1,-2 4,-1 5,0 1,2 1,4 -1,5 -2,2 -4,1 -5,0 -1,-2 -1,-4 1,-5z"/>
   <path class="fil0" d="M471 453c2,-1 5,-1 6,1 2,2 1,5 -1,6 -2,2 -4,1 -6,-1 -1,-2 -1,-4 1,-6z"/>
   <path class="fil0" d="M457 478c2,-1 4,-1 5,1 2,1 1,4 0,5 -2,1 -4,1 -6,-1 -1,-1 0,-4 1,-5z"/>
   <path class="fil0" d="M444 503c2,-1 4,-1 6,1 1,2 0,4 -1,5 -2,1 -4,1 -5,-1 -1,-1 -1,-3 0,-5z"/>
   <path class="fil0" d="M433 529c2,-1 5,-1 6,1 1,2 1,4 -1,6 -2,1 -4,1 -6,-1 -1,-2 -1,-5 1,-6z"/>
   <path class="fil0" d="M424 555c2,-2 5,-1 7,1 1,2 1,5 -1,7 -3,2 -6,1 -7,-1 -2,-2 -2,-5 1,-7z"/>
   <path class="fil0" d="M418 584c1,-1 3,0 4,1 1,1 0,3 -1,4 -1,0 -3,0 -4,-1 -1,-1 0,-3 1,-4z"/>
   <path class="fil0" d="M412 612c2,-1 3,-1 4,1 1,1 1,2 0,3 -1,1 -3,1 -4,0 -1,-1 -1,-3 0,-4z"/>
   <path class="fil0" d="M409 640c1,0 3,0 3,1 1,1 1,2 0,3 -1,1 -2,0 -3,-1 -1,0 -1,-2 0,-3z"/>
   <path class="fil0" d="M408 669c1,-1 2,-1 3,0 0,1 0,2 -1,3 0,1 -2,0 -2,0 -1,-1 -1,-3 0,-3z"/>
   <path class="fil0" d="M409 697c0,-1 2,0 2,0 1,1 1,3 0,3 -1,1 -2,1 -3,0 -1,-1 0,-2 1,-3z"/>
   <path class="fil0" d="M411 725c1,-1 2,-1 3,0 1,1 1,3 0,4 -1,0 -3,0 -4,-1 0,-1 0,-2 1,-3z"/>
   <path class="fil0" d="M416 753c0,0 1,0 2,1 0,0 0,1 -1,2 0,0 -1,0 -2,0 0,-1 0,-2 1,-3z"/>
   <path class="fil0" d="M422 781c1,0 1,0 2,1 0,0 0,1 -1,1 0,0 -1,0 -1,0 0,-1 0,-1 0,-2z"/>
   <path class="fil0" d="M430 808c1,0 2,0 2,1 0,0 0,1 0,1 -1,1 -2,1 -2,0 0,-1 0,-1 0,-2z"/>
   <path class="fil0" d="M440 835c1,-1 2,-1 2,0 0,0 0,1 0,2 -1,0 -2,0 -2,-1 0,0 0,-1 0,-1z"/>
   <path class="fil0" d="M452 860c1,0 1,0 2,1 0,0 0,1 0,1 -1,1 -2,1 -2,0 -1,0 0,-1 0,-2z"/>
   <path class="fil0" d="M466 885c0,0 1,0 1,0 1,1 1,2 0,2 0,0 -1,0 -1,0 -1,-1 -1,-1 0,-2z"/>
   <polygon class="fil0" points="481,909 482,910 482,910 481,910 "/>
   <path class="fil0" d="M498 932c0,0 1,0 1,0 1,0 1,1 0,1 0,1 -1,1 -1,0 -1,0 0,-1 0,-1z"/>
   <path class="fil0" d="M516 953c1,0 1,0 2,0 0,1 0,1 -1,2 0,0 -1,0 -1,0 0,-1 0,-1 0,-2z"/>
   <polygon class="fil0" points="536,974 537,974 537,975 536,974 "/>
   <polygon class="fil0" points="557,992 558,993 558,993 557,993 "/>
   <polygon class="fil0" points="580,1010 581,1010 581,1010 580,1010 "/>
   <polygon class="fil0" points="604,1026 604,1026 604,1026 604,1026 "/>
   <polygon class="fil0" points="628,1040 628,1040 628,1040 628,1040 "/>
   <polygon class="fil0" points="654,1052 654,1052 654,1052 654,1052 "/>
   <polygon class="fil0" points="680,1062 680,1062 680,1063 680,1063 "/>
   <polygon class="fil0" points="707,1071 707,1071 707,1071 707,1071 "/>
   <polygon class="fil0" points="734,1078 735,1078 735,1078 734,1078 "/>
   <polygon class="fil0" points="762,1082 762,1083 762,1083 762,1083 "/>
   <polygon class="fil0" points="790,1085 791,1085 790,1086 790,1086 "/>
   <polygon class="fil0" points="818,1086 819,1087 819,1087 818,1087 "/>
   <polygon class="fil0" points="847,1086 847,1086 847,1086 847,1086 "/>
   <polygon class="fil0" points="875,1083 875,1083 875,1083 875,1083 "/>
   <polygon class="fil0" points="903,1078 903,1078 903,1078 903,1078 "/>
   <polygon class="fil0" points="1201,532 1201,532 1201,532 1201,532 "/>
   <polygon class="fil0" points="1190,506 1190,506 1190,506 1190,506 "/>
   <polygon class="fil0" points="1177,481 1177,481 1177,481 1177,481 "/>
   <polygon class="fil0" points="1163,456 1163,456 1163,457 1163,457 "/>
   <polygon class="fil0" points="1172,414 1172,414 1172,415 1172,415 "/>
   <polygon class="fil0" points="1154,392 1155,392 1155,393 1154,393 "/>
   <polygon class="fil0" points="1135,371 1136,371 1136,372 1135,372 "/>
   <polygon class="fil0" points="1115,351 1116,352 1116,352 1115,352 "/>
   <polygon class="fil0" points="1094,333 1094,333 1094,334 1094,334 "/>
   <path class="fil0" d="M1071 316c0,-1 1,-1 1,0 0,0 0,1 0,1 0,1 -1,0 -1,0 -1,0 -1,-1 0,-1z"/>
   <path class="fil0" d="M1047 300c1,0 1,0 2,0 0,1 0,2 -1,2 0,0 -1,0 -1,0 -1,-1 -1,-2 0,-2z"/>
   <polygon class="fil0" points="1023,287 1023,287 1023,287 1023,287 "/>
   <polygon class="fil0" points="998,274 998,275 998,275 997,275 "/>
   <polygon class="fil0" points="971,264 972,264 972,265 971,264 "/>
   <polygon class="fil0" points="945,255 945,255 945,255 944,255 "/>
   <polygon class="fil0" points="917,247 918,248 918,248 917,248 "/>
   <path class="fil0" d="M889 241c1,0 1,0 2,1 0,0 0,1 0,2 -1,0 -2,0 -2,-1 -1,0 -1,-1 0,-2z"/>
   <path class="fil0" d="M861 237c0,0 2,0 2,1 1,0 1,2 0,2 -1,1 -2,1 -3,0 0,-1 0,-2 1,-3z"/>
   <path class="fil0" d="M833 236c0,-1 1,-1 2,0 0,1 0,2 -1,2 0,0 -1,0 -2,0 0,-1 0,-2 1,-2z"/>
   <path class="fil0" d="M804 235c1,-1 2,0 3,1 1,0 1,2 0,3 -1,0 -3,0 -3,-1 -1,-1 -1,-2 0,-3z"/>
   <path class="fil0" d="M775 236c2,-1 4,-1 5,1 1,1 0,3 -1,4 -1,1 -3,1 -4,-1 -1,-1 -1,-3 0,-4z"/>
   <path class="fil0" d="M747 239c1,-2 4,-1 5,1 2,1 1,4 0,5 -2,2 -5,1 -6,0 -2,-2 -1,-5 1,-6z"/>
   <path class="fil0" d="M719 245c2,-1 4,-1 5,1 1,1 0,3 -1,4 -1,1 -3,1 -4,-1 -1,-1 -1,-3 0,-4z"/>
   <path class="fil0" d="M691 251c2,-2 5,-1 7,1 1,2 1,5 -1,6 -2,2 -5,1 -7,-1 -1,-2 -1,-5 1,-6z"/>
   <path class="fil0" d="M664 260c2,-2 5,-1 7,1 1,2 1,5 -1,6 -2,2 -5,1 -6,-1 -2,-2 -2,-5 0,-6z"/>
   <path class="fil0" d="M639 272c2,-1 3,-1 4,0 1,2 1,3 0,4 -2,1 -3,1 -4,0 -1,-2 -1,-3 0,-4z"/>
   <path class="fil0" d="M614 284c1,-1 3,-1 4,0 1,2 0,4 -1,5 -1,0 -3,0 -4,-1 -1,-1 -1,-3 1,-4z"/>
   <path class="fil0" d="M589 297c1,-1 3,-1 5,1 1,1 0,4 -1,5 -2,1 -4,1 -5,-1 -1,-2 -1,-4 1,-5z"/>
   <path class="fil0" d="M566 313c1,0 2,0 3,1 1,1 1,2 0,3 -2,1 -3,1 -4,0 -1,-1 0,-3 1,-4z"/>
   <path class="fil0" d="M542 329c2,-1 4,0 5,1 1,2 1,4 -1,5 -1,1 -3,1 -4,-1 -1,-1 -1,-3 0,-5z"/>
   <path class="fil0" d="M521 347c1,-1 4,0 5,1 1,2 1,4 -1,5 -2,2 -4,1 -5,0 -1,-2 -1,-4 1,-6z"/>
   <path class="fil0" d="M500 367c2,-1 4,-1 6,1 1,1 0,4 -1,5 -2,1 -4,1 -6,-1 -1,-1 0,-4 1,-5z"/>
   <path class="fil0" d="M481 388c2,-2 4,-1 6,1 1,1 1,4 -1,5 -2,1 -4,1 -6,-1 -1,-1 -1,-4 1,-5z"/>
   <path class="fil0" d="M463 409c2,-2 5,-1 7,1 2,2 1,5 -1,7 -2,2 -6,1 -7,-1 -2,-2 -2,-6 1,-7z"/>
   <path class="fil0" d="M446 431c3,-2 6,-1 8,2 2,2 2,6 -1,8 -2,2 -6,1 -8,-1 -2,-3 -2,-7 1,-9z"/>
   <path class="fil0" d="M432 456c2,-1 5,-1 7,1 1,2 1,6 -1,7 -2,2 -5,1 -7,-1 -2,-2 -1,-5 1,-7z"/>
   <path class="fil0" d="M417 479c4,-2 8,-1 11,2 2,3 1,8 -2,10 -3,2 -8,2 -10,-1 -2,-4 -2,-8 1,-11z"/>
   <path class="fil0" d="M407 506c2,-2 6,-1 8,1 2,3 2,7 -1,9 -3,2 -7,2 -9,-1 -2,-3 -1,-7 2,-9z"/>
   <path class="fil0" d="M397 532c2,-2 7,-1 9,2 2,3 1,7 -2,9 -3,2 -7,1 -9,-2 -2,-2 -1,-7 2,-9z"/>
   <path class="fil0" d="M389 560c2,-2 6,-1 8,1 2,3 1,6 -1,8 -3,2 -6,2 -8,-1 -2,-3 -2,-6 1,-8z"/>
   <path class="fil0" d="M382 587c3,-2 7,-1 9,2 2,2 1,6 -1,8 -3,2 -7,1 -9,-1 -2,-3 -1,-7 1,-9z"/>
   <path class="fil0" d="M379 617c2,-1 4,-1 6,1 1,1 1,4 -1,5 -2,2 -4,1 -6,-1 -1,-1 -1,-4 1,-5z"/>
   <path class="fil0" d="M377 645c1,-1 3,0 4,1 1,2 1,4 0,5 -2,1 -4,1 -5,-1 -1,-1 -1,-3 1,-5z"/>
   <path class="fil0" d="M376 674c1,-1 3,-1 4,0 1,2 1,4 0,5 -2,1 -4,1 -5,-1 -1,-1 -1,-3 1,-4z"/>
   <path class="fil0" d="M377 702c1,-1 3,0 4,1 1,1 1,3 -1,4 -1,1 -3,1 -4,-1 -1,-1 0,-3 1,-4z"/>
   <path class="fil0" d="M380 731c1,-1 2,-1 3,0 1,1 1,3 0,4 -1,0 -3,0 -4,-1 0,-1 0,-2 1,-3z"/>
   <path class="fil0" d="M384 759c1,-1 3,-1 4,0 1,1 0,3 -1,4 -1,1 -3,0 -3,-1 -1,-1 -1,-3 0,-3z"/>
   <path class="fil0" d="M390 786c1,-1 3,-1 4,1 1,1 1,2 -1,3 -1,1 -2,1 -3,0 -1,-1 -1,-3 0,-4z"/>
   <path class="fil0" d="M398 813c1,-1 3,-1 4,1 1,1 1,3 -1,3 -1,1 -2,1 -3,0 -1,-1 -1,-3 0,-4z"/>
   <path class="fil0" d="M408 840c1,0 2,0 3,1 1,1 1,2 0,2 -1,1 -2,1 -3,0 -1,-1 -1,-2 0,-3z"/>
   <path class="fil0" d="M420 866c1,0 2,0 2,1 1,0 1,2 0,2 -1,1 -2,1 -3,0 0,-1 0,-2 1,-3z"/>
   <path class="fil0" d="M433 891c1,-1 2,-1 3,0 0,1 0,3 -1,4 -1,0 -2,0 -3,-1 -1,-1 0,-2 1,-3z"/>
   <path class="fil0" d="M448 916c0,-1 1,-1 2,0 0,1 0,2 0,2 -1,1 -2,1 -3,0 0,-1 0,-2 1,-2z"/>
   <path class="fil0" d="M464 939c0,-1 1,0 2,0 0,1 0,2 0,2 -1,1 -2,1 -3,0 0,-1 0,-2 1,-2z"/>
   <path class="fil0" d="M481 961c1,0 2,0 2,0 1,1 1,2 0,2 -1,1 -1,1 -2,0 0,-1 0,-1 0,-2z"/>
   <path class="fil0" d="M500 982c1,0 2,0 2,0 1,1 1,2 0,2 -1,1 -1,1 -2,0 0,-1 0,-1 0,-2z"/>
   <path class="fil0" d="M521 1002c0,0 1,0 1,0 1,1 0,1 0,2 0,0 -1,0 -1,0 -1,-1 -1,-2 0,-2z"/>
   <polygon class="fil0" points="543,1021 543,1021 543,1022 542,1022 "/>
   <path class="fil0" d="M565 1037c0,0 1,0 1,1 1,0 1,1 0,1 0,0 -1,0 -1,0 -1,-1 -1,-1 0,-2z"/>
   <polygon class="fil0" points="589,1053 589,1053 589,1054 589,1054 "/>
   <polygon class="fil0" points="613,1067 614,1067 614,1068 613,1068 "/>
   <polygon class="fil0" points="639,1080 639,1080 639,1080 639,1080 "/>
   <polygon class="fil0" points="665,1090 666,1090 666,1091 665,1091 "/>
   <polygon class="fil0" points="692,1099 692,1099 692,1100 692,1100 "/>
   <polygon class="fil0" points="719,1107 720,1107 720,1107 719,1107 "/>
   <polygon class="fil0" points="747,1112 747,1112 747,1113 747,1112 "/>
   <polygon class="fil0" points="775,1116 775,1116 775,1116 775,1116 "/>
   <polygon class="fil0" points="1216,487 1216,487 1216,487 1216,487 "/>
   <polygon class="fil0" points="1203,462 1203,462 1203,462 1203,462 "/>
   <polygon class="fil0" points="1188,438 1188,438 1188,438 1188,438 "/>
   <polygon class="fil0" points="1197,396 1198,396 1198,396 1197,396 "/>
   <path class="fil0" d="M1179 373c1,0 1,0 2,0 0,0 0,1 0,1 -1,1 -1,1 -2,0 0,0 0,-1 0,-1z"/>
   <polygon class="fil0" points="1161,352 1162,352 1162,353 1161,353 "/>
   <polygon class="fil0" points="1141,332 1142,332 1142,333 1141,333 "/>
   <polygon class="fil0" points="1120,313 1120,314 1120,314 1119,314 "/>
   <path class="fil0" d="M1096 295c1,-1 3,-1 3,0 1,1 1,2 0,3 -1,1 -2,1 -3,0 -1,-1 0,-2 0,-3z"/>
   <path class="fil0" d="M1072 278c2,-1 4,-1 5,0 1,2 1,4 -1,5 -1,1 -3,1 -4,0 -2,-2 -1,-4 0,-5z"/>
   <path class="fil0" d="M1049 265c1,0 2,0 2,0 1,1 0,2 0,2 -1,0 -1,0 -2,0 0,-1 0,-2 0,-2z"/>
   <path class="fil0" d="M1024 251c1,-1 2,-1 3,0 1,1 1,3 0,4 -1,1 -3,1 -4,-1 -1,-1 -1,-2 1,-3z"/>
   <path class="fil0" d="M998 239c1,0 2,0 3,1 1,1 1,2 0,3 -1,1 -3,0 -3,0 -1,-1 -1,-3 0,-4z"/>
   <path class="fil0" d="M972 230c1,0 1,0 2,1 0,0 0,1 0,1 -1,0 -1,0 -2,0 0,-1 0,-1 0,-2z"/>
   <path class="fil0" d="M945 221c1,0 2,0 2,1 1,0 1,2 0,2 -1,1 -2,0 -2,0 -1,-1 -1,-2 0,-3z"/>
   <path class="fil0" d="M918 215c0,-1 1,-1 2,0 0,1 0,2 0,2 -1,1 -2,1 -3,0 0,-1 0,-2 1,-2z"/>
   <path class="fil0" d="M890 209c1,0 2,0 2,1 1,0 0,1 0,2 -1,1 -2,0 -2,0 -1,-1 -1,-2 0,-3z"/>
   <path class="fil0" d="M861 205c1,-1 3,0 4,1 1,1 1,2 -1,3 -1,1 -2,1 -3,0 -1,-1 -1,-3 0,-4z"/>
   <path class="fil0" d="M833 203c1,-1 3,-1 4,1 1,1 1,3 -1,4 -1,1 -3,0 -4,-1 -1,-1 0,-3 1,-4z"/>
   <path class="fil0" d="M804 202c2,-1 4,-1 6,1 1,2 0,4 -1,6 -2,1 -5,0 -6,-1 -1,-2 -1,-5 1,-6z"/>
   <path class="fil0" d="M776 204c2,-2 4,-1 5,1 2,1 1,4 0,5 -2,1 -5,1 -6,-1 -1,-2 -1,-4 1,-5z"/>
   <path class="fil0" d="M747 205c2,-2 6,-1 8,2 2,2 1,6 -1,8 -3,2 -7,1 -9,-1 -2,-3 -1,-7 2,-9z"/>
   <path class="fil0" d="M719 211c2,-2 6,-2 8,1 1,2 1,6 -2,7 -2,2 -5,2 -7,-1 -2,-2 -1,-5 1,-7z"/>
   <path class="fil0" d="M692 218c2,-1 5,-1 6,1 2,2 1,5 -1,6 -2,2 -4,1 -6,-1 -1,-2 -1,-5 1,-6z"/>
   <path class="fil0" d="M665 226c2,-1 5,-1 6,1 2,2 1,5 -1,6 -2,2 -4,2 -6,0 -1,-2 -1,-5 1,-7z"/>
   <path class="fil0" d="M639 236c2,-1 4,-1 6,1 1,2 1,5 -1,6 -2,2 -5,1 -6,-1 -2,-2 -1,-4 1,-6z"/>
   <path class="fil0" d="M613 248c2,-1 4,-1 5,1 2,1 1,4 0,5 -2,1 -4,1 -6,-1 -1,-1 0,-4 1,-5z"/>
   <path class="fil0" d="M588 261c2,-1 4,-1 5,1 1,1 1,4 -1,5 -1,1 -3,1 -5,-1 -1,-2 0,-4 1,-5z"/>
   <path class="fil0" d="M564 275c1,-1 4,-1 5,1 1,2 1,4 -1,5 -1,2 -4,1 -5,0 -1,-2 -1,-4 1,-6z"/>
   <path class="fil0" d="M540 291c2,-2 5,-1 6,1 1,1 1,4 -1,5 -2,2 -4,1 -6,0 -1,-2 -1,-5 1,-6z"/>
   <path class="fil0" d="M517 307c2,-2 6,-1 7,1 2,2 2,6 -1,8 -2,1 -5,1 -7,-2 -2,-2 -1,-5 1,-7z"/>
   <path class="fil0" d="M496 326c2,-2 5,-2 7,1 2,2 1,5 -1,7 -2,2 -6,1 -8,-1 -1,-2 -1,-6 2,-7z"/>
   <path class="fil0" d="M475 345c3,-2 6,-2 8,1 2,3 2,6 -1,8 -3,2 -6,2 -8,-1 -2,-3 -2,-6 1,-8z"/>
   <path class="fil0" d="M456 365c3,-2 7,-1 9,2 2,2 1,7 -2,9 -2,2 -7,1 -9,-2 -2,-3 -1,-7 2,-9z"/>
   <path class="fil0" d="M438 387c3,-2 7,-1 9,2 2,2 2,7 -1,9 -3,2 -7,1 -9,-2 -3,-3 -2,-7 1,-9z"/>
   <path class="fil0" d="M421 410c3,-3 8,-2 10,1 3,3 2,8 -1,10 -3,3 -8,2 -10,-1 -3,-3 -2,-8 1,-10z"/>
   <path class="fil0" d="M406 434c3,-2 8,-2 10,1 2,3 2,8 -1,10 -3,2 -8,2 -10,-1 -2,-3 -2,-8 1,-10z"/>
   <path class="fil0" d="M392 458c4,-3 9,-2 12,1 2,4 2,9 -2,12 -4,3 -9,2 -12,-2 -2,-3 -1,-9 2,-11z"/>
   <path class="fil0" d="M381 484c3,-2 8,-2 10,1 2,4 2,8 -2,11 -3,2 -7,1 -10,-2 -2,-3 -2,-8 2,-10z"/>
   <path class="fil0" d="M370 510c3,-3 8,-2 11,1 2,4 2,9 -2,11 -3,3 -8,2 -11,-1 -2,-4 -1,-9 2,-11z"/>
   <path class="fil0" d="M362 537c3,-2 7,-1 9,2 3,3 2,7 -1,10 -3,2 -8,1 -10,-2 -2,-3 -2,-7 2,-10z"/>
   <path class="fil0" d="M353 563c4,-2 10,-2 12,2 3,4 2,9 -1,12 -4,3 -9,2 -12,-2 -3,-3 -2,-9 1,-12z"/>
   <path class="fil0" d="M348 592c4,-3 9,-2 11,1 3,4 2,9 -1,11 -4,3 -9,2 -11,-1 -3,-4 -2,-9 1,-11z"/>
   <path class="fil0" d="M344 620c4,-3 9,-2 11,1 3,4 2,9 -1,11 -4,3 -9,2 -11,-1 -3,-4 -2,-9 1,-11z"/>
   <path class="fil0" d="M343 650c3,-2 6,-2 8,1 2,2 2,6 -1,8 -2,1 -6,1 -8,-2 -1,-2 -1,-6 1,-7z"/>
   <path class="fil0" d="M344 679c2,-2 4,-1 6,1 1,2 1,4 -1,6 -2,1 -5,1 -6,-1 -2,-2 -1,-5 1,-6z"/>
   <path class="fil0" d="M345 707c2,-2 5,-1 6,1 2,2 1,5 -1,6 -2,2 -5,2 -6,-1 -2,-2 -2,-5 1,-6z"/>
   <path class="fil0" d="M347 735c2,-2 6,-1 7,1 2,2 1,5 -1,7 -2,1 -5,1 -7,-1 -1,-3 -1,-6 1,-7z"/>
   <path class="fil0" d="M352 763c2,-1 5,-1 6,1 1,2 1,5 -1,6 -2,1 -4,1 -6,-1 -1,-2 -1,-4 1,-6z"/>
   <path class="fil0" d="M359 791c1,-1 3,0 5,1 1,2 0,4 -1,5 -2,1 -4,1 -5,-1 -1,-1 -1,-3 1,-5z"/>
   <path class="fil0" d="M367 819c1,-1 3,-1 4,1 1,1 1,3 -1,3 -1,1 -3,1 -3,0 -1,-1 -1,-3 0,-4z"/>
   <path class="fil0" d="M376 845c2,-1 4,-1 5,1 1,1 1,4 -1,5 -1,1 -3,0 -5,-1 -1,-2 0,-4 1,-5z"/>
   <path class="fil0" d="M388 872c1,-1 2,0 3,1 1,1 0,2 -1,3 -1,0 -2,0 -3,-1 0,-1 0,-2 1,-3z"/>
   <path class="fil0" d="M400 898c1,-1 3,-1 3,0 1,1 1,2 0,3 -1,1 -2,1 -3,0 -1,-1 -1,-3 0,-3z"/>
   <path class="fil0" d="M414 922c1,-1 3,-1 4,0 0,1 0,3 -1,4 -1,0 -2,0 -3,-1 -1,-1 -1,-2 0,-3z"/>
   <path class="fil0" d="M430 946c1,-1 2,-1 3,0 1,1 0,3 -1,3 -1,1 -2,1 -3,0 0,-1 0,-3 1,-3z"/>
   <path class="fil0" d="M447 969c1,-1 2,-1 3,0 0,1 0,2 -1,3 -1,0 -2,0 -3,-1 0,-1 0,-2 1,-2z"/>
   <path class="fil0" d="M465 991c1,-1 2,-1 2,0 1,1 1,2 0,2 -1,1 -2,0 -2,0 -1,-1 0,-2 0,-2z"/>
   <path class="fil0" d="M485 1011c0,-1 1,0 2,0 0,1 0,2 0,3 -1,0 -2,0 -3,-1 0,0 0,-2 1,-2z"/>
   <path class="fil0" d="M505 1030c1,0 2,0 2,1 1,0 1,1 0,2 -1,0 -2,0 -2,0 -1,-1 0,-2 0,-3z"/>
   <path class="fil0" d="M527 1048c1,0 2,0 2,1 1,0 1,1 0,2 -1,0 -2,0 -2,0 -1,-1 -1,-2 0,-3z"/>
   <path class="fil0" d="M550 1065c1,0 1,0 2,1 0,0 0,1 -1,1 0,1 -1,0 -1,0 0,-1 0,-1 0,-2z"/>
   <path class="fil0" d="M574 1081c0,-1 1,-1 1,0 1,0 1,1 0,2 0,0 -1,0 -2,-1 0,0 0,-1 1,-1z"/>
   <path class="fil0" d="M598 1094c1,-1 2,0 3,0 0,1 0,2 -1,3 -1,1 -2,0 -2,0 -1,-1 -1,-2 0,-3z"/>
   <path class="fil0" d="M624 1107c0,0 1,0 1,0 1,1 0,1 0,2 0,0 -1,0 -1,-1 -1,0 0,-1 0,-1z"/>
   <path class="fil0" d="M650 1118c0,0 1,0 1,0 1,1 1,1 0,1 0,1 -1,1 -1,0 0,0 0,-1 0,-1z"/>
   <polygon class="fil0" points="677,1128 678,1128 677,1128 677,1128 "/>
   <polygon class="fil0" points="704,1135 705,1135 705,1136 704,1136 "/>
   <polygon class="fil0" points="1186,333 1187,333 1187,334 1186,334 "/>
   <path class="fil0" d="M1166 313c1,-1 1,0 1,0 1,0 1,1 0,1 0,1 -1,0 -1,0 0,0 0,-1 0,-1z"/>
   <polygon class="fil0" points="1145,294 1146,294 1146,295 1145,295 "/>
   <path class="fil0" d="M1123 276c1,-1 1,-1 2,0 0,1 0,1 0,2 -1,0 -2,0 -2,0 -1,-1 -1,-2 0,-2z"/>
   <path class="fil0" d="M1099 258c1,0 3,0 4,1 1,1 0,2 -1,3 -1,1 -2,1 -3,0 -1,-1 -1,-3 0,-4z"/>
   <path class="fil0" d="M1075 242c1,-1 4,-1 5,1 1,2 1,4 -1,5 -1,1 -4,1 -5,-1 -1,-1 -1,-4 1,-5z"/>
   <path class="fil0" d="M1050 228c2,-1 4,-1 6,1 1,2 1,4 -1,6 -2,1 -5,1 -6,-1 -1,-2 -1,-5 1,-6z"/>
   <path class="fil0" d="M1024 214c2,-2 6,-1 8,1 2,3 1,7 -2,9 -2,1 -6,1 -8,-2 -2,-2 -1,-6 2,-8z"/>
   <path class="fil0" d="M1000 206c1,-1 2,-1 3,0 1,2 0,3 -1,4 -1,1 -2,0 -3,-1 -1,-1 -1,-2 1,-3z"/>
   <path class="fil0" d="M973 196c1,-1 3,0 4,1 0,1 0,3 -1,4 -1,1 -3,0 -4,-1 -1,-1 0,-3 1,-4z"/>
   <path class="fil0" d="M946 189c1,0 2,0 3,0 0,1 0,2 -1,3 0,0 -2,0 -2,-1 -1,0 0,-1 0,-2z"/>
   <path class="fil0" d="M918 182c1,-1 3,-1 4,0 1,2 1,3 -1,4 -1,1 -3,1 -3,0 -1,-2 -1,-3 0,-4z"/>
   <path class="fil0" d="M890 176c1,-1 4,-1 5,1 1,2 1,4 -1,5 -2,1 -4,1 -5,-1 -1,-1 -1,-4 1,-5z"/>
   <path class="fil0" d="M862 174c1,-1 3,-1 4,0 1,1 1,3 -1,4 -1,1 -2,0 -3,-1 -1,-1 -1,-3 0,-3z"/>
   <path class="fil0" d="M833 170c2,-2 5,-1 7,1 2,2 1,5 -1,7 -3,2 -6,1 -8,-1 -1,-2 -1,-6 2,-7z"/>
   <path class="fil0" d="M804 170c3,-2 6,-2 8,1 1,2 1,5 -1,7 -3,2 -6,1 -8,-1 -2,-2 -1,-6 1,-7z"/>
   <path class="fil0" d="M776 171c2,-2 6,-1 8,1 1,2 1,6 -2,7 -2,2 -5,2 -7,-1 -2,-2 -1,-5 1,-7z"/>
   <path class="fil0" d="M748 173c2,-2 6,-1 8,2 2,2 1,6 -1,8 -3,2 -7,1 -9,-1 -2,-3 -1,-7 2,-9z"/>
   <path class="fil0" d="M719 177c3,-3 8,-2 10,1 3,4 2,8 -1,11 -4,2 -8,1 -11,-2 -2,-3 -1,-8 2,-10z"/>
   <path class="fil0" d="M692 184c3,-2 7,-1 9,1 2,3 1,7 -2,9 -2,2 -6,1 -8,-2 -2,-2 -2,-6 1,-8z"/>
   <path class="fil0" d="M665 192c3,-2 6,-1 8,1 2,3 1,6 -1,8 -3,2 -6,1 -8,-1 -2,-3 -1,-6 1,-8z"/>
   <path class="fil0" d="M638 201c3,-2 7,-2 9,1 1,3 1,7 -2,8 -2,2 -6,2 -8,-1 -2,-2 -1,-6 1,-8z"/>
   <path class="fil0" d="M612 211c3,-2 7,-1 9,1 2,3 1,7 -2,10 -2,2 -7,1 -9,-2 -2,-3 -1,-7 2,-9z"/>
   <path class="fil0" d="M586 224c3,-2 7,-2 9,1 2,2 1,6 -1,8 -3,2 -7,2 -9,-1 -2,-3 -1,-6 1,-8z"/>
   <path class="fil0" d="M562 237c2,-2 6,-1 8,1 2,3 2,7 -1,9 -3,2 -7,1 -9,-1 -2,-3 -1,-7 2,-9z"/>
   <path class="fil0" d="M537 251c3,-2 8,-1 10,2 2,3 2,7 -2,9 -3,3 -7,2 -9,-1 -3,-3 -2,-7 1,-10z"/>
   <path class="fil0" d="M514 267c3,-2 7,-1 10,2 2,3 1,7 -2,10 -3,2 -7,1 -10,-2 -2,-3 -1,-7 2,-10z"/>
   <path class="fil0" d="M491 285c4,-3 8,-2 11,1 2,3 2,8 -2,10 -3,3 -8,2 -10,-1 -3,-3 -2,-8 1,-10z"/>
   <path class="fil0" d="M470 303c4,-2 8,-1 10,2 3,3 2,8 -1,10 -3,2 -8,2 -10,-1 -3,-4 -2,-8 1,-11z"/>
   <path class="fil0" d="M450 322c3,-2 8,-1 11,2 3,4 2,9 -2,12 -3,2 -8,2 -11,-2 -3,-4 -2,-9 2,-12z"/>
   <path class="fil0" d="M431 344c3,-3 8,-2 11,1 2,4 2,9 -2,11 -3,3 -8,2 -11,-1 -2,-4 -1,-9 2,-11z"/>
   <path class="fil0" d="M413 366c4,-3 9,-2 11,1 3,4 2,9 -1,11 -4,3 -9,2 -11,-1 -3,-4 -2,-9 1,-11z"/>
   <path class="fil0" d="M397 389c3,-3 8,-2 11,1 2,4 1,9 -2,11 -3,3 -8,2 -11,-2 -2,-3 -2,-8 2,-10z"/>
   <path class="fil0" d="M382 413c3,-3 8,-2 10,1 3,4 2,8 -1,11 -4,2 -8,2 -11,-2 -2,-3 -2,-8 2,-10z"/>
   <path class="fil0" d="M368 437c3,-3 8,-2 11,2 3,3 2,8 -2,11 -3,3 -8,2 -11,-2 -3,-3 -2,-8 2,-11z"/>
   <path class="fil0" d="M355 462c4,-2 9,-2 12,2 2,4 1,9 -2,11 -4,3 -9,2 -12,-1 -2,-4 -2,-9 2,-12z"/>
   <path class="fil0" d="M344 488c4,-3 9,-2 12,2 3,3 2,9 -2,12 -4,3 -9,2 -12,-2 -3,-4 -2,-9 2,-12z"/>
   <path class="fil0" d="M335 515c3,-2 8,-2 11,2 2,3 2,8 -2,11 -3,2 -8,1 -11,-2 -2,-3 -2,-8 2,-11z"/>
   <path class="fil0" d="M327 542c3,-3 8,-2 11,2 3,3 2,8 -2,11 -3,3 -8,2 -11,-2 -3,-3 -2,-8 2,-11z"/>
   <path class="fil0" d="M320 569c4,-3 9,-2 12,2 3,4 2,9 -2,12 -4,3 -9,2 -12,-2 -3,-4 -2,-9 2,-12z"/>
   <path class="fil0" d="M315 597c4,-3 9,-3 12,1 3,4 3,10 -1,13 -4,3 -10,2 -13,-2 -3,-4 -2,-9 2,-12z"/>
   <path class="fil0" d="M312 625c3,-3 9,-2 12,2 3,4 2,9 -2,12 -4,3 -9,2 -12,-2 -3,-4 -2,-9 2,-12z"/>
   <path class="fil0" d="M311 654c3,-2 8,-2 10,2 2,3 2,8 -2,10 -3,3 -7,2 -10,-1 -2,-4 -2,-8 2,-11z"/>
   <path class="fil0" d="M310 682c4,-2 8,-1 11,2 2,3 2,8 -2,10 -3,3 -8,2 -10,-1 -3,-4 -2,-8 1,-11z"/>
   <path class="fil0" d="M312 711c3,-3 8,-2 10,1 3,3 2,8 -1,10 -4,3 -8,2 -11,-1 -2,-3 -1,-8 2,-10z"/>
   <path class="fil0" d="M316 740c2,-1 6,-1 8,1 1,3 1,6 -2,8 -2,2 -5,1 -7,-1 -2,-3 -1,-6 1,-8z"/>
   <path class="fil0" d="M320 768c3,-2 7,-1 8,1 2,3 2,6 -1,8 -2,2 -6,2 -8,-1 -2,-3 -1,-6 1,-8z"/>
   <path class="fil0" d="M327 795c2,-1 6,-1 8,2 1,2 1,6 -2,8 -2,2 -6,1 -8,-1 -2,-3 -1,-7 2,-9z"/>
   <path class="fil0" d="M335 824c2,-2 5,-1 6,1 2,2 1,4 -1,6 -2,2 -5,1 -6,-1 -2,-2 -1,-5 1,-6z"/>
   <path class="fil0" d="M344 850c2,-2 5,-1 7,1 1,2 1,5 -1,7 -2,2 -6,1 -7,-1 -2,-2 -1,-5 1,-7z"/>
   <path class="fil0" d="M355 877c2,-1 4,-1 5,1 2,2 1,4 0,5 -2,1 -4,1 -6,-1 -1,-1 0,-4 1,-5z"/>
   <path class="fil0" d="M368 903c1,-1 3,-1 4,1 1,1 1,3 -1,4 -1,2 -3,1 -4,0 -1,-2 -1,-4 1,-5z"/>
   <path class="fil0" d="M381 928c1,-1 4,-1 5,0 1,2 1,4 -1,5 -1,1 -4,1 -5,0 -1,-2 -1,-4 1,-5z"/>
   <path class="fil0" d="M396 952c1,-1 3,-1 5,1 1,1 0,3 -1,4 -2,1 -4,1 -5,0 -1,-2 -1,-4 1,-5z"/>
   <path class="fil0" d="M412 975c2,-1 4,-1 5,1 1,1 1,3 -1,4 -1,2 -4,1 -5,0 -1,-2 0,-4 1,-5z"/>
   <path class="fil0" d="M430 998c1,-1 3,-1 4,0 1,1 0,3 -1,4 -1,1 -3,1 -4,-1 0,-1 0,-2 1,-3z"/>
   <path class="fil0" d="M449 1019c1,-1 3,-1 3,1 1,1 1,2 0,3 -1,1 -3,1 -4,0 -1,-2 0,-3 1,-4z"/>
   <path class="fil0" d="M469 1039c1,-1 2,-1 3,1 1,1 1,2 0,3 -1,1 -3,1 -4,0 -1,-1 -1,-3 1,-4z"/>
   <path class="fil0" d="M490 1059c1,-1 2,-1 3,0 0,1 0,2 -1,3 -1,0 -2,0 -2,-1 -1,-1 -1,-2 0,-2z"/>
   <path class="fil0" d="M512 1076c1,-1 2,-1 3,1 1,1 0,2 -1,3 -1,1 -2,0 -3,-1 -1,-1 0,-2 1,-3z"/>
   <path class="fil0" d="M535 1093c1,0 2,0 2,1 1,0 0,1 0,1 -1,1 -2,1 -2,0 -1,0 0,-1 0,-2z"/>
   <path class="fil0" d="M559 1109c1,-1 1,-1 2,0 0,0 0,1 -1,1 0,1 -1,1 -1,0 0,0 0,-1 0,-1z"/>
   <path class="fil0" d="M584 1122c0,0 1,0 2,1 0,0 0,1 -1,1 0,1 -1,1 -2,0 0,0 0,-1 1,-2z"/>
   <path class="fil0" d="M609 1135c1,-1 1,-1 2,0 0,1 0,1 0,2 -1,0 -2,0 -2,0 -1,-1 -1,-2 0,-2z"/>
   <polygon class="fil0" points="636,1146 636,1147 636,1147 636,1147 "/>
   <polygon class="fil0" points="662,1156 663,1156 663,1156 662,1156 "/>
   <path class="fil0" d="M1171 274c0,0 1,0 1,1 1,0 1,1 0,1 0,0 -1,0 -1,0 -1,-1 -1,-1 0,-2z"/>
   <path class="fil0" d="M1149 256c1,0 1,0 2,1 0,0 0,1 -1,1 0,0 -1,0 -1,0 0,-1 0,-1 0,-2z"/>
   <polygon class="fil0" points="1127,240 1128,240 1128,241 1127,241 "/>
   <polygon class="fil0" points="1103,224 1104,224 1104,225 1103,225 "/>
   <path class="fil0" d="M1077 207c2,-1 4,-1 5,1 2,2 1,4 0,5 -2,1 -4,1 -6,-1 -1,-1 0,-4 1,-5z"/>
   <path class="fil0" d="M1051 192c3,-2 6,-1 8,2 2,2 2,6 -1,8 -3,2 -6,1 -8,-1 -2,-3 -2,-7 1,-9z"/>
   <path class="fil0" d="M1026 181c2,-1 5,-1 7,1 1,3 1,6 -1,7 -3,2 -6,1 -7,-1 -2,-2 -1,-5 1,-7z"/>
   <path class="fil0" d="M1000 171c2,-2 5,-1 6,1 2,2 1,5 -1,7 -2,1 -5,1 -6,-1 -2,-2 -2,-5 1,-7z"/>
   <path class="fil0" d="M974 164c1,-1 3,-1 4,0 1,1 1,3 -1,4 -1,1 -3,1 -3,-1 -1,-1 -1,-2 0,-3z"/>
   <path class="fil0" d="M946 155c2,-2 4,-1 6,1 1,2 1,4 -1,6 -2,1 -5,1 -6,-1 -1,-2 -1,-5 1,-6z"/>
   <path class="fil0" d="M918 149c2,-2 5,-1 6,1 2,1 1,4 -1,5 -1,2 -4,1 -5,0 -2,-2 -1,-5 0,-6z"/>
   <path class="fil0" d="M891 144c1,-1 4,-1 5,1 2,2 1,4 0,6 -2,1 -5,1 -6,-1 -2,-2 -1,-5 1,-6z"/>
   <path class="fil0" d="M862 140c2,-2 5,-1 7,1 2,2 1,6 -1,7 -2,2 -6,2 -7,-1 -2,-2 -1,-5 1,-7z"/>
   <path class="fil0" d="M833 137c3,-2 7,-2 9,1 2,3 2,8 -1,10 -3,2 -7,2 -10,-1 -2,-3 -1,-8 2,-10z"/>
   <path class="fil0" d="M804 137c3,-2 8,-2 10,1 2,3 2,8 -1,10 -3,2 -8,1 -10,-2 -2,-3 -2,-7 1,-9z"/>
   <path class="fil0" d="M776 137c3,-2 8,-1 10,2 3,3 2,8 -1,11 -4,2 -8,2 -11,-2 -2,-3 -2,-8 2,-11z"/>
   <path class="fil0" d="M748 140c3,-2 8,-2 10,2 3,3 2,8 -1,11 -4,2 -9,1 -11,-2 -3,-4 -2,-8 2,-11z"/>
   <path class="fil0" d="M719 144c4,-3 9,-2 12,2 3,3 2,8 -2,11 -4,3 -9,2 -11,-2 -3,-3 -2,-8 1,-11z"/>
   <path class="fil0" d="M692 150c3,-3 8,-2 11,1 3,4 2,9 -2,12 -3,3 -8,2 -11,-2 -3,-3 -2,-9 2,-11z"/>
   <path class="fil0" d="M664 157c4,-3 9,-2 12,1 3,4 2,9 -2,12 -3,3 -9,2 -11,-2 -3,-3 -2,-9 1,-11z"/>
   <path class="fil0" d="M637 164c4,-3 10,-2 13,2 3,5 2,10 -2,14 -4,3 -10,2 -13,-2 -3,-5 -2,-10 2,-14z"/>
   <path class="fil0" d="M611 175c4,-3 9,-2 12,2 3,4 2,9 -2,12 -4,3 -9,2 -12,-2 -3,-4 -2,-9 2,-12z"/>
   <path class="fil0" d="M585 187c4,-3 9,-2 12,1 3,4 2,9 -2,12 -4,3 -9,2 -12,-2 -2,-3 -2,-9 2,-11z"/>
   <path class="fil0" d="M560 200c4,-2 8,-2 11,2 2,3 1,8 -2,10 -3,2 -8,2 -10,-2 -2,-3 -2,-7 1,-10z"/>
   <path class="fil0" d="M535 213c4,-2 9,-1 12,2 3,4 2,9 -2,12 -3,3 -9,2 -11,-2 -3,-4 -2,-9 1,-12z"/>
   <path class="fil0" d="M511 229c4,-3 10,-2 12,1 3,4 2,10 -1,12 -4,3 -10,2 -12,-1 -3,-4 -2,-10 1,-12z"/>
   <path class="fil0" d="M489 245c3,-3 9,-2 12,2 2,4 2,9 -2,12 -4,3 -9,2 -12,-2 -3,-4 -2,-9 2,-12z"/>
   <path class="fil0" d="M466 262c4,-3 10,-2 13,2 3,4 2,10 -2,13 -4,3 -10,2 -13,-2 -3,-4 -2,-10 2,-13z"/>
   <path class="fil0" d="M446 282c3,-2 8,-2 11,2 3,3 2,8 -2,11 -3,3 -8,2 -11,-2 -2,-3 -2,-8 2,-11z"/>
   <path class="fil0" d="M426 302c3,-2 8,-2 11,2 3,3 2,8 -2,11 -3,2 -8,2 -11,-2 -2,-3 -2,-8 2,-11z"/>
   <path class="fil0" d="M407 323c3,-3 9,-3 12,1 3,4 2,10 -2,13 -4,2 -9,2 -12,-2 -3,-4 -2,-10 2,-12z"/>
   <path class="fil0" d="M388 344c4,-4 11,-3 14,2 3,4 2,10 -2,13 -5,4 -11,3 -14,-2 -3,-4 -2,-10 2,-13z"/>
   <path class="fil0" d="M372 367c4,-3 10,-2 13,2 3,4 2,10 -2,13 -4,3 -10,2 -13,-2 -3,-4 -2,-10 2,-13z"/>
   <path class="fil0" d="M357 391c4,-3 9,-2 12,2 3,4 2,9 -2,12 -4,3 -9,2 -12,-2 -3,-4 -2,-9 2,-12z"/>
   <path class="fil0" d="M343 415c3,-3 9,-2 12,2 3,4 2,10 -2,13 -4,3 -9,2 -12,-2 -3,-4 -2,-10 2,-13z"/>
   <path class="fil0" d="M330 441c4,-3 9,-2 12,2 3,3 2,9 -2,12 -4,3 -9,2 -12,-2 -3,-4 -2,-9 2,-12z"/>
   <path class="fil0" d="M318 465c4,-3 10,-2 14,3 3,4 2,10 -2,14 -5,3 -11,2 -14,-2 -4,-5 -3,-11 2,-15z"/>
   <path class="fil0" d="M308 492c4,-3 10,-2 13,2 3,5 2,10 -2,14 -4,3 -10,2 -13,-2 -3,-5 -2,-11 2,-14z"/>
   <path class="fil0" d="M299 519c4,-3 10,-2 13,2 4,4 3,10 -2,13 -4,4 -10,3 -13,-2 -3,-4 -2,-10 2,-13z"/>
   <path class="fil0" d="M293 547c3,-2 9,-2 11,2 3,4 2,9 -1,12 -4,3 -9,2 -12,-2 -3,-4 -2,-9 2,-12z"/>
   <path class="fil0" d="M286 575c4,-3 10,-3 13,1 3,4 2,10 -2,13 -4,3 -9,2 -12,-2 -3,-4 -3,-9 1,-12z"/>
   <path class="fil0" d="M282 603c4,-3 10,-3 13,1 3,4 2,10 -2,13 -4,3 -10,2 -13,-2 -3,-4 -2,-10 2,-12z"/>
   <path class="fil0" d="M280 631c3,-2 9,-2 11,2 3,4 2,9 -1,11 -4,3 -9,2 -12,-1 -2,-4 -2,-9 2,-12z"/>
   <path class="fil0" d="M278 659c4,-3 10,-2 13,2 2,4 2,9 -2,12 -4,3 -10,2 -13,-2 -3,-4 -2,-9 2,-12z"/>
   <path class="fil0" d="M279 688c3,-2 8,-2 11,2 2,3 2,8 -2,11 -3,2 -8,1 -11,-2 -2,-4 -2,-8 2,-11z"/>
   <path class="fil0" d="M281 717c3,-2 7,-2 10,1 2,3 1,8 -2,10 -3,2 -7,2 -9,-1 -3,-3 -2,-8 1,-10z"/>
   <path class="fil0" d="M284 745c3,-2 8,-1 10,2 2,3 1,7 -2,9 -3,2 -7,2 -9,-1 -2,-3 -2,-8 1,-10z"/>
   <path class="fil0" d="M290 775c2,-2 5,-2 7,1 1,2 1,5 -1,6 -2,2 -5,1 -7,-1 -2,-2 -1,-5 1,-6z"/>
   <path class="fil0" d="M296 802c2,-2 5,-1 7,1 2,2 1,6 -1,7 -2,2 -5,2 -7,-1 -2,-2 -1,-5 1,-7z"/>
   <path class="fil0" d="M304 830c2,-1 4,-1 6,1 1,2 1,4 -1,5 -2,2 -4,1 -6,0 -1,-2 -1,-5 1,-6z"/>
   <path class="fil0" d="M314 857c1,-1 3,0 4,1 1,2 1,4 -1,5 -1,1 -3,0 -4,-1 -1,-1 -1,-3 1,-5z"/>
   <path class="fil0" d="M324 884c1,-1 3,0 4,1 1,1 1,3 -1,3 -1,1 -2,1 -3,0 -1,-1 -1,-3 0,-4z"/>
   <path class="fil0" d="M336 910c1,-1 3,-1 4,1 0,1 0,2 -1,3 -1,1 -3,1 -4,0 0,-1 0,-3 1,-4z"/>
   <path class="fil0" d="M348 934c2,-1 4,-1 6,1 1,2 0,4 -1,5 -2,1 -4,1 -5,-1 -2,-1 -1,-4 0,-5z"/>
   <path class="fil0" d="M363 959c1,-1 3,-1 4,1 1,1 1,3 0,4 -2,1 -3,1 -4,-1 -1,-1 -1,-3 0,-4z"/>
   <path class="fil0" d="M379 983c1,-1 3,-1 4,0 1,2 0,3 -1,4 -1,1 -3,1 -4,0 0,-2 0,-3 1,-4z"/>
   <path class="fil0" d="M396 1006c1,-1 3,-1 4,0 0,1 0,3 -1,4 -1,1 -3,1 -4,-1 -1,-1 0,-3 1,-3z"/>
   <path class="fil0" d="M414 1028c1,-1 3,-1 3,0 1,1 1,3 0,3 -1,1 -3,1 -3,0 -1,-1 -1,-3 0,-3z"/>
   <path class="fil0" d="M433 1048c1,-1 3,-1 4,0 1,2 1,4 -1,5 -1,1 -3,0 -4,-1 -1,-1 -1,-3 1,-4z"/>
   <path class="fil0" d="M453 1068c1,-1 3,-1 4,1 1,1 0,2 -1,3 -1,1 -2,0 -3,-1 -1,-1 -1,-2 0,-3z"/>
   <path class="fil0" d="M475 1087c1,0 2,0 2,1 1,0 1,1 0,2 -1,0 -2,0 -2,0 -1,-1 -1,-2 0,-3z"/>
   <path class="fil0" d="M497 1105c1,-1 2,-1 2,0 1,1 1,2 0,2 -1,1 -2,1 -2,0 -1,-1 0,-2 0,-2z"/>
   <path class="fil0" d="M520 1121c1,0 2,0 3,0 0,1 0,2 -1,3 0,0 -1,0 -2,-1 -1,0 0,-1 0,-2z"/>
   <polygon class="fil0" points="545,1137 546,1137 546,1138 545,1138 "/>
   <polygon class="fil0" points="1106,189 1107,189 1107,190 1106,190 "/>
   <polygon class="fil0" points="1081,175 1082,175 1082,176 1081,176 "/>
   <polygon class="fil0" points="1056,163 1057,163 1057,163 1056,163 "/>
   <path class="fil0" d="M1029 149c1,-1 3,0 4,1 1,1 1,3 -1,4 -1,1 -3,1 -4,0 -1,-2 -1,-4 1,-5z"/>
   <path class="fil0" d="M1003 141c1,0 1,0 2,0 0,1 0,2 0,2 -1,0 -2,0 -2,0 -1,-1 0,-2 0,-2z"/>
   <path class="fil0" d="M974 129c2,-2 6,-1 7,1 2,3 2,6 -1,8 -2,2 -6,1 -7,-1 -2,-3 -2,-6 1,-8z"/>
   <path class="fil0" d="M947 123c2,-2 5,-1 6,0 2,2 1,5 -1,7 -2,1 -4,1 -6,-1 -1,-2 -1,-5 1,-6z"/>
   <path class="fil0" d="M919 116c2,-2 6,-2 8,1 2,2 1,6 -2,8 -2,2 -6,1 -8,-1 -1,-3 -1,-6 2,-8z"/>
   <path class="fil0" d="M891 111c2,-2 6,-1 8,1 2,3 1,7 -1,8 -3,2 -7,2 -9,-1 -2,-2 -1,-6 2,-8z"/>
   <path class="fil0" d="M862 107c3,-2 7,-1 10,2 2,3 1,7 -2,9 -3,2 -7,2 -9,-1 -3,-3 -2,-8 1,-10z"/>
   <path class="fil0" d="M834 106c3,-2 7,-1 9,2 1,2 1,6 -2,8 -2,2 -6,1 -8,-1 -2,-3 -1,-7 1,-9z"/>
   <path class="fil0" d="M804 104c4,-3 10,-2 12,2 3,3 3,9 -1,12 -4,3 -9,2 -12,-2 -3,-4 -2,-9 1,-12z"/>
   <path class="fil0" d="M777 106c3,-2 8,-2 10,2 3,3 2,7 -1,10 -4,2 -8,1 -10,-2 -3,-3 -2,-7 1,-10z"/>
   <path class="fil0" d="M748 108c4,-3 9,-2 12,1 3,4 2,9 -2,12 -3,3 -9,2 -12,-2 -2,-3 -1,-8 2,-11z"/>
   <path class="fil0" d="M720 112c4,-3 9,-2 12,2 2,3 2,8 -2,11 -4,3 -9,2 -11,-2 -3,-3 -2,-8 1,-11z"/>
   <path class="fil0" d="M693 117c3,-3 8,-2 11,2 3,3 2,9 -2,11 -3,3 -8,2 -11,-1 -3,-4 -2,-9 2,-12z"/>
   <path class="fil0" d="M665 123c4,-3 9,-2 12,2 3,4 2,10 -2,13 -4,3 -9,2 -12,-2 -3,-4 -2,-10 2,-13z"/>
   <path class="fil0" d="M637 131c5,-3 10,-2 14,2 3,4 2,10 -2,13 -5,3 -10,2 -14,-2 -3,-4 -2,-10 2,-13z"/>
   <path class="fil0" d="M610 140c5,-3 11,-2 14,2 4,4 3,11 -2,14 -4,3 -10,2 -14,-2 -3,-5 -2,-11 2,-14z"/>
   <path class="fil0" d="M584 151c5,-4 11,-3 14,2 4,4 3,10 -2,14 -4,3 -11,2 -14,-2 -3,-5 -2,-11 2,-14z"/>
   <path class="fil0" d="M559 163c4,-3 10,-2 13,2 3,4 2,10 -2,13 -4,3 -10,2 -13,-2 -3,-4 -2,-10 2,-13z"/>
   <path class="fil0" d="M534 177c4,-3 10,-3 13,2 3,4 2,9 -2,12 -4,3 -10,3 -13,-2 -3,-4 -2,-9 2,-12z"/>
   <path class="fil0" d="M510 191c4,-3 10,-2 13,2 3,4 2,10 -2,13 -4,3 -10,2 -13,-2 -3,-4 -2,-10 2,-13z"/>
   <path class="fil0" d="M487 207c4,-3 9,-2 12,2 3,4 2,9 -2,12 -4,3 -9,3 -12,-1 -3,-4 -2,-10 2,-13z"/>
   <path class="fil0" d="M463 223c5,-3 11,-2 14,2 4,5 3,11 -2,14 -4,3 -10,2 -14,-2 -3,-4 -2,-11 2,-14z"/>
   <path class="fil0" d="M442 242c4,-3 10,-3 13,2 3,4 2,9 -2,12 -4,3 -10,3 -13,-1 -3,-5 -2,-10 2,-13z"/>
   <path class="fil0" d="M421 261c4,-3 10,-3 13,2 3,4 2,9 -2,12 -4,3 -10,3 -13,-1 -3,-5 -2,-10 2,-13z"/>
   <path class="fil0" d="M401 281c4,-3 10,-2 13,2 3,4 2,9 -2,12 -4,3 -10,2 -13,-2 -3,-4 -2,-9 2,-12z"/>
   <path class="fil0" d="M382 301c4,-3 10,-2 14,2 3,5 2,11 -2,14 -5,3 -11,2 -14,-2 -3,-4 -2,-11 2,-14z"/>
   <path class="fil0" d="M364 323c4,-3 11,-2 14,2 3,5 2,11 -2,14 -5,3 -11,2 -14,-2 -3,-5 -2,-11 2,-14z"/>
   <path class="fil0" d="M347 346c5,-3 11,-3 14,2 4,4 3,11 -2,14 -4,3 -10,2 -14,-2 -3,-5 -2,-11 2,-14z"/>
   <path class="fil0" d="M332 369c4,-3 10,-2 14,2 3,5 2,11 -2,14 -5,4 -11,3 -14,-2 -4,-4 -3,-10 2,-14z"/>
   <path class="fil0" d="M317 394c5,-4 11,-3 15,2 3,4 2,11 -3,14 -4,3 -10,2 -14,-2 -3,-5 -2,-11 2,-14z"/>
   <path class="fil0" d="M304 419c5,-3 11,-2 14,2 3,4 2,10 -2,13 -4,4 -10,3 -14,-2 -3,-4 -2,-10 2,-13z"/>
   <path class="fil0" d="M292 444c5,-3 11,-2 15,2 3,5 2,11 -3,15 -4,3 -10,2 -14,-3 -3,-4 -2,-10 2,-14z"/>
   <path class="fil0" d="M282 470c4,-3 11,-2 14,2 3,5 2,11 -2,15 -5,3 -11,2 -14,-2 -4,-5 -3,-11 2,-15z"/>
   <path class="fil0" d="M273 498c4,-4 10,-3 13,2 3,4 3,10 -2,13 -4,3 -10,2 -13,-2 -3,-4 -2,-10 2,-13z"/>
   <path class="fil0" d="M265 525c4,-3 10,-2 13,2 3,4 2,10 -2,13 -4,3 -10,2 -13,-2 -3,-4 -2,-10 2,-13z"/>
   <path class="fil0" d="M258 552c5,-3 11,-2 14,2 3,4 2,10 -2,14 -4,3 -10,2 -14,-2 -3,-5 -2,-11 2,-14z"/>
   <path class="fil0" d="M254 581c4,-3 9,-3 12,1 3,4 2,10 -2,13 -4,3 -9,2 -12,-2 -3,-4 -2,-10 2,-12z"/>
   <path class="fil0" d="M250 609c4,-3 9,-3 12,1 3,4 2,10 -2,13 -3,3 -9,2 -12,-2 -3,-4 -2,-10 2,-12z"/>
   <path class="fil0" d="M247 636c4,-3 10,-2 13,2 3,4 3,10 -2,13 -4,3 -10,3 -13,-2 -3,-4 -2,-10 2,-13z"/>
   <path class="fil0" d="M246 664c4,-3 10,-2 14,2 3,5 2,11 -2,14 -5,3 -11,2 -14,-2 -3,-4 -2,-11 2,-14z"/>
   <path class="fil0" d="M246 692c5,-3 11,-2 14,2 3,5 2,11 -2,14 -4,3 -10,2 -14,-2 -3,-4 -2,-10 2,-14z"/>
   <path class="fil0" d="M249 722c4,-3 9,-2 12,2 2,3 2,8 -2,11 -4,3 -9,2 -11,-2 -3,-3 -2,-8 1,-11z"/>
   <path class="fil0" d="M253 750c3,-2 8,-2 11,2 2,3 2,8 -2,11 -3,2 -8,2 -11,-2 -3,-3 -2,-8 2,-11z"/>
   <path class="fil0" d="M259 781c2,-2 5,-2 7,1 1,2 1,5 -1,6 -2,2 -5,1 -7,-1 -1,-2 -1,-5 1,-6z"/>
   <path class="fil0" d="M266 809c1,-2 4,-1 5,1 2,1 1,4 -1,5 -1,2 -4,1 -5,-1 -2,-1 -1,-4 1,-5z"/>
   <path class="fil0" d="M273 836c2,-1 4,-1 6,1 1,2 1,4 -1,6 -2,1 -5,1 -6,-1 -1,-2 -1,-5 1,-6z"/>
   <path class="fil0" d="M282 863c2,-1 4,-1 5,1 2,2 1,4 0,5 -2,2 -5,1 -6,0 -1,-2 -1,-5 1,-6z"/>
   <path class="fil0" d="M292 890c2,-2 4,-1 5,0 1,2 1,4 -1,5 -1,2 -3,1 -5,0 -1,-2 -1,-4 1,-5z"/>
   <path class="fil0" d="M304 916c1,-1 3,-1 4,0 1,2 1,4 0,5 -2,1 -4,1 -5,-1 -1,-1 -1,-3 1,-4z"/>
   <path class="fil0" d="M317 942c1,-1 2,-1 3,0 1,1 1,3 0,4 -1,0 -3,0 -4,-1 0,-1 0,-2 1,-3z"/>
   <path class="fil0" d="M331 966c1,-1 2,0 3,1 1,1 1,3 0,3 -1,1 -3,1 -4,0 -1,-1 -1,-3 1,-4z"/>
   <path class="fil0" d="M346 990c1,-1 2,0 3,1 1,1 1,2 0,3 -1,1 -3,1 -4,0 0,-1 0,-3 1,-4z"/>
   <path class="fil0" d="M362 1013c1,0 3,0 3,1 1,1 1,2 0,3 -1,1 -3,1 -3,0 -1,-1 -1,-3 0,-4z"/>
   <path class="fil0" d="M380 1036c1,-1 2,-1 3,0 0,1 0,3 -1,3 -1,1 -2,1 -3,0 -1,-1 0,-3 1,-3z"/>
   <path class="fil0" d="M398 1057c1,-1 3,0 3,1 1,1 1,2 0,3 -1,0 -3,0 -3,-1 -1,-1 -1,-2 0,-3z"/>
   <path class="fil0" d="M418 1078c1,-1 2,-1 3,0 0,1 0,2 -1,3 -1,0 -2,0 -3,-1 0,0 0,-2 1,-2z"/>
   <path class="fil0" d="M439 1098c0,0 1,0 1,0 1,1 1,1 0,1 0,1 -1,1 -1,0 -1,0 0,-1 0,-1z"/>
   <polygon class="fil0" points="483,1134 483,1134 483,1134 483,1134 "/>
   <polygon class="fil0" points="1058,129 1058,129 1058,129 1058,129 "/>
   <path class="fil0" d="M1005 108c0,0 1,0 1,0 1,1 1,2 0,2 -1,1 -1,0 -2,0 0,-1 0,-1 1,-2z"/>
   <polygon class="fil0" points="978,100 979,101 979,102 978,101 "/>
   <path class="fil0" d="M950 93c1,-1 2,-1 2,0 1,1 1,2 0,3 -1,0 -2,0 -3,-1 0,-1 0,-2 1,-2z"/>
   <path class="fil0" d="M922 87c1,-1 2,0 3,0 0,1 0,2 -1,3 -1,1 -2,0 -2,0 -1,-1 -1,-2 0,-3z"/>
   <path class="fil0" d="M893 81c2,-1 4,-1 5,1 1,2 1,4 -1,5 -1,1 -4,1 -5,-1 -1,-1 -1,-4 1,-5z"/>
   <path class="fil0" d="M864 77c2,-1 5,-1 7,1 2,2 1,6 -1,7 -2,2 -5,1 -7,-1 -1,-2 -1,-5 1,-7z"/>
   <path class="fil0" d="M836 76c2,-2 5,-2 7,1 1,2 1,5 -1,7 -2,1 -5,1 -7,-1 -2,-3 -1,-6 1,-7z"/>
   <path class="fil0" d="M806 74c4,-3 8,-2 10,1 3,3 2,8 -1,10 -3,2 -8,2 -10,-1 -2,-4 -2,-8 1,-10z"/>
   <path class="fil0" d="M778 75c3,-3 8,-2 10,1 3,3 2,8 -1,10 -3,3 -8,2 -10,-1 -3,-4 -2,-8 1,-10z"/>
   <path class="fil0" d="M750 77c3,-2 7,-1 10,2 2,3 1,7 -2,9 -3,2 -7,2 -9,-1 -2,-3 -2,-7 1,-10z"/>
   <path class="fil0" d="M722 81c3,-2 7,-2 10,1 2,3 1,8 -2,10 -3,2 -7,1 -9,-2 -2,-3 -2,-7 1,-9z"/>
   <path class="fil0" d="M694 85c3,-2 8,-1 10,2 3,3 2,8 -1,10 -3,3 -8,2 -11,-1 -2,-3 -1,-8 2,-11z"/>
   <path class="fil0" d="M667 92c3,-3 7,-2 10,1 2,4 2,8 -2,11 -3,2 -8,1 -10,-2 -2,-3 -2,-8 2,-10z"/>
   <path class="fil0" d="M638 98c4,-3 10,-2 13,2 3,4 2,10 -2,12 -4,3 -9,3 -12,-1 -3,-4 -3,-10 1,-13z"/>
   <path class="fil0" d="M612 107c4,-3 9,-2 12,2 3,4 2,9 -2,12 -4,3 -9,2 -12,-2 -3,-3 -2,-9 2,-12z"/>
   <path class="fil0" d="M585 117c4,-3 10,-2 13,2 3,4 2,10 -2,12 -4,3 -10,3 -13,-1 -3,-4 -2,-10 2,-13z"/>
   <path class="fil0" d="M559 129c4,-3 10,-3 13,1 3,4 2,10 -2,13 -4,3 -10,2 -12,-2 -3,-4 -3,-9 1,-12z"/>
   <path class="fil0" d="M534 141c4,-3 10,-2 13,2 3,4 2,10 -2,13 -4,3 -10,2 -13,-2 -3,-4 -2,-10 2,-13z"/>
   <path class="fil0" d="M509 154c4,-3 10,-2 14,2 3,5 2,11 -2,14 -5,3 -11,2 -14,-2 -3,-4 -2,-11 2,-14z"/>
   <path class="fil0" d="M484 168c5,-3 12,-2 15,3 4,4 3,11 -2,15 -5,3 -11,2 -15,-3 -4,-4 -3,-11 2,-15z"/>
   <path class="fil0" d="M461 184c5,-3 11,-2 15,3 4,4 3,11 -2,15 -5,3 -12,2 -15,-3 -4,-4 -3,-11 2,-15z"/>
   <path class="fil0" d="M439 202c4,-3 11,-2 14,2 3,5 2,11 -2,14 -4,4 -11,3 -14,-2 -3,-4 -2,-11 2,-14z"/>
   <path class="fil0" d="M419 222c3,-2 8,-2 10,2 3,3 2,8 -1,10 -4,3 -8,2 -11,-1 -2,-4 -2,-8 2,-11z"/>
   <path class="fil0" d="M397 241c4,-3 10,-2 12,1 3,4 2,10 -1,12 -4,3 -10,2 -12,-1 -3,-4 -2,-10 1,-12z"/>
   <path class="fil0" d="M376 259c5,-3 12,-2 15,2 4,5 3,12 -2,15 -5,3 -11,2 -15,-2 -3,-5 -2,-11 2,-15z"/>
   <path class="fil0" d="M358 280c4,-3 11,-2 14,2 4,5 3,12 -2,15 -5,3 -11,3 -15,-2 -3,-5 -2,-11 3,-15z"/>
   <path class="fil0" d="M340 302c4,-4 11,-3 15,2 3,5 2,12 -3,15 -4,4 -11,3 -15,-2 -3,-5 -2,-12 3,-15z"/>
   <path class="fil0" d="M323 325c5,-3 11,-2 14,2 3,5 2,11 -2,14 -4,3 -10,2 -14,-2 -3,-4 -2,-10 2,-14z"/>
   <path class="fil0" d="M307 349c5,-4 11,-3 15,2 3,4 2,11 -2,14 -5,3 -11,2 -15,-2 -3,-5 -2,-11 2,-14z"/>
   <path class="fil0" d="M293 373c4,-4 11,-3 14,2 4,4 3,11 -2,14 -4,4 -11,3 -14,-2 -4,-4 -3,-11 2,-14z"/>
   <path class="fil0" d="M279 398c5,-4 11,-3 15,2 3,4 2,11 -2,14 -5,3 -11,2 -15,-2 -3,-5 -2,-11 2,-14z"/>
   <path class="fil0" d="M267 423c5,-3 11,-2 14,2 4,5 3,11 -2,14 -4,4 -11,3 -14,-2 -3,-4 -2,-11 2,-14z"/>
   <path class="fil0" d="M256 449c5,-3 11,-2 14,2 3,5 2,11 -2,14 -4,3 -10,3 -14,-2 -3,-4 -2,-10 2,-14z"/>
   <path class="fil0" d="M246 476c5,-4 11,-3 15,2 3,4 2,11 -2,14 -5,3 -11,2 -15,-2 -3,-5 -2,-11 2,-14z"/>
   <path class="fil0" d="M238 503c4,-4 11,-3 14,2 3,4 2,11 -2,14 -4,3 -11,2 -14,-2 -3,-5 -2,-11 2,-14z"/>
   <path class="fil0" d="M231 530c4,-3 10,-2 14,2 3,5 2,11 -2,14 -5,3 -11,2 -14,-2 -4,-4 -3,-11 2,-14z"/>
   <path class="fil0" d="M225 558c4,-3 10,-3 14,2 3,4 2,10 -2,14 -5,3 -11,2 -14,-2 -3,-5 -2,-11 2,-14z"/>
   <path class="fil0" d="M220 585c5,-3 11,-2 14,3 4,4 3,10 -2,14 -4,3 -11,2 -14,-2 -3,-5 -2,-11 2,-15z"/>
   <path class="fil0" d="M217 614c4,-3 11,-3 14,2 3,4 2,10 -2,13 -5,4 -11,3 -14,-2 -3,-4 -2,-10 2,-13z"/>
   <path class="fil0" d="M215 642c4,-4 11,-3 14,2 3,4 2,11 -2,14 -5,3 -11,2 -14,-2 -3,-5 -3,-11 2,-14z"/>
   <path class="fil0" d="M214 670c5,-4 11,-3 15,2 3,4 2,11 -2,14 -5,4 -12,3 -15,-2 -4,-4 -3,-11 2,-14z"/>
   <path class="fil0" d="M215 698c5,-3 11,-2 14,2 3,5 2,11 -2,14 -4,3 -11,2 -14,-2 -3,-4 -2,-10 2,-14z"/>
   <path class="fil0" d="M219 729c3,-3 7,-2 10,1 2,3 2,8 -2,10 -3,3 -7,2 -10,-1 -2,-3 -1,-8 2,-10z"/>
   <path class="fil0" d="M223 758c3,-2 6,-1 8,1 2,3 1,6 -1,8 -3,2 -6,2 -8,-1 -2,-3 -2,-6 1,-8z"/>
   <path class="fil0" d="M228 786c2,-2 6,-2 8,1 2,2 1,6 -1,8 -3,2 -7,1 -9,-1 -1,-3 -1,-6 2,-8z"/>
   <path class="fil0" d="M235 815c1,-2 4,-1 5,1 2,1 1,4 0,5 -2,2 -5,1 -6,-1 -2,-1 -1,-4 1,-5z"/>
   <path class="fil0" d="M242 842c2,-1 4,-1 6,1 1,2 1,4 -1,5 -2,2 -5,1 -6,0 -1,-2 -1,-5 1,-6z"/>
   <path class="fil0" d="M251 869c1,-1 4,-1 5,1 1,2 1,4 -1,5 -2,1 -4,1 -5,-1 -1,-1 -1,-4 1,-5z"/>
   <path class="fil0" d="M260 895c2,-1 5,0 6,1 1,2 1,5 -1,6 -2,1 -4,1 -5,-1 -2,-2 -1,-4 0,-6z"/>
   <path class="fil0" d="M272 922c1,-1 4,-1 5,0 1,2 1,4 -1,6 -2,1 -4,0 -5,-1 -1,-2 -1,-4 1,-5z"/>
   <path class="fil0" d="M284 947c2,-1 4,-1 5,1 1,2 1,4 -1,5 -1,1 -4,1 -5,-1 -1,-1 -1,-4 1,-5z"/>
   <path class="fil0" d="M298 972c1,-1 3,-1 4,1 1,1 1,4 0,5 -2,1 -4,0 -5,-1 -1,-2 -1,-4 1,-5z"/>
   <path class="fil0" d="M312 996c2,-1 4,0 5,1 1,2 1,4 -1,5 -1,1 -3,1 -4,-1 -2,-1 -1,-3 0,-5z"/>
   <path class="fil0" d="M329 1021c1,-1 2,-1 3,0 0,1 0,3 -1,3 -1,1 -2,1 -3,0 0,-1 0,-2 1,-3z"/>
   <path class="fil0" d="M346 1044c1,-1 2,-1 2,0 1,1 1,2 0,3 -1,0 -2,0 -3,-1 0,0 0,-2 1,-2z"/>
   <path class="fil0" d="M364 1066c1,0 1,0 2,1 0,0 0,1 -1,1 0,0 -1,0 -1,0 0,-1 0,-1 0,-2z"/>
   <polygon class="fil0" points="383,1088 384,1088 384,1088 383,1088 "/>
   <polygon class="fil0" points="924,56 925,56 925,57 924,57 "/>
   <path class="fil0" d="M867 48c1,0 2,0 3,1 0,0 0,2 -1,2 -1,1 -2,0 -2,0 -1,-1 -1,-2 0,-3z"/>
   <path class="fil0" d="M838 46c2,-1 3,-1 4,0 1,2 1,3 0,4 -2,1 -3,1 -4,0 -1,-1 -1,-3 0,-4z"/>
   <path class="fil0" d="M811 47c1,0 1,0 2,0 0,1 0,1 -1,2 0,0 -1,0 -1,-1 0,0 0,-1 0,-1z"/>
   <path class="fil0" d="M781 45c2,-1 4,-1 6,1 1,2 1,5 -1,6 -2,1 -4,1 -6,-1 -1,-2 -1,-4 1,-6z"/>
   <path class="fil0" d="M752 46c2,-2 6,-1 8,1 2,3 1,7 -1,9 -3,2 -6,1 -8,-2 -2,-2 -2,-6 1,-8z"/>
   <path class="fil0" d="M724 50c2,-2 6,-1 8,1 1,3 1,6 -1,8 -3,2 -6,1 -8,-1 -2,-3 -1,-6 1,-8z"/>
   <path class="fil0" d="M695 53c3,-2 8,-2 10,2 3,3 2,8 -1,10 -3,3 -8,2 -11,-1 -2,-4 -1,-8 2,-11z"/>
   <path class="fil0" d="M668 60c3,-2 7,-2 9,1 2,3 2,7 -1,9 -3,3 -7,2 -9,-1 -3,-3 -2,-7 1,-9z"/>
   <path class="fil0" d="M640 66c3,-2 8,-2 11,2 2,3 1,8 -2,10 -3,3 -8,2 -11,-1 -2,-4 -1,-8 2,-11z"/>
   <path class="fil0" d="M613 74c3,-2 8,-2 11,2 3,3 2,8 -2,11 -3,3 -8,2 -11,-2 -2,-3 -2,-8 2,-11z"/>
   <path class="fil0" d="M586 84c4,-3 9,-2 11,2 3,3 2,8 -1,11 -4,2 -9,1 -11,-2 -3,-4 -2,-8 1,-11z"/>
   <path class="fil0" d="M560 94c4,-3 9,-2 12,2 2,4 2,9 -2,12 -4,3 -9,2 -12,-2 -3,-4 -2,-9 2,-12z"/>
   <path class="fil0" d="M535 107c3,-3 8,-2 10,1 3,4 2,9 -1,11 -4,3 -8,2 -11,-1 -2,-4 -2,-9 2,-11z"/>
   <path class="fil0" d="M509 119c4,-3 9,-2 12,2 3,4 3,9 -1,12 -4,3 -10,2 -13,-2 -3,-3 -2,-9 2,-12z"/>
   <path class="fil0" d="M484 133c4,-3 10,-2 13,2 3,4 2,10 -2,13 -4,3 -9,2 -12,-2 -3,-4 -3,-10 1,-13z"/>
   <path class="fil0" d="M460 148c5,-3 11,-2 14,2 3,4 2,10 -2,13 -5,3 -10,3 -14,-2 -3,-4 -2,-10 2,-13z"/>
   <path class="fil0" d="M437 164c5,-3 10,-2 14,2 3,4 2,10 -2,14 -5,3 -11,2 -14,-2 -3,-5 -2,-11 2,-14z"/>
   <path class="fil0" d="M416 182c3,-2 9,-2 12,2 2,4 2,9 -2,12 -4,3 -9,2 -12,-2 -3,-3 -2,-9 2,-12z"/>
   <path class="fil0" d="M393 200c5,-3 11,-2 14,2 3,4 2,10 -2,13 -4,4 -10,3 -14,-2 -3,-4 -2,-10 2,-13z"/>
   <path class="fil0" d="M374 220c3,-2 8,-2 11,2 3,4 2,9 -2,11 -3,3 -8,2 -11,-1 -3,-4 -2,-9 2,-12z"/>
   <path class="fil0" d="M353 239c4,-4 11,-3 14,2 4,5 3,11 -2,14 -5,4 -11,3 -15,-2 -3,-4 -2,-11 3,-14z"/>
   <path class="fil0" d="M333 259c5,-4 12,-3 16,2 4,5 3,13 -2,17 -5,3 -13,2 -16,-3 -4,-5 -3,-12 2,-16z"/>
   <path class="fil0" d="M315 281c5,-3 12,-2 16,2 4,5 2,12 -2,16 -5,3 -12,2 -16,-2 -3,-5 -2,-12 2,-16z"/>
   <path class="fil0" d="M299 304c4,-4 11,-3 15,2 4,5 3,12 -2,16 -5,3 -12,2 -16,-3 -3,-5 -2,-12 3,-15z"/>
   <path class="fil0" d="M284 329c4,-4 10,-3 13,1 3,5 2,11 -2,14 -4,3 -10,2 -13,-2 -3,-4 -2,-10 2,-13z"/>
   <path class="fil0" d="M268 351c5,-3 12,-2 15,3 4,5 3,11 -2,15 -5,4 -12,2 -15,-2 -4,-5 -3,-12 2,-16z"/>
   <path class="fil0" d="M255 377c4,-4 11,-3 14,2 4,4 3,11 -2,14 -5,4 -11,3 -14,-2 -4,-5 -3,-11 2,-14z"/>
   <path class="fil0" d="M243 403c4,-3 10,-2 13,2 3,4 2,10 -2,13 -4,3 -10,2 -13,-2 -3,-4 -2,-10 2,-13z"/>
   <path class="fil0" d="M231 429c5,-3 10,-2 13,2 3,4 2,9 -2,12 -4,3 -9,3 -12,-2 -3,-4 -3,-9 1,-12z"/>
   <path class="fil0" d="M221 454c4,-3 10,-2 14,3 3,4 2,10 -2,13 -5,4 -11,3 -14,-2 -3,-4 -3,-10 2,-14z"/>
   <path class="fil0" d="M212 481c4,-3 10,-2 14,2 3,5 2,11 -2,14 -5,4 -11,3 -15,-2 -3,-4 -2,-11 3,-14z"/>
   <path class="fil0" d="M204 508c4,-3 11,-2 14,2 4,5 3,11 -2,15 -5,3 -11,2 -15,-3 -3,-4 -2,-11 3,-14z"/>
   <path class="fil0" d="M197 535c5,-3 11,-2 14,3 4,4 3,11 -2,14 -4,4 -11,3 -14,-2 -4,-5 -3,-11 2,-15z"/>
   <path class="fil0" d="M191 563c5,-4 12,-3 15,2 4,5 3,12 -2,15 -5,4 -11,3 -15,-2 -3,-5 -2,-12 2,-15z"/>
   <path class="fil0" d="M188 591c4,-3 11,-2 14,2 3,5 2,11 -2,15 -5,3 -11,2 -15,-2 -3,-5 -2,-11 3,-15z"/>
   <path class="fil0" d="M185 619c4,-3 11,-2 14,2 3,5 2,11 -2,15 -5,3 -11,2 -14,-2 -4,-5 -3,-11 2,-15z"/>
   <path class="fil0" d="M183 648c5,-4 11,-3 14,2 4,4 3,11 -2,14 -4,3 -11,2 -14,-2 -3,-5 -2,-11 2,-14z"/>
   <path class="fil0" d="M183 676c4,-4 11,-3 14,2 4,4 3,11 -2,14 -5,4 -11,3 -15,-2 -3,-4 -2,-11 3,-14z"/>
   <path class="fil0" d="M185 706c4,-2 8,-1 11,2 2,3 2,8 -2,10 -3,3 -8,2 -10,-1 -3,-4 -2,-8 1,-11z"/>
   <path class="fil0" d="M188 734c3,-2 8,-1 10,2 2,3 2,8 -2,10 -3,3 -8,2 -10,-1 -2,-3 -2,-8 2,-11z"/>
   <path class="fil0" d="M192 763c2,-2 7,-1 9,2 2,2 1,7 -2,9 -3,2 -7,1 -9,-2 -2,-3 -1,-7 2,-9z"/>
   <path class="fil0" d="M197 791c2,-2 6,-1 8,2 2,2 1,6 -1,8 -3,2 -7,2 -9,-1 -2,-3 -1,-7 2,-9z"/>
   <path class="fil0" d="M203 820c2,-2 6,-1 7,1 2,2 1,5 -1,7 -2,2 -5,1 -7,-1 -2,-2 -1,-5 1,-7z"/>
   <path class="fil0" d="M210 847c3,-2 6,-1 8,1 1,2 1,6 -2,7 -2,2 -5,2 -7,-1 -2,-2 -1,-5 1,-7z"/>
   <path class="fil0" d="M219 874c2,-2 5,-1 7,1 2,2 1,6 -1,7 -2,2 -6,2 -7,-1 -2,-2 -2,-5 1,-7z"/>
   <path class="fil0" d="M231 904c0,-1 1,-1 1,0 1,1 1,1 0,2 0,0 -1,0 -2,0 0,-1 0,-2 1,-2z"/>
   <path class="fil0" d="M241 929c1,0 2,0 3,1 0,1 0,2 -1,2 -1,1 -2,1 -2,0 -1,-1 -1,-2 0,-3z"/>
   <path class="fil0" d="M253 956c1,-1 2,-1 2,0 1,0 0,1 0,2 -1,0 -1,0 -2,-1 0,0 0,-1 0,-1z"/>
   <path class="fil0" d="M267 981c0,-1 1,0 1,0 0,0 0,1 0,1 -1,1 -1,1 -2,0 0,0 0,-1 1,-1z"/>
   <polygon class="fil0" points="281,1005 282,1006 282,1006 281,1006 "/>
   <polygon class="fil0" points="297,1029 297,1030 297,1030 296,1030 "/>
   <path class="fil0" d="M812 15c1,0 1,0 2,1 0,0 0,1 -1,1 0,0 -1,0 -1,0 0,-1 0,-1 0,-2z"/>
   <path class="fil0" d="M783 16c1,-1 2,-1 3,0 1,1 1,2 0,3 -1,0 -2,0 -3,-1 -1,-1 0,-2 0,-2z"/>
   <path class="fil0" d="M755 18c1,-1 2,-1 3,0 1,1 0,2 0,3 -1,0 -2,0 -3,-1 -1,-1 -1,-2 0,-2z"/>
   <path class="fil0" d="M727 21c1,0 2,0 3,0 0,1 0,2 -1,3 0,0 -1,0 -2,-1 -1,0 0,-1 0,-2z"/>
   <path class="fil0" d="M698 23c2,-2 5,-1 6,1 2,2 1,5 -1,7 -2,1 -5,1 -6,-1 -2,-2 -2,-5 1,-7z"/>
   <path class="fil0" d="M672 31c1,0 1,0 2,1 1,0 0,1 0,2 -1,0 -2,0 -3,-1 0,0 0,-1 1,-2z"/>
   <path class="fil0" d="M642 35c3,-1 6,-1 7,1 2,3 1,6 -1,7 -2,2 -5,1 -7,-1 -1,-2 -1,-5 1,-7z"/>
   <path class="fil0" d="M615 43c2,-1 6,-1 7,1 2,3 1,6 -1,7 -2,2 -5,1 -7,-1 -1,-2 -1,-5 1,-7z"/>
   <polygon class="fil0" points="591,56 592,56 592,57 591,57 "/>
   <path class="fil0" d="M564 65c1,-1 2,-1 3,0 1,1 1,3 0,4 -1,1 -3,0 -4,-1 -1,-1 -1,-3 1,-3z"/>
   <path class="fil0" d="M536 74c3,-2 6,-1 8,1 1,2 1,6 -2,7 -2,2 -5,2 -7,-1 -2,-2 -1,-5 1,-7z"/>
   <path class="fil0" d="M510 85c3,-3 7,-2 10,1 2,3 2,8 -2,11 -3,2 -8,1 -10,-2 -2,-3 -2,-8 2,-10z"/>
   <path class="fil0" d="M484 97c4,-3 10,-3 13,2 3,4 2,10 -2,13 -4,3 -10,2 -13,-2 -3,-4 -3,-10 2,-13z"/>
   <path class="fil0" d="M459 111c5,-3 10,-2 14,2 3,4 2,10 -2,13 -5,3 -11,3 -14,-2 -3,-4 -2,-10 2,-13z"/>
   <path class="fil0" d="M436 127c4,-3 10,-2 13,2 2,4 2,10 -2,12 -4,3 -10,3 -13,-1 -3,-4 -2,-10 2,-13z"/>
   <path class="fil0" d="M413 144c4,-3 10,-2 13,2 3,4 2,9 -2,12 -4,3 -10,2 -13,-2 -3,-4 -2,-9 2,-12z"/>
   <path class="fil0" d="M391 161c4,-4 10,-3 13,2 3,4 3,10 -2,13 -4,4 -10,3 -13,-2 -4,-4 -3,-10 2,-13z"/>
   <path class="fil0" d="M369 179c4,-4 11,-3 14,2 4,4 3,11 -2,14 -4,4 -11,3 -14,-2 -4,-4 -3,-11 2,-14z"/>
   <path class="fil0" d="M349 198c4,-3 10,-2 14,2 3,5 2,11 -3,14 -4,4 -10,3 -13,-2 -4,-4 -3,-10 2,-14z"/>
   <path class="fil0" d="M329 219c4,-3 10,-2 14,2 3,4 2,10 -2,13 -5,4 -11,3 -14,-2 -3,-4 -2,-10 2,-13z"/>
   <path class="fil0" d="M310 239c4,-3 11,-2 15,2 3,5 2,12 -3,15 -4,4 -11,3 -15,-2 -3,-5 -2,-11 3,-15z"/>
   <path class="fil0" d="M292 261c4,-3 11,-2 15,2 3,5 2,12 -3,15 -4,4 -11,3 -14,-2 -4,-5 -3,-11 2,-15z"/>
   <path class="fil0" d="M275 284c5,-3 11,-2 14,2 3,5 3,11 -2,14 -4,3 -11,3 -14,-2 -3,-4 -2,-11 2,-14z"/>
   <path class="fil0" d="M259 307c5,-3 11,-2 14,3 3,4 3,10 -2,13 -4,4 -11,3 -14,-2 -3,-4 -2,-10 2,-14z"/>
   <path class="fil0" d="M244 331c5,-4 11,-3 15,2 3,5 2,12 -2,15 -5,4 -12,3 -15,-2 -4,-5 -3,-12 2,-15z"/>
   <path class="fil0" d="M230 356c5,-3 11,-3 14,2 4,4 3,11 -2,14 -4,4 -10,3 -14,-2 -3,-4 -2,-11 2,-14z"/>
   <path class="fil0" d="M217 381c5,-4 11,-3 15,2 3,5 2,11 -2,15 -5,3 -12,2 -15,-3 -3,-4 -2,-11 2,-14z"/>
   <path class="fil0" d="M205 406c5,-3 12,-2 15,3 4,4 3,11 -2,14 -5,4 -11,3 -15,-2 -3,-4 -2,-11 2,-15z"/>
   <path class="fil0" d="M195 432c4,-3 11,-2 15,3 3,4 2,11 -2,15 -5,3 -12,2 -16,-2 -3,-5 -2,-12 3,-16z"/>
   <path class="fil0" d="M185 459c5,-4 12,-3 15,2 4,5 3,12 -2,15 -5,4 -12,3 -15,-2 -4,-5 -3,-12 2,-15z"/>
   <path class="fil0" d="M177 486c4,-4 11,-3 15,2 4,5 3,12 -2,15 -5,4 -12,3 -16,-2 -3,-5 -2,-12 3,-15z"/>
   <path class="fil0" d="M170 514c4,-3 10,-2 13,2 4,4 3,10 -2,14 -4,3 -10,2 -13,-2 -3,-5 -2,-11 2,-14z"/>
   <path class="fil0" d="M164 541c4,-3 11,-2 14,2 3,5 2,11 -2,15 -5,3 -11,2 -14,-2 -4,-5 -3,-11 2,-15z"/>
   <path class="fil0" d="M159 569c4,-4 11,-3 15,2 3,5 2,11 -3,15 -4,3 -11,2 -15,-2 -3,-5 -2,-12 3,-15z"/>
   <path class="fil0" d="M156 599c4,-3 9,-2 12,2 3,3 2,8 -2,11 -3,3 -9,2 -11,-2 -3,-3 -2,-8 1,-11z"/>
   <path class="fil0" d="M153 625c4,-3 11,-2 14,2 3,5 2,11 -2,15 -5,3 -11,2 -14,-2 -4,-5 -3,-11 2,-15z"/>
   <path class="fil0" d="M153 655c3,-3 8,-2 11,2 3,3 2,9 -2,11 -3,3 -8,2 -11,-1 -3,-4 -2,-9 2,-12z"/>
   <path class="fil0" d="M153 683c3,-2 8,-2 11,2 3,4 2,9 -2,12 -3,2 -8,2 -11,-2 -3,-4 -2,-9 2,-12z"/>
   <path class="fil0" d="M156 715c2,-1 5,-1 6,1 1,2 1,4 -1,6 -2,1 -4,0 -6,-1 -1,-2 -1,-5 1,-6z"/>
   <path class="fil0" d="M157 741c3,-2 7,-1 9,2 2,2 2,6 -1,8 -3,3 -7,2 -9,-1 -2,-3 -2,-7 1,-9z"/>
   <path class="fil0" d="M163 773c1,-1 2,-1 3,0 1,1 0,2 0,3 -1,1 -2,0 -3,0 -1,-1 0,-2 0,-3z"/>
   <path class="fil0" d="M167 799c2,-1 4,-1 5,1 2,2 1,4 0,5 -2,2 -5,1 -6,0 -1,-2 -1,-5 1,-6z"/>
   <polygon class="fil0" points="175,830 175,830 175,830 175,830 "/>
   <polygon class="fil0" points="182,857 183,857 182,858 182,857 "/>
   <polygon class="fil0" points="190,884 191,884 191,885 190,885 "/>
   <path class="fil0" d="M199 910c1,-1 2,-1 2,0 1,1 0,2 0,2 -1,0 -2,0 -2,0 -1,-1 0,-2 0,-2z"/>
   <polygon class="fil0" points="674,0 674,0 674,0 674,0 "/>
   <polygon class="fil0" points="619,14 619,14 619,14 619,14 "/>
   <polygon class="fil0" points="592,22 593,22 592,23 592,23 "/>
   <polygon class="fil0" points="489,68 489,68 489,69 488,68 "/>
   <polygon class="fil0" points="464,82 464,82 464,82 464,82 "/>
   <path class="fil0" d="M440 96c0,0 1,0 1,1 0,0 0,1 0,1 -1,0 -1,0 -2,0 0,-1 0,-1 1,-2z"/>
   <path class="fil0" d="M415 110c1,-1 3,0 4,1 2,2 1,4 0,5 -2,1 -4,0 -5,-1 -1,-1 -1,-3 1,-5z"/>
   <path class="fil0" d="M392 127c2,-1 4,0 5,1 1,1 1,3 -1,5 -1,1 -3,0 -4,-1 -1,-2 -1,-4 0,-5z"/>
   <path class="fil0" d="M371 146c1,-1 2,-1 3,0 1,1 1,3 0,4 -1,1 -3,0 -4,-1 -1,-1 -1,-3 1,-3z"/>
   <path class="fil0" d="M349 164c2,-1 3,0 4,1 1,1 1,3 0,3 -2,1 -3,1 -4,0 -1,-1 -1,-3 0,-4z"/>
   <path class="fil0" d="M329 183c1,0 3,0 4,1 1,1 1,3 -1,4 -1,1 -3,1 -4,0 -1,-2 -1,-4 1,-5z"/>
   <path class="fil0" d="M309 203c1,-1 4,-1 5,1 1,2 1,4 -1,5 -2,1 -4,1 -5,-1 -1,-1 -1,-4 1,-5z"/>
   <path class="fil0" d="M289 223c2,-1 5,-1 7,1 2,2 1,6 -1,7 -2,2 -5,1 -7,-1 -2,-2 -1,-5 1,-7z"/>
   <path class="fil0" d="M272 246c2,-1 4,0 5,1 1,2 1,4 -1,5 -1,1 -3,1 -5,-1 -1,-1 0,-4 1,-5z"/>
   <path class="fil0" d="M251 263c4,-4 11,-3 15,2 3,5 2,12 -2,15 -5,4 -12,3 -16,-2 -3,-5 -2,-12 3,-15z"/>
   <path class="fil0" d="M236 288c4,-2 9,-2 12,2 2,4 2,9 -2,12 -4,2 -9,1 -12,-2 -2,-4 -2,-9 2,-12z"/>
   <path class="fil0" d="M224 316c1,-2 4,-1 5,0 1,2 1,5 -1,6 -1,1 -4,1 -5,-1 -2,-2 -1,-4 1,-5z"/>
   <path class="fil0" d="M205 334c5,-3 12,-2 16,3 3,4 2,12 -3,15 -4,4 -11,3 -15,-2 -4,-5 -3,-12 2,-16z"/>
   <path class="fil0" d="M193 361c4,-3 10,-2 13,2 3,4 2,10 -2,13 -4,3 -10,2 -13,-2 -3,-4 -2,-10 2,-13z"/>
   <path class="fil0" d="M185 391c1,-1 3,0 4,1 1,1 1,3 -1,4 -1,1 -3,1 -4,0 -1,-2 -1,-4 1,-5z"/>
   <path class="fil0" d="M172 415c3,-2 6,-1 8,1 2,3 2,6 -1,8 -3,2 -6,2 -8,-1 -2,-2 -1,-6 1,-8z"/>
   <path class="fil0" d="M165 445c0,0 1,0 2,0 0,1 0,2 -1,2 0,1 -1,1 -2,0 0,-1 0,-1 1,-2z"/>
   <path class="fil0" d="M151 465c4,-3 10,-2 13,2 4,5 3,11 -2,14 -4,3 -10,2 -13,-2 -3,-4 -2,-11 2,-14z"/>
   <path class="fil0" d="M146 496c2,-2 6,-2 7,1 2,2 2,6 -1,8 -2,1 -6,1 -8,-1 -1,-3 -1,-6 2,-8z"/>
   <path class="fil0" d="M138 523c3,-3 7,-2 9,1 2,3 2,7 -1,9 -3,2 -7,1 -9,-2 -2,-2 -1,-6 1,-8z"/>
   <path class="fil0" d="M131 548c4,-3 10,-2 13,2 3,4 2,10 -2,13 -4,3 -10,2 -13,-2 -3,-4 -2,-10 2,-13z"/>
   <path class="fil0" d="M131 581c1,0 2,0 3,1 1,1 1,2 0,3 -1,1 -3,1 -4,0 0,-1 0,-3 1,-4z"/>
   <polygon class="fil0" points="129,611 130,611 129,612 128,612 "/>
   <path class="fil0" d="M125 637c1,-2 4,-1 5,0 1,2 1,4 -1,5 -2,2 -4,1 -5,0 -1,-2 -1,-4 1,-5z"/>
   <polygon class="fil0" points="126,668 126,668 126,668 126,668 "/>
   <path class="fil0" d="M126 695c0,0 1,0 1,0 0,1 0,1 0,2 -1,0 -1,0 -2,0 0,-1 0,-1 1,-2z"/>
   <polygon class="fil0" points="127,724 128,724 128,724 127,724 "/>
   <polygon class="fil0" points="130,752 130,752 130,753 130,753 "/>
   <polygon class="fil0" points="144,836 144,836 144,836 144,836 "/>
   <path class="fil0" d="M233 250c0,0 1,0 1,1 0,0 0,1 0,1 -1,0 -1,0 -2,0 0,-1 0,-1 1,-2z"/>
   <polygon class="fil0" points="217,274 217,274 217,275 217,274 "/>
   <polygon class="fil0" points="202,298 202,298 202,298 202,298 "/>
   <polygon class="fil0" points="187,322 188,322 188,323 187,323 "/>
   <polygon class="fil0" points="174,347 175,347 174,348 173,348 "/>
   <polygon class="fil0" points="162,373 162,373 162,373 162,373 "/>
   <polygon class="fil0" points="150,398 151,398 151,399 150,399 "/>
   <polygon class="fil0" points="140,425 140,425 140,425 140,425 "/>
   <polygon class="fil0" points="130,451 131,451 131,452 130,452 "/>
   <polygon class="fil0" points="122,478 122,478 122,479 122,479 "/>
   <polygon class="fil0" points="115,505 115,505 115,506 114,506 "/>
   <polygon class="fil0" points="109,533 109,533 109,533 109,533 "/>
   <polygon class="fil0" points="104,561 104,561 104,561 104,561 "/>
   <polygon class="fil0" points="100,589 100,589 100,589 100,589 "/>
   <polygon class="fil0" points="97,617 97,617 97,617 97,617 "/>
   <polygon class="fil0" points="94,674 94,674 94,674 94,674 "/>
   <polygon class="fil0" points="149,326 149,326 149,326 149,326 "/>
   <polygon class="fil0" points="137,352 137,352 137,352 137,352 "/>
   <polygon class="fil0" points="125,377 125,377 125,377 125,377 "/>
   <polygon class="fil0" points="114,403 114,403 114,404 114,404 "/>
   <polygon class="fil0" points="104,430 105,430 105,430 104,430 "/>
   <polygon class="fil0" points="96,457 96,457 96,457 96,457 "/>
   <polygon class="fil0" points="88,484 88,484 88,484 88,484 "/>
   <polygon class="fil0" points="67,595 67,595 67,595 67,595 "/>
   <polygon class="fil0" points="65,623 65,623 65,623 65,623 "/>
   <polygon class="fil0" points="63,651 63,651 63,652 63,652 "/>
   <polygon class="fil0" points="112,331 112,331 112,331 112,331 "/>
   <polygon class="fil0" points="54,489 54,489 54,490 54,490 "/>
   <polygon class="fil0" points="35,601 35,601 35,601 35,601 "/>
   <polygon class="fil0" points="33,629 33,629 33,629 33,629 "/>
   <polygon class="fil0" points="35,441 35,441 35,441 35,441 "/>
   <polygon class="fil0" points="27,468 27,468 27,468 27,468 "/>
   <polygon class="fil0" points="0,692 0,692 0,692 0,692 "/>
   <polygon class="fil0" points="1,720 1,720 1,720 1,720 "/>
  </g>
 </g>
</svg>
