<svg xmlns="http://www.w3.org/2000/svg" width="873px" height="996px" version="1.1" style="shape-rendering:geometricPrecision; text-rendering:geometricPrecision; image-rendering:optimizeQuality; fill-rule:evenodd; clip-rule:evenodd"
     viewBox="0 0 873 996">
 <defs>
  <style type="text/css">
   <![CDATA[
    .fil4 {fill:#49654E}
    .fil3 {fill:white}
    .fil0 {fill:#49654E;fill-rule:nonzero}
    .fil1 {fill:#C0CFB2;fill-rule:nonzero}
    .fil2 {fill:white;fill-rule:nonzero}
   ]]>
  </style>
 </defs>
 <g id="Layer_x0020_1">
  <metadata id="CorelCorpID_0Corel-Layer"/>
  <g id="_451799048">
   <path class="fil0" d="M275 464l15 37c1,1 2,2 3,2 2,1 3,1 5,0l18 -7 0 0 0 0 0 0 1 -1c1,0 3,-1 6,-2 4,-2 12,-4 20,-6 18,-5 42,-10 68,-10 25,0 51,5 70,9 20,5 33,10 34,10l0 0 19 7c2,1 6,0 7,-3l13 -37c1,-3 0,-6 -3,-7l-18 -7c-1,-1 -16,-6 -38,-11 -22,-6 -52,-11 -84,-11 -31,0 -59,5 -80,11 -20,5 -33,11 -35,11l0 0 -18 8c-2,1 -3,2 -3,3 -1,1 -1,3 0,4zm479 203c2,3 6,5 11,5 4,0 8,-2 11,-5 3,-2 4,-5 4,-9 0,-3 -1,-7 -4,-9 -3,-3 -7,-4 -11,-4 -5,0 -9,1 -11,4 -3,2 -5,6 -5,9 0,4 2,7 5,9zm-622 67l-63 0c-3,0 -6,-1 -9,-3 -2,-3 -3,-6 -3,-9l0 -161c0,-3 1,-6 3,-8 3,-2 6,-4 9,-4l57 0c7,-15 17,-30 28,-44 -2,-5 -28,-67 -48,-105 -8,-5 88,-54 166,19 43,-18 91,-28 143,-28 170,0 309,110 309,245 0,3 -1,7 -1,11 2,5 6,11 11,15 3,2 6,3 9,5 -2,-3 -2,-6 -2,-9 0,-6 3,-12 7,-15 4,-4 10,-7 17,-7 6,0 12,3 17,7 4,3 7,9 7,15 0,3 -1,6 -2,9 3,-2 6,-3 8,-5 8,-6 12,-13 12,-21l9 0c0,11 -6,21 -16,28 -9,7 -21,11 -35,11 -14,0 -26,-4 -36,-11 -3,-2 -5,-5 -7,-7 -7,49 -32,94 -71,131l12 119c1,7 -3,12 -9,14l-43 12c-6,2 -12,-1 -15,-6l-41 -79c-42,17 -90,27 -140,27 -48,0 -93,-9 -133,-24l-40 76c-2,5 -9,8 -15,6l-42 -12c-6,-2 -10,-7 -9,-14l11 -112c-23,-19 -42,-41 -55,-66z"/>
   <path class="fil1" d="M303 458c1,0 4,-1 6,-2 6,-2 14,-5 24,-8 20,-5 48,-10 78,-10 31,0 60,5 82,10 21,6 35,11 36,11l13 5 -10 27 -13 -5 0 0c-2,-1 -15,-6 -35,-10 -20,-5 -46,-10 -73,-10 -27,0 -52,5 -70,10 -10,3 -17,5 -22,7 -2,1 -4,1 -6,2l-1 0 0 1 0 0 0 0 -14 5 -11 -26 13 -6 1 0 2 -1z"/>
   <path class="fil2" d="M319 483c5,-2 12,-4 22,-7 18,-5 43,-10 70,-10 27,0 53,5 73,10 20,4 33,9 35,10l0 0 13 5 10 -27 -13 -5c-1,0 -15,-5 -36,-11 -22,-5 -51,-10 -82,-10 -30,0 -58,5 -78,10 -10,3 -18,6 -24,8 -2,1 -5,2 -6,2l-2 1 -1 0 -13 6 11 26 14 -5 0 0 0 0 0 -1 1 0c2,-1 4,-1 6,-2zm-21 20c-2,1 -3,1 -5,0 -1,0 -2,-1 -3,-2l-15 -37c-1,-1 -1,-3 0,-4 0,-1 1,-2 3,-3l18 -8 0 0c2,0 15,-6 35,-11 21,-6 49,-11 80,-11 32,0 62,5 84,11 22,5 37,10 38,11l18 7c3,1 4,4 3,7l-13 37c-1,3 -5,4 -7,3l-19 -7 0 0c-1,0 -14,-5 -34,-10 -19,-4 -45,-9 -70,-9 -26,0 -50,5 -68,10 -8,2 -16,4 -20,6 -3,1 -5,2 -6,2l-1 1 0 0 0 0 0 0 -18 7z"/>
   <g>
    <path class="fil3" d="M441 290c-6,25 10,49 35,55 25,6 49,-10 55,-35 6,-25 -10,-49 -35,-55 -24,-6 -49,10 -55,35z"/>
    <g>
     <path class="fil4" d="M510 285c-1,0 -1,0 -1,-1 0,0 1,0 1,-1 1,0 1,0 2,1 0,0 0,1 0,1 0,0 0,0 -1,1 0,0 0,0 -1,0 0,0 0,0 0,-1l0 0zm-4 3c-1,0 -1,-1 -1,-1 1,0 1,-1 1,-1 1,0 1,0 2,1 0,0 0,0 0,0 0,1 0,1 -1,1 0,0 0,0 -1,0 0,0 0,0 0,0l0 0zm-5 2c0,0 0,0 0,-1 0,0 1,0 1,0 0,-1 1,0 1,0 1,0 1,1 1,1 0,0 -1,1 -1,1 0,0 -1,0 -1,0 0,0 0,0 -1,-1l0 0zm-4 3c0,0 0,-1 0,-1 0,0 0,-1 1,-1 0,0 1,0 2,1 0,0 0,0 0,1 0,0 -1,0 -1,0 0,1 -1,1 -1,0 0,0 0,0 -1,0l0 0zm-4 3c0,-1 0,-1 0,-1 0,-1 1,-1 1,-1 0,-1 1,0 1,0 1,0 1,1 1,1 0,0 -1,1 -1,1 0,0 -1,0 -1,0 0,0 -1,0 -1,0l0 0zm-4 1c0,0 0,0 0,-1 1,0 2,0 2,1 0,0 0,0 0,1 0,0 0,0 0,0 0,1 -1,1 -1,1 0,0 -1,-1 -1,-1 0,0 0,-1 0,-1zm-8 6c0,0 0,0 0,-1 0,0 0,0 0,-1 1,0 2,0 2,1 0,0 0,0 0,1 0,0 0,0 0,0 0,1 -1,1 -1,1 0,0 -1,-1 -1,-1l0 0zm-4 3c0,-1 0,-1 0,-1 0,-1 0,-1 0,-1 1,0 2,0 2,0 0,1 0,1 0,1 0,1 0,1 0,1 -1,0 -1,0 -1,0 -1,0 -1,0 -1,0l0 0zm-4 2c0,0 0,0 0,-1 0,0 0,0 0,0 1,-1 2,-1 2,0 0,0 0,1 0,1 0,0 0,0 0,1 -1,0 -1,0 -1,0 -1,0 -1,0 -1,-1l0 0zm-4 3c0,0 0,-1 0,-1 0,0 0,-1 0,-1 1,0 2,0 2,1 0,0 0,0 0,0 0,1 0,1 0,1 -1,0 -1,0 -1,0 -1,0 -1,0 -1,0l0 0zm-4 2c-1,0 -1,0 -1,-1 1,0 1,0 1,0 1,-1 1,0 2,0 0,0 0,1 0,1 0,0 0,1 -1,1 0,0 0,0 -1,0 0,0 0,0 0,-1l0 0zm-4 3c-1,0 -1,-1 -1,-1 1,0 1,-1 1,-1 1,0 1,0 2,1 0,0 0,0 0,1 0,0 0,0 -1,0 0,1 0,1 -1,0 0,1 0,0 0,0l0 0zm10 -39c1,-1 1,-1 1,-1 0,-1 0,-1 0,-1 -1,-1 -1,-1 -2,-1 0,1 0,1 0,1 -1,1 0,1 0,1 0,0 0,1 0,1 1,0 1,0 1,0l0 0zm3 4c0,-1 0,-1 1,-1 0,0 0,-1 -1,-1 0,-1 -1,-1 -1,0 -1,0 -1,0 -1,0 0,1 0,1 0,1 0,0 1,1 1,1 0,0 1,0 1,0l0 0zm3 4c0,0 0,-1 0,-1 0,0 0,-1 0,-1 0,-1 -1,-1 -2,0 0,0 0,0 0,0 0,1 0,1 0,1 0,1 0,1 1,1 0,0 0,0 1,0l0 0zm2 4c0,0 1,-1 1,-1 0,0 0,-1 0,-1 -1,0 -2,-1 -2,0 0,0 -1,0 -1,1 0,0 0,0 0,0 1,1 1,1 1,1 0,0 1,0 1,0l0 0zm3 4c0,0 0,-1 0,-1 0,0 0,-1 0,-1 0,0 -1,-1 -2,0 0,0 0,0 0,1 0,0 0,0 0,0 0,1 0,1 1,1 0,0 0,0 1,0l0 0zm3 3c0,0 0,0 0,-1 -1,0 -1,0 -2,0 0,0 0,0 -1,1 0,0 0,0 1,1 0,0 0,0 0,0 1,0 1,0 1,0 1,0 1,0 1,-1zm2 5c0,0 0,0 0,-1 0,0 0,0 0,-1 0,0 -1,0 -1,0 -1,0 -1,0 -1,1 0,0 0,0 0,1 0,0 1,0 1,0 0,0 1,0 1,0l0 0zm2 4c1,0 1,0 1,-1 0,0 0,0 0,-1 -1,0 -1,0 -2,0 0,0 0,0 -1,1 0,0 0,0 1,1 0,0 0,0 1,0 0,0 0,0 0,0l0 0zm3 4c0,0 0,0 1,-1 0,0 0,0 -1,-1 0,0 -1,0 -1,0 -1,0 -1,0 -1,1 0,0 0,0 0,1 1,0 1,0 1,0 0,0 1,0 1,0l0 0zm3 4c0,0 0,0 0,-1 0,0 0,0 0,0 0,-1 -1,-1 -2,-1 0,0 0,1 0,1 0,0 0,1 0,1 0,0 0,0 1,0 0,0 0,0 1,0l0 0zm2 4c0,0 0,0 0,-1 1,0 0,0 0,0 0,-1 -1,-1 -1,-1 -1,0 -1,1 -1,1 0,0 0,1 0,1 0,0 1,0 1,0 0,0 1,0 1,0l0 0zm3 4c0,0 0,0 0,0 0,-1 0,-1 0,-1 0,-1 -1,-1 -2,-1 0,1 0,1 0,1 0,0 0,1 0,1 0,0 1,0 1,1 0,0 0,0 1,-1l0 0zm2 4c1,0 1,0 1,0 0,-1 0,-1 0,-1 -1,-1 -2,-1 -2,-1 0,1 -1,1 -1,1 0,0 0,1 1,1 0,0 0,1 0,1 1,0 1,0 1,-1l0 0zm-23 -46c4,-1 8,-1 12,-1 4,1 8,3 10,6l9 -5c-4,-6 -10,-9 -17,-11 -6,-1 -13,-1 -19,2l5 9zm-14 28c-1,-4 -2,-8 -1,-12 1,-4 3,-7 6,-10l-5 -9c-6,4 -9,10 -11,17 -1,6 0,13 3,20l8 -6zm28 14c-4,1 -8,2 -12,1 -4,-1 -7,-3 -10,-6l-9 5c5,6 10,9 17,11 7,1 13,1 20,-2l-6 -9zm14 -28c1,4 2,8 1,12 -1,4 -3,7 -6,10l5 9c6,-5 9,-10 11,-17 1,-7 1,-13 -2,-20l-9 6zm0 33c3,1 5,4 4,6 -1,3 -3,5 -6,4 -3,0 -5,-3 -4,-6 1,-3 3,-4 6,-4l0 0zm-51 -11c3,0 4,3 4,6 -1,3 -4,4 -6,4 -3,-1 -5,-4 -4,-6 0,-3 3,-5 6,-4l0 0zm63 -40c3,1 4,3 4,6 -1,3 -4,5 -6,4 -3,0 -5,-3 -4,-6 0,-3 3,-4 6,-4l0 0zm-52 -12c3,1 5,4 4,7 0,2 -3,4 -6,3 -2,0 -4,-3 -4,-6 1,-2 4,-4 6,-4l0 0z"/>
    </g>
    <path class="fil4" d="M542 313c7,-31 -12,-62 -43,-69 -31,-7 -62,12 -69,43 -7,31 13,62 43,69 31,7 62,-12 69,-43zm-46 -58c25,6 41,30 35,55 -6,25 -30,41 -55,35 -25,-6 -41,-30 -35,-55 6,-25 31,-41 55,-35z"/>
   </g>
   <g id="_451786832">
    <path class="fil3" d="M321 222c0,25 21,46 46,46 26,0 47,-21 47,-46 0,-26 -21,-47 -47,-47 -25,0 -46,21 -46,47z"/>
    <g>
     <path class="fil4" d="M387 202c0,0 0,-1 0,-1 0,0 0,-1 0,-1 1,0 1,0 2,0 0,0 0,1 0,1 0,0 0,1 0,1 0,0 -1,0 -1,0 0,0 -1,0 -1,0l0 0zm-3 3c0,0 -1,0 -1,0 0,-1 1,-1 1,-1 0,-1 1,-1 1,0 1,0 1,0 1,1 0,0 0,0 -1,0 0,1 0,1 0,1 -1,0 -1,0 -1,-1l0 0zm-4 4c0,0 0,-1 0,-1 0,0 0,-1 0,-1 1,0 1,0 2,0 0,0 0,1 0,1 0,0 0,1 0,1 0,0 -1,0 -1,0 0,0 -1,0 -1,0l0 0zm-3 3c0,0 -1,0 -1,-1 0,0 1,0 1,-1 0,0 1,0 2,0 0,1 0,1 0,1 0,1 0,1 0,1 -1,0 -1,1 -1,1 -1,0 -1,-1 -1,-1l0 0zm-3 4c-1,-1 -1,-1 -1,-1 0,-1 0,-1 1,-1 0,-1 1,-1 1,0 1,0 1,0 1,1 0,0 -1,0 -1,1 0,0 0,0 -1,0 0,0 0,0 0,0l0 0zm-4 2c0,0 0,0 0,-1 0,0 1,0 2,0 0,1 0,1 0,1 0,0 0,1 0,1 -1,0 -1,0 -1,0 -1,0 -1,0 -1,0 0,0 0,-1 0,-1zm-7 8c0,-1 0,-1 0,-1 0,0 0,-1 0,-1 1,-1 1,-1 2,0 0,0 0,1 0,1 0,0 0,0 0,1 0,0 -1,0 -1,0 0,0 -1,0 -1,0l0 0zm-3 3c-1,0 -1,0 -1,-1 0,0 0,0 1,-1 0,0 1,0 2,0 0,1 0,1 0,1 0,1 0,1 0,1 -1,0 -1,0 -1,0 -1,1 -1,0 -1,0l0 0zm-4 4c0,-1 0,-1 0,-1 0,-1 0,-1 0,-1 1,-1 2,-1 2,0 0,0 0,0 0,1 0,0 0,0 0,1 0,0 0,0 -1,0 0,0 0,0 -1,0l0 0zm-3 3c0,0 0,-1 0,-1 0,0 0,0 0,-1 0,0 1,0 2,0 0,1 0,1 0,1 0,0 0,1 0,1 -1,0 -1,0 -1,0 0,0 -1,0 -1,0l0 0zm-4 3c0,0 0,0 0,0 0,-1 0,-1 0,-1 1,-1 2,-1 2,0 1,0 1,0 1,1 0,0 0,0 -1,0 0,1 0,1 -1,1 0,0 0,0 -1,-1l0 0zm-3 4c0,0 0,-1 0,-1 0,0 0,-1 0,-1 1,0 1,0 2,0 0,0 0,1 0,1 0,0 0,1 0,1 0,0 -1,0 -1,0 0,0 -1,0 -1,0l0 0zm2 -41c0,0 0,-1 0,-1 0,0 0,-1 0,-1 -1,0 -1,0 -2,0 0,0 0,1 0,1 0,0 0,1 0,1 0,0 1,0 1,0 0,0 1,0 1,0l0 0zm3 3c1,0 1,0 1,0 0,-1 0,-1 -1,-1 0,-1 -1,-1 -2,0 0,0 0,0 0,1 0,0 0,0 0,0 1,1 1,1 1,1 1,0 1,0 1,-1l0 0zm4 4c0,0 0,-1 0,-1 0,0 0,-1 0,-1 -1,0 -2,0 -2,0 0,0 0,1 0,1 0,0 0,1 0,1 0,0 1,0 1,0 0,0 0,0 1,0l0 0zm3 3c0,0 0,0 0,-1 0,0 0,0 0,-1 0,0 -1,0 -2,0 0,1 0,1 0,1 0,1 0,1 0,1 1,0 1,1 1,1 1,0 1,-1 1,-1l0 0zm3 4c1,-1 1,-1 1,-1 0,-1 0,-1 -1,-1 0,-1 -1,-1 -1,0 -1,0 -1,0 -1,1 0,0 0,0 1,1 0,0 0,0 1,0 0,0 0,0 0,0l0 0zm4 2c0,0 0,0 0,-1 -1,0 -1,0 -2,0 0,1 0,1 0,1 0,0 0,1 0,1 0,0 1,0 1,0 0,0 1,0 1,0 0,0 0,-1 0,-1zm3 5c1,-1 1,-1 1,-1 0,-1 0,-1 -1,-1 0,-1 -1,-1 -1,0 -1,0 -1,0 -1,1 0,0 0,0 1,1 0,0 0,0 0,0 1,0 1,0 1,0l0 0zm4 3c0,-1 0,-1 0,-1 0,0 0,-1 0,-1 -1,-1 -2,-1 -2,0 0,0 0,1 0,1 0,0 0,0 0,1 0,0 1,0 1,0 0,0 1,0 1,0l0 0zm3 3c0,0 1,0 1,-1 0,0 -1,0 -1,-1 0,0 -1,0 -2,0 0,1 0,1 0,1 0,1 0,1 0,1 1,0 1,0 1,0 1,1 1,0 1,0l0 0zm4 4c0,-1 0,-1 0,-1 0,-1 0,-1 0,-1 -1,-1 -2,-1 -2,0 0,0 0,0 0,1 0,0 0,0 0,1 0,0 0,0 1,0 0,0 0,0 1,0l0 0zm3 3c0,0 0,-1 0,-1 0,0 0,0 0,-1 -1,0 -1,0 -2,0 0,1 0,1 0,1 0,0 0,1 0,1 0,0 1,0 1,0 0,0 1,0 1,0l0 0zm3 3c1,0 1,0 1,0 0,-1 0,-1 -1,-1 0,-1 -1,-1 -1,0 -1,0 -1,0 -1,1 0,0 1,0 1,0 0,1 0,1 1,1 0,0 0,0 0,-1l0 0zm4 4c0,0 0,-1 0,-1 0,0 0,-1 0,-1 -1,0 -1,0 -2,0 0,0 0,1 0,1 0,0 0,1 0,1 0,0 1,0 1,0 0,0 1,0 1,0l0 0zm-33 -40c3,-2 7,-4 11,-4 5,0 8,2 12,4l7 -8c-6,-4 -12,-6 -19,-6 -6,0 -13,2 -18,6l7 8zm-7 30c-3,-4 -4,-7 -4,-11 0,-5 1,-8 4,-12l-8 -7c-4,5 -6,12 -6,19 0,6 2,13 6,18l8 -7zm30 7c-4,3 -7,4 -11,4 -5,0 -9,-1 -12,-4l-7 8c5,4 12,6 19,6 6,0 13,-2 18,-6l-7 -8zm7 -30c2,4 4,7 4,12 -1,4 -2,8 -4,11l7 7c5,-5 7,-12 7,-18 0,-7 -2,-14 -7,-19l-7 7zm8 33c3,0 5,2 5,5 0,2 -2,5 -5,5 -3,0 -5,-2 -5,-5 0,-3 2,-5 5,-5l0 0zm-53 0c3,0 5,2 5,5 0,2 -2,5 -5,5 -3,0 -5,-2 -5,-5 0,-3 2,-5 5,-5l0 0zm53 -53c3,0 5,2 5,5 0,3 -2,5 -5,5 -3,0 -5,-2 -5,-5 0,-3 2,-5 5,-5l0 0zm-53 0c3,0 5,2 5,5 0,3 -2,5 -5,5 -3,0 -5,-2 -5,-5 0,-3 2,-5 5,-5l0 0z"/>
    </g>
    <path class="fil4" d="M425 222c0,-32 -26,-58 -58,-58 -31,0 -57,26 -57,58 0,31 26,57 57,57 32,0 58,-26 58,-57zm-58 -47c26,0 47,21 47,47 0,25 -21,46 -47,46 -25,0 -46,-21 -46,-46 0,-26 21,-47 46,-47z"/>
   </g>
   <g>
    <path class="fil3" d="M442 126c8,24 35,37 59,28 24,-9 36,-35 27,-59 -8,-24 -35,-36 -59,-28 -24,9 -36,35 -27,59z"/>
    <g>
     <path class="fil4" d="M497 86c0,-1 -1,-1 -1,-1 0,0 0,-1 0,-1 1,-1 1,-1 2,-1 0,0 1,1 1,1 0,0 0,1 0,1 -1,0 -1,0 -1,1 0,0 -1,0 -1,0l0 0zm-2 4c0,0 -1,0 -1,-1 0,0 0,0 0,-1 1,0 1,-1 2,0 0,0 0,0 1,0 0,1 0,1 0,1 -1,1 -1,1 -1,1 0,0 -1,0 -1,0l0 0zm-2 4c-1,0 -1,0 -1,0 0,-1 0,-1 0,-1 0,-1 1,-1 2,-1 0,0 0,1 0,1 1,0 0,0 0,1 0,0 0,0 0,0 -1,0 -1,0 -1,0l0 0zm-2 5c-1,0 -1,-1 -1,-1 0,0 0,-1 0,-1 0,-1 1,-1 2,-1 0,1 0,1 1,1 0,0 0,1 -1,1 0,0 0,1 0,1 -1,0 -1,0 -1,0l0 0zm-2 4c-1,0 -1,0 -1,-1 0,0 0,0 0,-1 0,0 1,0 2,0 0,0 0,0 0,0 1,1 1,1 0,1 0,1 0,1 0,1 -1,0 -1,0 -1,0l0 0zm-3 4c0,-1 0,-1 0,-1 0,-1 1,-1 2,-1 0,0 0,1 0,1 0,0 0,1 0,1 0,0 0,0 -1,0 0,1 0,1 0,0 -1,0 -1,0 -1,0zm-3 9c-1,0 -1,0 -1,-1 0,0 0,0 0,-1 0,0 1,0 2,0 0,0 0,0 0,0 0,1 0,1 0,1 0,1 0,1 -1,1 0,0 0,0 0,0l0 0zm-3 4c0,0 0,0 0,0 0,-1 0,-1 0,-1 0,-1 1,-1 1,-1 1,0 1,1 1,1 0,0 0,0 0,1 0,0 0,0 -1,0 0,1 0,1 -1,0l0 0zm-2 5c0,0 0,-1 0,-1 0,0 0,-1 0,-1 0,0 1,-1 1,0 1,0 1,0 1,0 0,1 0,1 0,1 0,1 0,1 -1,1 0,0 0,0 -1,0l0 0zm-2 4c0,0 0,0 0,-1 0,0 0,0 0,0 0,-1 1,-1 1,-1 1,0 1,0 1,1 0,0 0,0 0,1 0,0 0,0 -1,0 0,0 0,0 -1,0l0 0zm-2 5c0,-1 0,-1 0,-1 -1,0 -1,-1 0,-1 0,-1 1,-1 1,-1 1,0 1,1 1,1 0,0 0,1 0,1 0,0 -1,0 -1,1 0,0 0,0 -1,0l0 0zm-2 4c0,0 0,0 0,-1 0,0 0,0 0,-1 0,0 1,-1 1,0 1,0 1,0 1,0 0,1 0,1 0,1 0,1 -1,1 -1,1 0,0 0,0 -1,0l0 0zm-12 -39c0,0 0,-1 0,-1 0,0 0,-1 -1,-1 0,0 -1,0 -1,1 0,0 0,0 0,1 0,0 0,0 0,0 1,1 1,1 1,0 1,0 1,0 1,0l0 0zm4 2c1,0 1,-1 0,-1 0,0 0,-1 0,-1 -1,0 -2,0 -2,1 0,0 0,1 0,1 0,0 0,0 1,1 0,0 0,0 1,0 0,-1 0,-1 0,-1l0 0zm5 2c0,0 0,-1 0,-1 0,0 -1,0 -1,-1 0,0 -1,0 -1,1 -1,0 -1,1 0,1 0,0 0,0 0,1 0,0 1,0 1,0 0,0 1,-1 1,-1l0 0zm4 2c0,0 0,-1 0,-1 0,0 0,0 0,-1 -1,0 -2,0 -2,1 0,0 0,1 0,1 0,0 0,1 1,1 0,0 0,0 0,0 1,0 1,-1 1,-1l0 0zm4 2c1,0 1,-1 1,-1 -1,0 -1,0 -1,-1 -1,0 -2,0 -2,1 0,0 0,1 0,1 0,0 0,1 1,1 0,0 0,0 1,0 0,0 0,-1 0,-1l0 0zm5 1c0,0 0,0 -1,-1 0,0 -1,0 -1,1 0,0 0,1 0,1 0,0 0,1 0,1 1,0 1,0 1,0 1,0 1,-1 1,-1 0,0 0,0 0,-1zm4 3c0,0 0,0 0,-1 0,0 0,0 0,0 -1,-1 -2,0 -2,0 0,1 0,1 0,1 0,0 0,1 1,1 0,0 0,0 1,0 0,0 0,0 0,-1l0 0zm5 2c0,0 0,-1 0,-1 0,0 -1,0 -1,-1 -1,0 -1,0 -2,1 0,0 0,1 0,1 0,0 1,1 1,1 0,0 1,0 1,0 0,0 0,-1 1,-1l0 0zm4 2c0,0 0,0 0,-1 0,0 0,0 -1,0 0,-1 -1,0 -1,0 0,0 0,1 0,1 0,0 0,1 0,1 1,0 1,0 1,0 1,0 1,-1 1,-1l0 0zm4 2c1,0 0,0 0,-1 0,0 0,0 0,0 -1,-1 -2,0 -2,0 0,0 0,1 0,1 0,0 0,1 1,1 0,0 0,0 1,0 0,0 0,0 0,-1l0 0zm5 2c0,0 0,0 0,-1 -1,0 -1,0 -1,0 -1,-1 -1,0 -2,0 0,1 0,1 0,1 0,1 1,1 1,1 0,0 1,0 1,0 0,0 0,0 1,-1l0 0zm4 2c0,0 0,0 0,-1 0,0 0,0 0,0 -1,-1 -2,0 -2,0 0,1 0,1 0,1 0,1 0,1 0,1 1,0 1,0 1,0 1,0 1,0 1,-1l0 0zm4 2c1,0 1,0 1,-1 -1,0 -1,0 -1,0 -1,-1 -2,0 -2,0 0,1 0,1 0,1 0,1 0,1 1,1 0,0 0,0 1,0 0,0 0,0 0,-1l0 0zm-44 -26c2,-3 6,-6 10,-7 3,-2 7,-2 12,-1l4 -9c-7,-2 -14,-2 -20,0 -6,2 -12,7 -15,13l9 4zm3 31c-3,-3 -6,-6 -7,-10 -1,-4 -2,-8 -1,-12l-9 -4c-2,7 -2,13 1,20 2,6 6,11 12,15l4 -9zm31 -4c-2,4 -5,6 -9,8 -4,1 -8,1 -12,0l-5 10c7,2 14,2 20,-1 7,-2 12,-6 16,-12l-10 -5zm-3 -30c3,2 6,5 7,9 1,4 1,8 0,12l10 4c2,-6 2,-13 0,-19 -3,-7 -7,-12 -13,-16l-4 10zm18 28c3,-1 6,0 7,3 1,2 -1,5 -4,6 -2,1 -5,0 -6,-3 -1,-3 0,-6 3,-6l0 0zm-49 17c2,-1 5,1 6,3 1,3 0,6 -3,7 -3,1 -5,0 -6,-3 -1,-3 0,-6 3,-7l0 0zm31 -67c3,-1 6,1 7,3 1,3 -1,6 -3,7 -3,1 -6,-1 -7,-3 -1,-3 1,-6 3,-7l0 0zm-49 18c2,-1 5,0 6,3 1,3 0,6 -3,7 -2,1 -5,-1 -6,-3 -1,-3 0,-6 3,-7l0 0z"/>
    </g>
    <path class="fil4" d="M539 91c-11,-29 -44,-45 -73,-34 -30,11 -45,43 -35,73 11,30 44,45 74,35 29,-11 45,-44 34,-74zm-70 -24c24,-8 51,4 59,28 9,24 -3,50 -27,59 -24,9 -51,-4 -59,-28 -9,-24 3,-50 27,-59z"/>
   </g>
  </g>
 </g>
</svg>
